<svg id="レイヤー_1" data-name="レイヤー 1" xmlns="http://www.w3.org/2000/svg" xmlns:xlink="http://www.w3.org/1999/xlink" viewBox="0 0 566.93 283.46"><defs><style>.cls-1{fill:none;}.cls-2{clip-path:url(#clip-path);}.cls-3,.cls-5{fill:#fff;}.cls-3{opacity:0;}.cls-4{clip-path:url(#clip-path-2);}</style><clipPath id="clip-path"><rect class="cls-1" x="-672.07" y="-593.77" width="712.92" height="613.35"/></clipPath><clipPath id="clip-path-2"><rect class="cls-1" x="30.89" y="52.64" width="523.36" height="207.98"/></clipPath></defs><title>アートボード 1</title><g class="cls-2"><rect class="cls-3" x="-672.07" y="-593.77" width="712.92" height="613.35"/></g><g class="cls-4"><rect class="cls-3" x="30.89" y="52.64" width="523.36" height="207.98"/><path d="M440.08,60.79C503.3,62.54,553.83,108.29,553,163c-.88,54.48-52.47,97.31-115.45,95.86l1-99Z"/><rect x="83.9" y="54" width="342.56" height="206.63"/><path d="M30.89,52.64H58.07c15,0,27.19,46.25,27.19,103.31S73.09,259.26,58.07,259.26H30.89Z"/><rect class="cls-5" x="185.86" y="128.76" width="240.61" height="21.75"/><rect class="cls-5" x="172.26" y="173.62" width="254.2" height="40.78" rx="6.8" ry="6.8"/></g></svg>