<svg id="レイヤー_1" data-name="レイヤー 1" xmlns="http://www.w3.org/2000/svg" xmlns:xlink="http://www.w3.org/1999/xlink" viewBox="0 0 566.93 566.93"><defs><style>.cls-1,.cls-4{fill:none;}.cls-2{clip-path:url(#clip-path);}.cls-3,.cls-5{fill:#fff;}.cls-3{opacity:0;}.cls-4{stroke:#41719c;stroke-miterlimit:8;}</style><clipPath id="clip-path"><rect class="cls-1" x="-51.93" y="26.16" width="670.78" height="486.46"/></clipPath></defs><title>アートボード 1</title><g class="cls-2"><rect class="cls-3" x="-51.93" y="26.16" width="670.78" height="486.46"/><path d="M64.26,132.52A51.2,51.2,0,0,1,126,94.62l389.62,93.07a51.21,51.21,0,0,1,37.91,61.7L505.9,448.59a51.21,51.21,0,0,1-61.7,37.91L54.58,393.43a51.2,51.2,0,0,1-37.91-61.7Z"/><path class="cls-4" d="M64.26,132.52A51.21,51.21,0,0,1,126,94.62l389.62,93.07a51.21,51.21,0,0,1,37.91,61.7L505.9,448.59a51.2,51.2,0,0,1-61.7,37.91L54.58,393.43a51.21,51.21,0,0,1-37.91-61.7Z"/><path class="cls-5" d="M140.9,205.12,137,220l18.76,4.86L159.65,210ZM190,217.83l-19.31-5-3.86,14.89,19.31,5Zm-40.56-41.11,46.34,12q-10.69-11-18.41-28.9A63.89,63.89,0,0,1,149.43,176.72Zm-50,24.73a95.78,95.78,0,0,1-21.32,21l-3.07-13.16q24.63-20.11,32.55-41.6l-17.1-4.43,2.71-10.48,17.65,4.57,7-27L128.37,133q4.27,1.69-.31,3.45l-6.14,23.72,13.24,3.43-1,3.86q26-2.68,43.18-23.55l10.18,6.17q1.49,3.33-3.06,2.74,9.5,20.12,32,37.72l-7.82,9.75a89.87,89.87,0,0,1-12.49-10.89L194,197.69,175.83,193,173,204l28.68,7.43-9.14,35.3-9.38-2.43.71-2.76L166.2,237q6.34,18.71,31.24,31.64l-8.66,10.71Q165.41,265,158.13,243.13q-17,20.31-48.8,18l-1.56-12.18q31.22,2.2,44.08-15.66l-17.1-4.43-.86,3.31-9.38-2.43,9.29-35.86,28.13,7.29,2.86-11-19.31-5,2-7.72A62.44,62.44,0,0,1,130,181.11l-.9-7.89-9.93-2.57-4.43,17.1q9.18,10,12.85,16.28l-8.78,8.91a65.28,65.28,0,0,0-7.36-12.5L96.35,258.92l-11-2.86Z"/><path class="cls-5" d="M258.84,247.43l46.34,12,2.29-8.83-46.34-12Zm44.05,20.83-46.34-12-2.29,8.83,46.34,12Zm-4.57,17.65-46.34-12-2.57,9.93,46.34,12Zm-45.94-59,68.4,17.72-14,54.06,26.48,6.86L331,314.38l-119.7-31,2.29-8.83L238.38,281ZM344,259.49q-29.4-20.56-45.06-48.75l-5.57,21.51-11-2.86,5-19.31A143.74,143.74,0,0,1,224.85,231l-2-12.87q40-4.36,63.33-19.51l-47.44-12.29,2.71-10.48,51.3,13.29,3.43-13.24,10.48,2.71q4.27,1.69-.31,3.45L303.82,192,354,205l-2.71,10.48-45.23-11.71q15.68,25.84,45.79,43.65Z"/><path class="cls-5" d="M422.06,280.88l37,9.57,2.29-8.83q-10.73-6.31-16.2-12.44a122.31,122.31,0,0,1-21.33,5.07ZM380.7,236a60.85,60.85,0,0,1,15.59,19.34l-11.54,8.2A123,123,0,0,0,370.41,244Zm35.67,64.57,37.51,9.71,2.86-11-37-9.57A78.6,78.6,0,0,1,416.37,300.59Zm-23.95-93.91a57.41,57.41,0,0,1,14.22,17.81l-11.13,8.89a89.26,89.26,0,0,0-13.39-18.77Zm-42.2,103.85q19.91-17.8,32.07-32.9l7.66,9a262.74,262.74,0,0,1-28.47,32.65q-.18,5.25-2.65,3.43ZM436.11,238a59.78,59.78,0,0,0,11.73,18.34q15.12-6.09,18.61-10.49Zm-60,81.59q24.33-.76,32.19-31.1l3.43-13.24q-6.09.78-18.24,0l.38-12.85q27.07,2.3,42.45-2.54-10-13.77-12.92-25.12l-16.55-4.29L409.59,220l37.51,9.71L451,214.78l10.48,2.71q4.27,1.69-.31,3.45l-3,11.58,41.37,10.71-2.71,10.48-17.1-4.43q-8.09,8.5-23.49,15.7,14.43,10.21,38.94,20.09L489.38,296a92.46,92.46,0,0,1-17.76-8.72l-16.14,62.33-11-2.86,7.14-27.58-38.61-10q-10.13,20.92-34.19,22.93Z"/><path class="cls-5" d="M178.94,371.43l-6.83,10a1.56,1.56,0,0,1-1.22.55,8.33,8.33,0,0,1-2.54-.36,9.7,9.7,0,0,1-1.37-.44,2,2,0,0,1-.74-.49.74.74,0,0,1-.18-.61,1.71,1.71,0,0,1,.37-.75l6.8-9.32a1.9,1.9,0,0,1-.65-1.3l-3.26-31.29a3.43,3.43,0,0,1,0-1.16.82.82,0,0,1,.43-.56,1.71,1.71,0,0,1,.94-.09,12.51,12.51,0,0,1,1.61.33q1,.26,1.55.45a3.36,3.36,0,0,1,.85.41,1,1,0,0,1,.38.51,4.65,4.65,0,0,1,.14.76l2.32,26.16.1,0,14.47-22a1.53,1.53,0,0,1,.69-.69,2.25,2.25,0,0,1,.91,0,12.38,12.38,0,0,1,1.65.34,11.85,11.85,0,0,1,1.5.48,1.83,1.83,0,0,1,.8.54.8.8,0,0,1,.12.7,3.38,3.38,0,0,1-.46.94Zm-23-22.73a23.23,23.23,0,0,0,.74-4.69,11.68,11.68,0,0,0-.5-4.16,7.59,7.59,0,0,0-2.12-3.29,9.47,9.47,0,0,0-4.13-2.08,9.6,9.6,0,0,0-4.39-.22,7.91,7.91,0,0,0-3.5,1.7,11.35,11.35,0,0,0-2.64,3.3,19.75,19.75,0,0,0-1.77,4.57,23.4,23.4,0,0,0-.75,4.73,11.28,11.28,0,0,0,.52,4.15,7.78,7.78,0,0,0,2.14,3.28,9.47,9.47,0,0,0,4.13,2.08,9.63,9.63,0,0,0,4.37.21,7.93,7.93,0,0,0,3.51-1.67,10.93,10.93,0,0,0,2.62-3.29A20.5,20.5,0,0,0,156,348.69Zm5.87,1.13a23.11,23.11,0,0,1-2.7,6.47,15.31,15.31,0,0,1-4.24,4.55,13.43,13.43,0,0,1-5.68,2.23,17.15,17.15,0,0,1-7-.48,17.8,17.8,0,0,1-6.14-2.76,12.12,12.12,0,0,1-3.74-4.37,13.94,13.94,0,0,1-1.41-5.78,24.33,24.33,0,0,1,.86-7,23.48,23.48,0,0,1,2.69-6.47,15.11,15.11,0,0,1,4.22-4.55,13.29,13.29,0,0,1,5.65-2.22,17.32,17.32,0,0,1,7,.5,17.79,17.79,0,0,1,6.14,2.76,12.12,12.12,0,0,1,3.74,4.37,14.13,14.13,0,0,1,1.42,5.79A23.78,23.78,0,0,1,161.82,349.82Zm-29.5-21.13q-.19.73-.35,1.22a3.14,3.14,0,0,1-.33.75,1.18,1.18,0,0,1-.36.37.58.58,0,0,1-.45,0,1.9,1.9,0,0,1-.61-.32q-.34-.25-.79-.52t-1-.56a6.16,6.16,0,0,0-1.26-.47,4.33,4.33,0,0,0-1.71-.09,6.56,6.56,0,0,0-2,.66,14.09,14.09,0,0,0-2.37,1.55q-1.29,1-2.92,2.54l-5.09,19.64a.77.77,0,0,1-.25.41,1.07,1.07,0,0,1-.51.2,3.13,3.13,0,0,1-.88,0,11.71,11.71,0,0,1-1.38-.29,11.37,11.37,0,0,1-1.31-.41A3.4,3.4,0,0,1,108,353a.94.94,0,0,1-.35-.43.84.84,0,0,1,0-.48l7.73-29.86a1,1,0,0,1,.22-.42.91.91,0,0,1,.48-.23,2.33,2.33,0,0,1,.81,0,12.44,12.44,0,0,1,1.24.27q.73.19,1.2.36a2,2,0,0,1,.69.39,1.08,1.08,0,0,1,.3.43.84.84,0,0,1,0,.48l-1.13,4.35a24.18,24.18,0,0,1,3.06-2.32,13.14,13.14,0,0,1,2.5-1.25,6.53,6.53,0,0,1,2.14-.4,7.71,7.71,0,0,1,2,.25q.43.11,1,.3a9.37,9.37,0,0,1,1.1.48,10.25,10.25,0,0,1,1,.58,2.34,2.34,0,0,1,.59.51,1,1,0,0,1,.18.38,2,2,0,0,1,0,.41,4.37,4.37,0,0,1-.11.7Q132.52,327.93,132.32,328.7ZM97.75,349.52a.77.77,0,0,1-.25.41,1.08,1.08,0,0,1-.51.2,3.13,3.13,0,0,1-.88,0,11.73,11.73,0,0,1-1.38-.29,11.38,11.38,0,0,1-1.31-.41,3.4,3.4,0,0,1-.79-.42.94.94,0,0,1-.35-.43.84.84,0,0,1,0-.48l11.48-44.33a.93.93,0,0,1,.24-.43.89.89,0,0,1,.52-.22,3.4,3.4,0,0,1,.9,0,11.37,11.37,0,0,1,1.34.28,11.72,11.72,0,0,1,1.34.42,3.13,3.13,0,0,1,.78.41,1,1,0,0,1,.35.44.84.84,0,0,1,0,.5Zm-4.39-43.76A3.72,3.72,0,0,1,92,308.19a4.05,4.05,0,0,1-2.87,0,4,4,0,0,1-2.46-1.36,3.65,3.65,0,0,1,0-2.76A3.72,3.72,0,0,1,88,301.64a4.05,4.05,0,0,1,2.87,0A4,4,0,0,1,93.32,303,3.65,3.65,0,0,1,93.37,305.76Zm-11,39.78a.77.77,0,0,1-.25.41,1.08,1.08,0,0,1-.51.2,3.13,3.13,0,0,1-.88,0,11.72,11.72,0,0,1-1.38-.29,11.37,11.37,0,0,1-1.31-.41,3.4,3.4,0,0,1-.79-.42.94.94,0,0,1-.35-.43.84.84,0,0,1,0-.48l7.73-29.86a.87.87,0,0,1,.23-.4.89.89,0,0,1,.52-.22,3.4,3.4,0,0,1,.9,0,11.37,11.37,0,0,1,1.34.28,11.72,11.72,0,0,1,1.34.42,3.13,3.13,0,0,1,.78.41,1,1,0,0,1,.35.44.79.79,0,0,1,0,.47Zm-12.27-3.28a1,1,0,0,1-.24.45.86.86,0,0,1-.54.23,4.22,4.22,0,0,1-1,0,10.74,10.74,0,0,1-1.48-.3A15,15,0,0,1,65,342a2.52,2.52,0,0,1-1-.65,2.63,2.63,0,0,1-.44-.75L53.37,315.08l-5.56,21.47a.82.82,0,0,1-.8.63,5.19,5.19,0,0,1-.93,0,11.71,11.71,0,0,1-2.74-.71,5.19,5.19,0,0,1-.84-.43.82.82,0,0,1-.4-.93l10.67-41.21a.84.84,0,0,1,.25-.43.92.92,0,0,1,.55-.19,5.19,5.19,0,0,1,.95,0,11.71,11.71,0,0,1,2.74.71,5.2,5.2,0,0,1,.83.43.92.92,0,0,1,.38.44.84.84,0,0,1,0,.5l-4.94,19.08,20.14-15.14a2.07,2.07,0,0,1,.59-.38,2.14,2.14,0,0,1,.73-.15,5.71,5.71,0,0,1,1,.06,12.56,12.56,0,0,1,1.43.3,9.71,9.71,0,0,1,1.37.44,3.84,3.84,0,0,1,.79.43.89.89,0,0,1,.35.44.87.87,0,0,1,0,.46,2,2,0,0,1-.44.81,8.15,8.15,0,0,1-1.12,1L59.71,316l10.05,24.34a7.84,7.84,0,0,1,.38,1.35A1.62,1.62,0,0,1,70.12,342.26Z"/><path class="cls-5" d="M451.31,422a10.34,10.34,0,0,0-.15-7.26,7.48,7.48,0,0,0-5.32-4,8.1,8.1,0,0,0-3.75-.16A7.94,7.94,0,0,0,439,412a9.58,9.58,0,0,0-2.35,2.52,12.72,12.72,0,0,0-1.54,3.34Zm5.09,3.05a2.37,2.37,0,0,1-1.12,1.67,2.29,2.29,0,0,1-1.62.17l-19.58-5.07a19.12,19.12,0,0,0-.66,4.61,8.94,8.94,0,0,0,.77,3.85,7.71,7.71,0,0,0,2.45,3,12.38,12.38,0,0,0,4.35,1.94,19.12,19.12,0,0,0,3.87.63,23,23,0,0,0,3.07,0q1.32-.12,2.19-.26a3.36,3.36,0,0,1,1.27,0,.78.78,0,0,1,.38.22.77.77,0,0,1,.19.42,2.51,2.51,0,0,1,0,.69,9,9,0,0,1-.21,1,7.5,7.5,0,0,1-.23.74q-.11.31-.23.54a1.49,1.49,0,0,1-.28.4,2,2,0,0,1-.4.3,5,5,0,0,1-1.23.32,16.24,16.24,0,0,1-2.53.21,33.43,33.43,0,0,1-3.49-.14,24.91,24.91,0,0,1-4.08-.72,19.11,19.11,0,0,1-6.19-2.7,12.37,12.37,0,0,1-3.87-4.26,13.48,13.48,0,0,1-1.54-5.82,24.44,24.44,0,0,1,.88-7.35,23.11,23.11,0,0,1,2.79-6.66,15.13,15.13,0,0,1,4.22-4.47,13,13,0,0,1,5.38-2.11,15.34,15.34,0,0,1,6.24.39,14.84,14.84,0,0,1,5.7,2.68,11.69,11.69,0,0,1,3.28,4.09,12.61,12.61,0,0,1,1.18,5.08,20.26,20.26,0,0,1-.68,5.68Zm-28-19.73q-.19.73-.35,1.22a3.14,3.14,0,0,1-.33.75,1.18,1.18,0,0,1-.36.37.58.58,0,0,1-.45,0,1.9,1.9,0,0,1-.61-.32q-.34-.25-.79-.52t-1-.56a6.16,6.16,0,0,0-1.26-.47,4.33,4.33,0,0,0-1.71-.09,6.56,6.56,0,0,0-2,.66,14.09,14.09,0,0,0-2.37,1.55q-1.29,1-2.92,2.54l-5.09,19.64a.76.76,0,0,1-.25.41,1.08,1.08,0,0,1-.51.2,3.13,3.13,0,0,1-.88,0,11.72,11.72,0,0,1-1.38-.29,11.37,11.37,0,0,1-1.31-.41,3.4,3.4,0,0,1-.79-.42.94.94,0,0,1-.35-.43.84.84,0,0,1,0-.48l7.73-29.86a1,1,0,0,1,.22-.42.91.91,0,0,1,.48-.23,2.32,2.32,0,0,1,.81,0,12.42,12.42,0,0,1,1.24.27q.73.19,1.2.36a2,2,0,0,1,.69.39,1.08,1.08,0,0,1,.3.43.84.84,0,0,1,0,.48l-1.13,4.35a24.18,24.18,0,0,1,3.06-2.32,13.14,13.14,0,0,1,2.5-1.25,6.53,6.53,0,0,1,2.14-.4,7.71,7.71,0,0,1,2,.25q.43.11,1,.3a9.38,9.38,0,0,1,1.1.48,10.26,10.26,0,0,1,1,.58,2.34,2.34,0,0,1,.59.51,1,1,0,0,1,.18.38,2,2,0,0,1,0,.41,4.37,4.37,0,0,1-.11.7Q428.54,404.6,428.34,405.36Zm-33.76,2a10.34,10.34,0,0,0-.15-7.26,7.48,7.48,0,0,0-5.32-4,8.1,8.1,0,0,0-3.75-.16,7.94,7.94,0,0,0-3.08,1.36,9.58,9.58,0,0,0-2.35,2.52,12.72,12.72,0,0,0-1.54,3.34Zm5.09,3.05a2.37,2.37,0,0,1-1.12,1.67,2.29,2.29,0,0,1-1.62.17l-19.58-5.07a19.11,19.11,0,0,0-.66,4.61,8.94,8.94,0,0,0,.77,3.85,7.71,7.71,0,0,0,2.45,3,12.38,12.38,0,0,0,4.35,1.94,19.12,19.12,0,0,0,3.87.63,23.06,23.06,0,0,0,3.07,0q1.32-.12,2.19-.26a3.36,3.36,0,0,1,1.27,0,.78.78,0,0,1,.38.22.77.77,0,0,1,.19.42,2.51,2.51,0,0,1,0,.69,9,9,0,0,1-.21,1,7.5,7.5,0,0,1-.23.74q-.11.31-.23.54a1.49,1.49,0,0,1-.28.4,2,2,0,0,1-.4.3,5,5,0,0,1-1.23.32,16.23,16.23,0,0,1-2.53.21,33.43,33.43,0,0,1-3.49-.14,24.91,24.91,0,0,1-4.08-.72,19.11,19.11,0,0,1-6.19-2.7,12.37,12.37,0,0,1-3.87-4.26,13.48,13.48,0,0,1-1.54-5.82,24.45,24.45,0,0,1,.88-7.35,23.11,23.11,0,0,1,2.79-6.66,15.13,15.13,0,0,1,4.22-4.47,13,13,0,0,1,5.38-2.11,15.34,15.34,0,0,1,6.24.39,14.84,14.84,0,0,1,5.7,2.68,11.69,11.69,0,0,1,3.28,4.09,12.61,12.61,0,0,1,1.18,5.08,20.25,20.25,0,0,1-.68,5.68Zm-39.42,7.1a.77.77,0,0,1-.25.41,1.08,1.08,0,0,1-.51.2,3.13,3.13,0,0,1-.88,0,11.38,11.38,0,0,1-1.34-.28,11.74,11.74,0,0,1-1.34-.42,3.13,3.13,0,0,1-.78-.41,1.08,1.08,0,0,1-.35-.43.77.77,0,0,1,0-.48l4.53-17.49a17.76,17.76,0,0,0,.67-4.22,8.8,8.8,0,0,0-.47-3,5.2,5.2,0,0,0-1.53-2.24,6.47,6.47,0,0,0-2.65-1.32,7.31,7.31,0,0,0-4.49.39,23,23,0,0,0-5.42,3.16L340,412.26a.77.77,0,0,1-.25.41,1.08,1.08,0,0,1-.51.2,3.13,3.13,0,0,1-.88,0,11.71,11.71,0,0,1-1.38-.29,11.36,11.36,0,0,1-1.31-.41,3.39,3.39,0,0,1-.79-.42.94.94,0,0,1-.35-.43.85.85,0,0,1,0-.48L346,366.51a.94.94,0,0,1,.24-.43.89.89,0,0,1,.52-.22,3.39,3.39,0,0,1,.9,0,11.37,11.37,0,0,1,1.34.28,11.73,11.73,0,0,1,1.34.42,3.14,3.14,0,0,1,.78.41,1,1,0,0,1,.35.44.84.84,0,0,1,0,.5l-4.63,17.88a18.25,18.25,0,0,1,5.7-2.47,10.9,10.9,0,0,1,5.12,0,11.62,11.62,0,0,1,4.76,2.31,9.35,9.35,0,0,1,2.6,3.56,11.13,11.13,0,0,1,.78,4.43,24.55,24.55,0,0,1-.87,5.63Zm-46.81-20.8a9.76,9.76,0,0,1-1.9,3.86,8.58,8.58,0,0,1-3.19,2.4,11.22,11.22,0,0,1-4.2.9,17.42,17.42,0,0,1-4.91-.6,18.79,18.79,0,0,1-5.4-2.34,13.89,13.89,0,0,1-1.73-1.3,5.91,5.91,0,0,1-1-1,2,2,0,0,1-.29-1.07,6.53,6.53,0,0,1,.26-1.67,7.39,7.39,0,0,1,.34-1,3.71,3.71,0,0,1,.35-.65.76.76,0,0,1,.38-.31.78.78,0,0,1,.44,0,2.44,2.44,0,0,1,1,.73q.6.63,1.5,1.43a16.74,16.74,0,0,0,2.22,1.62,11.33,11.33,0,0,0,3.17,1.3,10.18,10.18,0,0,0,2.6.35,6.31,6.31,0,0,0,2.19-.37,4,4,0,0,0,1.66-1.15,4.85,4.85,0,0,0,1-2,3.55,3.55,0,0,0-.1-2.29,6.43,6.43,0,0,0-1.31-2,14.59,14.59,0,0,0-2.08-1.8L302,387.89a29.17,29.17,0,0,1-2.42-2,10.88,10.88,0,0,1-2-2.36,8.21,8.21,0,0,1-1.07-2.9,8.5,8.5,0,0,1,.24-3.58,8.85,8.85,0,0,1,1.55-3.19,8.08,8.08,0,0,1,2.77-2.29,10.57,10.57,0,0,1,3.9-1.06,14.59,14.59,0,0,1,5,.5,15,15,0,0,1,2.34.82,17,17,0,0,1,2,1.06,10.73,10.73,0,0,1,1.47,1.07,7.36,7.36,0,0,1,.87.88,1.87,1.87,0,0,1,.34.58,1.49,1.49,0,0,1,0,.49q0,.26-.06.64a7,7,0,0,1-.18.91,8.63,8.63,0,0,1-.3,1,2.53,2.53,0,0,1-.34.64.91.91,0,0,1-.38.31.64.64,0,0,1-.4,0,1.9,1.9,0,0,1-.77-.59,12.49,12.49,0,0,0-1.26-1.16,16.66,16.66,0,0,0-1.9-1.33,9.93,9.93,0,0,0-2.68-1.08,8.93,8.93,0,0,0-2.54-.32,4.86,4.86,0,0,0-2,.44,3.91,3.91,0,0,0-1.39,1.11,4.4,4.4,0,0,0-.8,1.64,3.62,3.62,0,0,0,.1,2.35,6.54,6.54,0,0,0,1.33,2,15,15,0,0,0,2.11,1.82l2.49,1.81q1.26.93,2.46,2a10.76,10.76,0,0,1,2,2.32,7.9,7.9,0,0,1,1.09,2.83A8.08,8.08,0,0,1,313.43,396.7Zm-32.77-14.33L276,381.16a18.22,18.22,0,0,0-4-.63,8.33,8.33,0,0,0-3,.41,4.82,4.82,0,0,0-2.07,1.37,5.56,5.56,0,0,0-1.14,2.27,5,5,0,0,0,.52,4.08,6,6,0,0,0,3.77,2.45,7.94,7.94,0,0,0,4.28-.06,17.8,17.8,0,0,0,4.73-2.35Zm1.91,15a.72.72,0,0,1-.42.53,1.92,1.92,0,0,1-.81.11,7.19,7.19,0,0,1-1.39-.25,7.81,7.81,0,0,1-1.35-.46,1.69,1.69,0,0,1-.67-.49.77.77,0,0,1-.08-.66l.77-3a15.23,15.23,0,0,1-5.21,2.12,12,12,0,0,1-5.39-.16,14.34,14.34,0,0,1-4.1-1.72,9.53,9.53,0,0,1-2.79-2.62,8.22,8.22,0,0,1-1.35-3.39,9.76,9.76,0,0,1,.25-4,9.2,9.2,0,0,1,2.16-4.11A8.83,8.83,0,0,1,266,377a15,15,0,0,1,5.19-.62,30.22,30.22,0,0,1,6.43,1l4.11,1.07.6-2.32a11.93,11.93,0,0,0,.43-3.15,5.4,5.4,0,0,0-.61-2.51,5.23,5.23,0,0,0-1.76-1.87,10.14,10.14,0,0,0-3.07-1.27,13.09,13.09,0,0,0-3.76-.46,20.06,20.06,0,0,0-3.1.33q-1.36.27-2.3.54a2.89,2.89,0,0,1-1.34.17.84.84,0,0,1-.43-.25,1.17,1.17,0,0,1-.25-.49,2.12,2.12,0,0,1,0-.74,7.16,7.16,0,0,1,.63-2.21,2,2,0,0,1,.8-.77,7.46,7.46,0,0,1,1.8-.61,17.52,17.52,0,0,1,2.8-.41,23.64,23.64,0,0,1,3.32,0,19.24,19.24,0,0,1,3.5.57,18.52,18.52,0,0,1,5.29,2.15,9.15,9.15,0,0,1,3.1,3.09,8.56,8.56,0,0,1,1.12,4,17.51,17.51,0,0,1-.63,5Zm-20.82-37.36a3.05,3.05,0,0,1-.21.55,7.43,7.43,0,0,1-.45.77l-16.14,26.09a1.45,1.45,0,0,1-.47.52,1.49,1.49,0,0,1-.69.21,4.41,4.41,0,0,1-1.09-.09q-.68-.12-1.67-.38t-1.71-.51a5.66,5.66,0,0,1-1.06-.49,1.36,1.36,0,0,1-.52-.52,1.58,1.58,0,0,1-.15-.64l-.66-23.29v-.32l-.14.28-11.42,20.16a1.45,1.45,0,0,1-.47.52,1.49,1.49,0,0,1-.74.2A5.32,5.32,0,0,1,223,383q-.69-.13-1.69-.38t-1.66-.5a5.54,5.54,0,0,1-1-.47,1.36,1.36,0,0,1-.52-.52,1.58,1.58,0,0,1-.15-.64l-1.38-30.63a7.41,7.41,0,0,1,0-.89,3,3,0,0,1,.08-.58.83.83,0,0,1,.26-.45,1,1,0,0,1,.53-.18,3.18,3.18,0,0,1,.88.07q.54.1,1.3.3.93.24,1.48.44a3.4,3.4,0,0,1,.82.39.87.87,0,0,1,.35.44,2.55,2.55,0,0,1,.1.57l.82,26.48v.32l.14-.28,13-22.91a1.49,1.49,0,0,1,.35-.46,1,1,0,0,1,.53-.22,3.26,3.26,0,0,1,.86,0q.53.08,1.36.3t1.3.39a3.25,3.25,0,0,1,.77.38.91.91,0,0,1,.35.43,1.52,1.52,0,0,1,.08.52l.74,26.53v.32l.11-.29,13.48-22.78a1.49,1.49,0,0,1,.35-.46,1,1,0,0,1,.55-.21,3.61,3.61,0,0,1,.91.06q.56.09,1.42.32t1.27.36a2.25,2.25,0,0,1,.72.36,1,1,0,0,1,.32.4A.83.83,0,0,1,261.75,360.06Z"/></g></svg>