<svg id="レイヤー_1" data-name="レイヤー 1" xmlns="http://www.w3.org/2000/svg" xmlns:xlink="http://www.w3.org/1999/xlink" viewBox="0 0 792 612"><defs><style>.cls-1,.cls-4{fill:none;}.cls-2{clip-path:url(#clip-path);}.cls-3{fill:#fff;opacity:0;}.cls-4{stroke:#000;stroke-miterlimit:8;}.cls-5,.cls-8{font-size:56.48px;}.cls-10,.cls-20,.cls-26,.cls-5,.cls-8{font-family:Stencil, Stencil;}.cls-6{letter-spacing:0em;}.cls-7,.cls-8{letter-spacing:0em;}.cls-9{letter-spacing:0em;}.cls-10{font-size:39.13px;}.cls-11{letter-spacing:0em;}.cls-12{letter-spacing:0em;}.cls-13{letter-spacing:0em;}.cls-14{letter-spacing:0em;}.cls-15{letter-spacing:0em;}.cls-16{letter-spacing:0em;}.cls-17{letter-spacing:0em;}.cls-18{letter-spacing:0em;}.cls-19{letter-spacing:0em;}.cls-20,.cls-26{font-size:46.96px;}.cls-20,.cls-27{letter-spacing:0em;}.cls-21{letter-spacing:0em;}.cls-22{letter-spacing:0em;}.cls-23{letter-spacing:0em;}.cls-24{letter-spacing:0em;}.cls-25{letter-spacing:0em;}.cls-28{letter-spacing:0em;}.cls-29{letter-spacing:0em;}.cls-30{letter-spacing:0em;}.cls-31{letter-spacing:0em;}.cls-32{letter-spacing:0em;}.cls-33{letter-spacing:0em;}.cls-34{letter-spacing:0em;}.cls-35{letter-spacing:0.01em;}.cls-36{letter-spacing:0em;}</style><clipPath id="clip-path"><rect class="cls-1" x="15.07" y="20.35" width="761.85" height="571.3"/></clipPath></defs><title>アートボード 1</title><g class="cls-2"><rect class="cls-3" x="15.07" y="20.35" width="761.85" height="571.3"/><rect x="46.89" y="97.42" width="281.74" height="1.36"/><rect class="cls-4" x="46.89" y="97.42" width="281.74" height="1.36"/><rect x="46.89" y="289.67" width="477.39" height="1.36"/><rect class="cls-4" x="46.89" y="289.67" width="477.39" height="1.36"/><rect x="46.89" y="378.48" width="729.87" height="1.7"/><rect class="cls-4" x="46.89" y="378.48" width="729.87" height="1.7"/><rect x="46.89" y="198.48" width="579.47" height="1.02"/><rect class="cls-4" x="46.89" y="198.48" width="579.47" height="1.02"/><rect x="46.89" y="471.03" width="729.87" height="1.7"/><rect class="cls-4" x="46.89" y="471.03" width="729.87" height="1.7"/><rect x="46.89" y="563.58" width="729.87" height="1.7"/><rect class="cls-4" x="46.89" y="563.58" width="729.87" height="1.7"/><path d="M68.3,82.38q16.87-5.87,17.79-22.56H69.58v-4H86.46V46.07h4q1.83.37.18,1.47v8.25h17.61v4H91q3.85,15.23,18.71,21.64l-2.38,4.4Q94.53,80,89.21,66.06,86.09,81.1,70,86.79Z"/><path d="M129.56,77.25l-12.29,4.4q-.18,1.29-.92.55L114.89,78l5.69-1.65V61.47h-5.32V58h5.32V47.72h3.49q1.47.18.18,1.1V58H129v3.49h-4.77V75.41l5.32-1.83Zm20.18,5.32a2.3,2.3,0,0,0,2.38-1.83l1.1-3.85,4,1.28-.92,3.49q-1.1,4.4-5.32,4.4H135.8q-3.3,0-3.3-3.12V65.51l-4.77,1.83-1.1-3.67,5.87-2V51.2H136q1.47.18.18,1.1v8.07l4.4-1.65V46.25h3.49q1.47.18.18,1.1V57.44l6.24-2.38.37-.73,3.85,2.57-.73.55V71.38A2.59,2.59,0,0,1,151,74.31h-3.67l-.92-3.49h3.12a.65.65,0,0,0,.73-.73v-11l-6.05,2.2V77.07h-3.67V62.57l-4.4,1.65V81.1c0,1,.43,1.47,1.28,1.47Z"/><path d="M223.78,47.53q-1.1,2-2.75,4.59H235V55.6H192.78V52.12h12.47a19,19,0,0,0-2.57-4.4l3.3-1.83a23,23,0,0,1,4,6.24h6.79a45,45,0,0,0,3.3-7l4.22,1.47q.73.74-.55.92ZM208,83.48a.49.49,0,0,0,.55-.55v-6.6h-8.07v11h-3.67v-29h15.41v25.5q0,3.12-2.93,3.12h-3.67l-.92-3.49Zm.55-18V61.84h-8.07v3.67Zm0,3.49h-8.07v3.85h8.07Zm9-9.72h3.67V80.37h-3.67Zm9.35,24a.49.49,0,0,0,.55-.55V57.81h3.49q1.83.37.18,1.47v24.4q0,3.12-2.93,3.12h-4l-.73-3.49Z"/><path d="M279.18,54.5q1.83.37.18,1.47V85.32h-4.22V82.38H247.08v3.67h-4.22V54.5h4q1.83.37.18,1.47V78.35h11.74V46.8h4q1.83.37.18,1.47V78.35h12.11V54.5Z"/><text class="cls-5" transform="translate(49.03 188.78)">B<tspan class="cls-6" x="32.76" y="0">O</tspan><tspan x="74.22" y="0">RN</tspan></text><text class="cls-5" transform="translate(237.54 188.78)"><tspan class="cls-7">199</tspan><tspan x="93.14" y="0">7</tspan></text><text class="cls-5" transform="translate(404.95 188.78)"><tspan class="cls-6">0</tspan><tspan x="31.07" y="0">4</tspan></text><text class="cls-8" transform="translate(507.37 188.78)">3<tspan class="cls-9" x="31.01" y="0">0</tspan></text><text class="cls-10" transform="translate(49.03 359.71)">B<tspan class="cls-11" x="22.7" y="0">6P31</tspan><tspan x="109.52" y="0">0</tspan><tspan class="cls-11" x="131.08" y="0">8</tspan><tspan class="cls-12" x="152.61" y="0">7</tspan><tspan class="cls-13" x="174.17" y="0">@</tspan><tspan class="cls-14" x="205.55" y="0">S</tspan><tspan class="cls-15" x="226.05" y="0">H</tspan><tspan x="253.48" y="0">O</tspan><tspan class="cls-11" x="282.24" y="0">NAN.</tspan><tspan class="cls-16" x="371.62" y="0">B</tspan><tspan class="cls-15" x="394.31" y="0">U</tspan><tspan class="cls-11" x="421.54" y="0">N</tspan><tspan class="cls-17" x="449.17" y="0">K</tspan><tspan class="cls-18" x="471.71" y="0">Y</tspan><tspan x="494.4" y="0">O</tspan><tspan class="cls-11" x="523.17" y="0">.AC.</tspan><tspan class="cls-19" x="590.04" y="0">J</tspan><tspan x="605.53" y="0">P</tspan></text><text class="cls-20" transform="translate(49.03 268.39)">B<tspan class="cls-21" x="27.14" y="0">U</tspan><tspan class="cls-22" x="59.63" y="0">N</tspan><tspan class="cls-23" x="92.93" y="0">K</tspan><tspan class="cls-21" x="120.02" y="0">Y</tspan><tspan class="cls-24" x="147.02" y="0">O</tspan><tspan class="cls-25" x="181.67" y="0"> </tspan></text><text class="cls-26" transform="translate(247.75 268.39)"><tspan class="cls-27">U</tspan><tspan class="cls-22" x="32.54" y="0">NI</tspan><tspan class="cls-23" x="77.85" y="0">V</tspan><tspan x="105.65" y="0">E</tspan><tspan class="cls-21" x="130.3" y="0">R</tspan><tspan class="cls-28" x="157.21" y="0">CI</tspan><tspan class="cls-29" x="198.48" y="0">TY</tspan></text><text class="cls-26" transform="translate(49.03 455.1)"><tspan class="cls-27">B</tspan><tspan class="cls-24" x="27.14" y="0">LOO</tspan><tspan class="cls-30" x="120.35" y="0">D </tspan><tspan class="cls-31" x="164.44" y="0"> </tspan><tspan x="175.52" y="0">T</tspan><tspan class="cls-27" x="200.36" y="0">Y</tspan><tspan class="cls-32" x="227.41" y="0">P</tspan><tspan class="cls-29" x="254.22" y="0">E</tspan><tspan class="cls-30" x="278.87" y="0"> </tspan><tspan class="cls-31" x="289.67" y="0"> </tspan><tspan class="cls-25" x="300.75" y="0"> </tspan></text><text class="cls-26" transform="translate(367.52 455.1)">-</text><text class="cls-26" transform="translate(391 455.1)"><tspan class="cls-30">A</tspan><tspan x="30.66" y="0"> </tspan></text><text class="cls-26" transform="translate(431.83 455.1)">-</text><text class="cls-26" transform="translate(467.22 455.1)"><tspan class="cls-27">2</tspan><tspan class="cls-33" x="25.78" y="0">0</tspan><tspan class="cls-27" x="51.6" y="0">Y</tspan><tspan x="78.65" y="0">E</tspan><tspan class="cls-34" x="103.3" y="0">R</tspan><tspan class="cls-27" x="130.21" y="0">S</tspan><tspan class="cls-35" x="154.86" y="0"> </tspan><tspan class="cls-31" x="166.27" y="0">OL</tspan><tspan x="224.82" y="0">D</tspan></text><text class="cls-26" transform="translate(49.03 547.62)">TE<tspan class="cls-24" x="49.49" y="0">L</tspan><tspan class="cls-30" x="73.39" y="0"> </tspan><tspan class="cls-36" x="84.19" y="0">P</tspan><tspan class="cls-33" x="111" y="0">H</tspan><tspan class="cls-24" x="143.83" y="0">O</tspan><tspan class="cls-22" x="178.48" y="0">N</tspan><tspan x="211.77" y="0">E</tspan><tspan class="cls-30" x="236.42" y="0"> </tspan><tspan class="cls-31" x="247.22" y="0"> </tspan><tspan class="cls-30" x="258.3" y="0"> </tspan><tspan class="cls-33" x="269.1" y="0">0</tspan><tspan class="cls-23" x="294.93" y="0">9</tspan><tspan class="cls-29" x="320.75" y="0">0</tspan></text><text class="cls-26" transform="translate(411.41 547.62)">-</text><text class="cls-20" transform="translate(423.32 547.62)">62<tspan class="cls-29" x="51.56" y="0">46</tspan></text><text class="cls-26" transform="translate(530.85 547.62)">-</text><text class="cls-26" transform="translate(542.76 547.62)">4<tspan class="cls-27" x="25.87" y="0">28</tspan><tspan x="77.43" y="0">7</tspan></text></g></svg>