<svg id="レイヤー_1" data-name="レイヤー 1" xmlns="http://www.w3.org/2000/svg" xmlns:xlink="http://www.w3.org/1999/xlink" viewBox="0 0 566.93 566.93"><defs><style>.cls-1,.cls-5,.cls-7,.cls-8{fill:none;}.cls-2{clip-path:url(#clip-path);}.cls-3,.cls-6{fill:#fff;}.cls-3{opacity:0;}.cls-4{clip-path:url(#clip-path-2);}.cls-5{stroke:#fff;}.cls-5,.cls-7,.cls-8{stroke-miterlimit:8;}.cls-7{stroke:#41719c;}.cls-8{stroke:#787878;}</style><clipPath id="clip-path"><rect class="cls-1" x="-672.07" y="-452.04" width="712.92" height="613.35"/></clipPath><clipPath id="clip-path-2"><rect class="cls-1" x="9.74" y="122.79" width="547.44" height="404.92"/></clipPath></defs><title>アートボード 1</title><g class="cls-2"><rect class="cls-3" x="-672.07" y="-452.04" width="712.92" height="613.35"/></g><g class="cls-4"><rect class="cls-3" x="9.74" y="122.79" width="547.44" height="404.92"/><ellipse class="cls-5" cx="283.46" cy="325.26" rx="273.51" ry="202.25"/><ellipse class="cls-5" cx="283.25" cy="319.6" rx="207.91" ry="146.71"/><polygon class="cls-6" points="184.75 296.74 259.84 296.74 283.05 222.77 306.25 296.74 381.34 296.74 320.59 342.45 343.8 416.43 283.05 370.71 222.29 416.43 245.5 342.45 184.75 296.74"/><polygon class="cls-7" points="184.75 296.74 259.84 296.74 283.05 222.77 306.25 296.74 381.34 296.74 320.59 342.45 343.8 416.43 283.05 370.71 222.29 416.43 245.5 342.45 184.75 296.74"/><rect class="cls-6" x="109.72" y="340.97" width="77.55" height="18.44"/><rect class="cls-7" x="109.72" y="340.97" width="77.55" height="18.44"/><rect class="cls-6" x="384.7" y="342.65" width="74.61" height="16.77"/><rect class="cls-8" x="384.7" y="342.65" width="74.61" height="16.77"/></g></svg>