<svg id="レイヤー_1" data-name="レイヤー 1" xmlns="http://www.w3.org/2000/svg" xmlns:xlink="http://www.w3.org/1999/xlink" viewBox="0 0 481.89 396.85"><defs><style>.cls-1,.cls-5,.cls-6,.cls-8{fill:none;}.cls-2{clip-path:url(#clip-path);}.cls-3{fill:#fff;opacity:0;}.cls-4{fill:#afabab;}.cls-5,.cls-6{stroke:#0d0d0d;}.cls-5,.cls-6,.cls-8{stroke-miterlimit:8;}.cls-5{stroke-width:1px;}.cls-7{fill:#10270f;}.cls-8{stroke:#41719c;}</style><clipPath id="clip-path"><rect class="cls-1" x="45.17" y="-1.24" width="391.54" height="399.32"/></clipPath></defs><title>アートボード 1</title><g class="cls-2"><rect class="cls-3" x="45.17" y="-1.24" width="391.54" height="399.32"/><path class="cls-4" d="M90.18,282.17A26.43,26.43,0,0,1,105,247.83L360.82,145.94a26.43,26.43,0,0,1,34.34,14.78L434.28,259a26.43,26.43,0,0,1-14.78,34.34L163.64,395.18A26.43,26.43,0,0,1,129.3,380.4Z"/><rect class="cls-5" x="98.1" y="191.26" width="328.27" height="158.6" rx="26.43" ry="26.43" transform="translate(-81.49 116.21) rotate(-21.71)"/><path class="cls-4" d="M51.18,211.68a26.43,26.43,0,0,1,4.6-37.1L273,5.3a26.43,26.43,0,0,1,37.1,4.6l65,83.4a26.43,26.43,0,0,1-4.6,37.1L153.27,299.68a26.43,26.43,0,0,1-37.1-4.6Z"/><rect class="cls-6" x="49" y="73.19" width="328.27" height="158.6" rx="26.43" ry="26.43" transform="translate(-48.71 163.22) rotate(-37.93)"/><ellipse class="cls-7" cx="304" cy="80.11" rx="14.79" ry="13.23"/><ellipse class="cls-8" cx="304" cy="80.11" rx="14.79" ry="13.23"/><ellipse class="cls-7" cx="377.17" cy="223.33" rx="14.79" ry="13.23"/><ellipse class="cls-8" cx="377.17" cy="223.33" rx="14.79" ry="13.23"/></g></svg>