<svg id="レイヤー_1" data-name="レイヤー 1" xmlns="http://www.w3.org/2000/svg" xmlns:xlink="http://www.w3.org/1999/xlink" viewBox="0 0 566.93 566.93"><defs><style>.cls-1,.cls-5{fill:none;}.cls-2{clip-path:url(#clip-path);}.cls-3,.cls-6{fill:#fff;}.cls-3{opacity:0;}.cls-4{fill:#10270f;}.cls-5{stroke:#41719c;stroke-miterlimit:8;}</style><clipPath id="clip-path"><rect class="cls-1" x="-73" width="712.92" height="613.35"/></clipPath></defs><title>アートボード 1</title><g class="cls-2"><rect class="cls-3" x="-73" width="712.92" height="613.35"/><rect class="cls-4" x="23.59" y="1" width="521.75" height="563.57" rx="86.96" ry="86.96"/><rect class="cls-5" x="23.59" y="1" width="521.75" height="563.57" rx="86.96" ry="86.96"/><path class="cls-6" d="M139.16,214.92l16.33-5.58v25.29h28.08v12.95H155.49v62.73c0,13.74,4.18,21.31,14.74,21.31A32.32,32.32,0,0,0,181.38,330l1,12.75c-3.59,1.59-9.16,2.59-16.13,2.59-26.29,0-27.09-23.9-27.09-35.45V247.58H122.43V234.63h16.73Z"/><path class="cls-6" d="M297.48,288c0,40.43-26.69,57.56-50.78,57.56-27.88,0-49.39-20.91-49.39-56,0-37,23.1-57.55,50.78-57.55C277.77,232,297.48,254.75,297.48,288Zm-50-43c-23.5,0-33.26,23.1-33.26,44,0,24.1,13.34,43.61,32.86,43.61,19.72,0,33.46-19.52,33.46-44C280.55,269.29,271.19,245,247.5,245Z"/><path class="cls-6" d="M338.1,253c7.57-13.34,20.11-20.91,37-20.91,25.69,0,44.21,22.11,44.21,55.36,0,39.83-23.3,58.15-47.2,58.15-14.34,0-26.29-6.57-32.66-17.33h-.4v59.35H322.57V269.48c0-14.14-.4-25.09-.8-35.05h14.94l1,18.52Zm1,47c0,21.11,15.73,32.26,30.47,32.26,21.31,0,33.06-18.32,33.06-44.21,0-22.5-11.35-42.42-32.46-42.42-18.52,0-31.07,17.92-31.07,33.66Z"/></g></svg>