<svg id="レイヤー_1" data-name="レイヤー 1" xmlns="http://www.w3.org/2000/svg" xmlns:xlink="http://www.w3.org/1999/xlink" viewBox="0 0 425.2 425.2"><defs><style>.cls-1{fill:none;}.cls-2{clip-path:url(#clip-path);}.cls-3{fill:#fff;opacity:0;}.cls-4{fill:red;}</style><clipPath id="clip-path"><rect class="cls-1" x="-10.98" y="42.74" width="436.17" height="339.72"/></clipPath></defs><title>アートボード 1</title><g class="cls-2"><rect class="cls-3" x="-10.98" y="42.74" width="436.17" height="339.72"/><path class="cls-4" d="M275.44,195.45l1.42-3.08a6.79,6.79,0,0,0,2,.2,2.94,2.94,0,0,0,1.33-.57,7,7,0,0,0,2-2.74l4.26-9.21a8.2,8.2,0,0,0,.73-2.11,3,3,0,0,0-.25-1.58,4.33,4.33,0,0,0-1.78-2l1.44-3.11q5.93,2.74,8.23,5.17a11.91,11.91,0,0,1,2.14,14,13.72,13.72,0,0,1-5.31,6.35,12.53,12.53,0,0,1-7.37,1.58A28.08,28.08,0,0,1,275.44,195.45Zm8.76-25.36L268.56,203.9a2.66,2.66,0,0,0-.31,1.81,1.18,1.18,0,0,0,.27.56q.17.17,1.16,1a1.69,1.69,0,0,1,.65,2.22,1.52,1.52,0,0,1-1.31.86,3.91,3.91,0,0,1-2-.49l-1-.45-12.83-5.94-.75-.35a3.07,3.07,0,0,1-1.42-1.13,1.4,1.4,0,0,1,0-1.37,1.66,1.66,0,0,1,1.87-1q1.1.12,1.29.12a1,1,0,0,0,.48-.18,2.72,2.72,0,0,0,1-1.31L269,169.42a2.72,2.72,0,0,0,.33-1.63,1,1,0,0,0-.18-.48q-.13-.15-.93-.9a1.66,1.66,0,0,1-.43-2.09,1.4,1.4,0,0,1,1.07-.85,3.07,3.07,0,0,1,1.78.35l.75.35Zm-36.87-14.23,1.44-3.11a16.91,16.91,0,0,1,8.37,9.39q3.22,8.44-1.49,18.63-4.62,10-12.81,13a18.1,18.1,0,0,1-13-.16l1.46-3.17a4,4,0,0,0,1.37.09,3,3,0,0,0,1.13-.44,7.23,7.23,0,0,0,2.43-3.21l11.9-25.72a5.3,5.3,0,0,0,.6-2.66,3.28,3.28,0,0,0-.38-1.33A6.06,6.06,0,0,0,247.33,155.86ZM245,154.77a4.42,4.42,0,0,0-2.72.45,5.15,5.15,0,0,0-1.82,2.34l-11.9,25.72a7.45,7.45,0,0,0-1,3.89,3.49,3.49,0,0,0,1.41,2.16l-1.46,3.17a18.28,18.28,0,0,1-8.48-9.76q-3-8.18,1.59-18.16a28.81,28.81,0,0,1,5.67-8.36,19.92,19.92,0,0,1,7.56-4.83,17.76,17.76,0,0,1,6.29-1.07,17.44,17.44,0,0,1,6.25,1.36Zm-50.25-26.08,7.57,3.5-1.61,3.48a6.41,6.41,0,0,0-3,1,13.45,13.45,0,0,0-3.81,3.86l-1.1,1.62a2.6,2.6,0,0,1-1.22,1,1.78,1.78,0,0,1-1.41-.08,1.74,1.74,0,0,1-1-1.08,2.12,2.12,0,0,1,.15-1.57Zm32.63,15.1-5.45,11.77a2.12,2.12,0,0,1-1.1,1.13,1.75,1.75,0,0,1-1.46,0,1.78,1.78,0,0,1-1-1,2.6,2.6,0,0,1,0-1.6l.52-1.89a13.45,13.45,0,0,0,.47-5.4,6.77,6.77,0,0,0-1.18-3l1.61-3.48Zm-10-4.61L201.75,173a2.66,2.66,0,0,0-.31,1.81,1.18,1.18,0,0,0,.27.56q.17.17,1.16,1a1.69,1.69,0,0,1,.65,2.22,1.52,1.52,0,0,1-1.31.86,4,4,0,0,1-2-.51l-.95-.44-12.83-5.94-.95-.44a4.16,4.16,0,0,1-1.73-1.27,1.4,1.4,0,0,1-.11-1.46,1.69,1.69,0,0,1,2.11-.94q1.26.23,1.49.25a1,1,0,0,0,.57-.17,2.66,2.66,0,0,0,1.18-1.41l15.64-33.81Z"/><path class="cls-4" d="M288.26,256l7.57,3.5-1.61,3.48a6.41,6.41,0,0,0-3,1,13.45,13.45,0,0,0-3.81,3.86l-1.1,1.62a2.6,2.6,0,0,1-1.22,1,1.78,1.78,0,0,1-1.41-.08,1.75,1.75,0,0,1-1-1.08,2.12,2.12,0,0,1,.15-1.57Zm32.63,15.1-5.45,11.77a2.12,2.12,0,0,1-1.1,1.13,1.74,1.74,0,0,1-1.46,0,1.78,1.78,0,0,1-1-1,2.6,2.6,0,0,1,0-1.6l.52-1.89a13.45,13.45,0,0,0,.47-5.4,6.77,6.77,0,0,0-1.18-3l1.61-3.48Zm-10-4.61-15.64,33.81a2.66,2.66,0,0,0-.31,1.81,1.18,1.18,0,0,0,.27.56q.17.17,1.16,1a1.69,1.69,0,0,1,.65,2.22,1.52,1.52,0,0,1-1.31.86,4,4,0,0,1-2-.51l-.95-.44L280,299.8l-.95-.44a4.16,4.16,0,0,1-1.73-1.27,1.4,1.4,0,0,1-.11-1.46,1.69,1.69,0,0,1,2.11-.94q1.26.23,1.49.25a1,1,0,0,0,.57-.17,2.66,2.66,0,0,0,1.18-1.41l15.64-33.81Zm-56,21.79,1.44-3.11a14.52,14.52,0,0,0,3.47.63,10.46,10.46,0,0,0,3.19-.44,11.4,11.4,0,0,0,3-1.29,16.08,16.08,0,0,0,2.79-2.36,3.59,3.59,0,0,1,1.24-.95,1.45,1.45,0,0,1,1.1.11,1.38,1.38,0,0,1,.9,1,3.47,3.47,0,0,1-.45,1.8l-4.7,10.16Zm8.31-18.41,1.54-3.34a8.22,8.22,0,0,0,3.29-.61,6.59,6.59,0,0,0,2.35-2,3.73,3.73,0,0,1,1.3-1.23,1.49,1.49,0,0,1,1.26.08,1.41,1.41,0,0,1,.93,1.31,4.84,4.84,0,0,1-.58,1.79l-5.07,11a4.46,4.46,0,0,1-1.17,1.73,1.29,1.29,0,0,1-1.35,0,1.48,1.48,0,0,1-.85-.88,3.39,3.39,0,0,1,0-1.63,8.16,8.16,0,0,0,0-3.7A4.75,4.75,0,0,0,263.28,269.84ZM273.12,249l11.6,5.37L280,264.51a2.17,2.17,0,0,1-.94,1.14,1.9,1.9,0,0,1-2.08-.79,2.8,2.8,0,0,1-.05-1.32,11.87,11.87,0,0,0-.85-6.58,11,11,0,0,0-4.51-4.64Zm-2.56-1.18L252.38,287l-12.8-5.92-.75-.35a3.07,3.07,0,0,1-1.42-1.13,1.4,1.4,0,0,1,0-1.37,1.66,1.66,0,0,1,1.87-1q1.1.12,1.29.12a1,1,0,0,0,.48-.18,2.72,2.72,0,0,0,1-1.31l13.33-28.8a2.72,2.72,0,0,0,.33-1.63,1,1,0,0,0-.18-.48q-.12-.15-.93-.9a1.66,1.66,0,0,1-.43-2.09,1.4,1.4,0,0,1,1.07-.85,3.07,3.07,0,0,1,1.78.35l.75.35Zm-41.43,5.15a27.16,27.16,0,0,1,3.66,2.78,10.75,10.75,0,0,1,2,2.52,6.85,6.85,0,0,1,.87,3,6.14,6.14,0,0,1-.56,2.92l-2.76,6q-.43.92.18,1.2a.65.65,0,0,0,.45.05,3.68,3.68,0,0,0,.68-.3,2.14,2.14,0,0,1,1.92-.3,1.52,1.52,0,0,1,.74,1,1.68,1.68,0,0,1,0,1.26,4.61,4.61,0,0,1-1.85,1.78,10.94,10.94,0,0,1-3.17,1.31,8.3,8.3,0,0,1-3.19.18,12.45,12.45,0,0,1-3.44-1.09,8.73,8.73,0,0,1-4.92-4.92,9.13,9.13,0,0,1,.67-7l2.24-4.83q.75-1.61.84-1.88a4.3,4.3,0,0,0,.11-2.36,3.8,3.8,0,0,0-1.84-2.28l1.42-3.08a4.84,4.84,0,0,0,2.59.22,3,3,0,0,0,1.34-.81,7.38,7.38,0,0,0,1.12-1.86l3.53-7.63a4.76,4.76,0,0,0,.55-3,5.34,5.34,0,0,0-1.89-2.59l1.48-3.19.75.35q3.19,1.48,5.33,2.75a13.23,13.23,0,0,1,4.94,4.94,9.69,9.69,0,0,1,.24,9.37,10,10,0,0,1-5.61,5.48,9.69,9.69,0,0,1-3.31.63A33.69,33.69,0,0,1,229.13,252.92Zm.43-24.11-15.64,33.81a2.66,2.66,0,0,0-.31,1.81,1.18,1.18,0,0,0,.27.56q.17.17,1.16,1a1.69,1.69,0,0,1,.65,2.22,1.52,1.52,0,0,1-1.31.86,3.91,3.91,0,0,1-2-.49l-1-.45-12.83-5.94-.75-.35a3.07,3.07,0,0,1-1.42-1.13,1.4,1.4,0,0,1,0-1.37,1.66,1.66,0,0,1,1.87-1q1.1.12,1.29.12a1,1,0,0,0,.48-.18,2.72,2.72,0,0,0,1-1.31l13.33-28.8a2.72,2.72,0,0,0,.33-1.63,1,1,0,0,0-.18-.48q-.12-.15-.93-.9a1.66,1.66,0,0,1-.43-2.09,1.4,1.4,0,0,1,1.07-.85,3.07,3.07,0,0,1,1.78.35l.75.35ZM178.92,254l1.62-3.51a11.71,11.71,0,0,0,5.5.49,9.67,9.67,0,0,0,3.39-1.14,11.19,11.19,0,0,0,3-2.35,3.56,3.56,0,0,1,1.28-1,1.52,1.52,0,0,1,1.2.08,1.63,1.63,0,0,1,.91,1.05,2.07,2.07,0,0,1-.14,1.51,7.62,7.62,0,0,1-2.44,2.68A16.05,16.05,0,0,1,189.1,254a15.05,15.05,0,0,1-5.2,1A13.21,13.21,0,0,1,178.92,254Zm17.18-37.36,1.61-3.48a21.38,21.38,0,0,1,2.06,1.55q.76.67,2.67,2.56a8.42,8.42,0,0,0,1.72,1.42,1.52,1.52,0,0,0,1.61-.16l.69-.52a1.45,1.45,0,0,1,1.61-.09,1.69,1.69,0,0,1,1,1,2.15,2.15,0,0,1-.21,1.55l-5.54,12a2.52,2.52,0,0,1-1.29,1.43,1.79,1.79,0,0,1-1.42,0,1.59,1.59,0,0,1-.9-1,3.71,3.71,0,0,1,0-1.77,27.41,27.41,0,0,0,.47-4.11,18,18,0,0,0-.77-5.74,10.33,10.33,0,0,0-1.31-2.75A7,7,0,0,0,196.1,216.63Zm-.65-4.56-1.61,3.48a3.89,3.89,0,0,0-3.22.32,7,7,0,0,0-2.47,3.15l-11,23.77-.57,1.24a4.41,4.41,0,0,0-.37,1.52,4.69,4.69,0,0,0,.13,1.58,3.12,3.12,0,0,0,.6,1.27,4.8,4.8,0,0,0,1.26,1l-1.62,3.51a18,18,0,0,1-8.35-7.39,17.41,17.41,0,0,1-2.28-9.42A28.76,28.76,0,0,1,168.83,225a29.29,29.29,0,0,1,4.94-7.55,21.34,21.34,0,0,1,6.48-4.91,19.79,19.79,0,0,1,7.59-1.94,14.54,14.54,0,0,1,7,1.16Zm-41.9,5.87a27.16,27.16,0,0,1,3.66,2.78,10.75,10.75,0,0,1,2,2.52,6.85,6.85,0,0,1,.87,3,6.14,6.14,0,0,1-.56,2.92l-2.76,6q-.43.92.18,1.2a.65.65,0,0,0,.45.05,3.68,3.68,0,0,0,.68-.3,2.14,2.14,0,0,1,1.92-.3,1.52,1.52,0,0,1,.74,1,1.68,1.68,0,0,1,0,1.26,4.61,4.61,0,0,1-1.85,1.78,10.94,10.94,0,0,1-3.17,1.31,8.3,8.3,0,0,1-3.19.18,12.45,12.45,0,0,1-3.44-1.09,8.73,8.73,0,0,1-4.92-4.92,9.13,9.13,0,0,1,.67-7l2.24-4.83q.75-1.61.84-1.88a4.3,4.3,0,0,0,.11-2.36,3.8,3.8,0,0,0-1.84-2.28l1.42-3.08a4.84,4.84,0,0,0,2.59.22,3,3,0,0,0,1.34-.81,7.38,7.38,0,0,0,1.12-1.86l3.53-7.63a4.76,4.76,0,0,0,.55-3,5.34,5.34,0,0,0-1.89-2.59l1.48-3.19.75.35q3.19,1.48,5.33,2.75a13.23,13.23,0,0,1,4.94,4.94,9.69,9.69,0,0,1,.24,9.37,10,10,0,0,1-5.61,5.48,9.69,9.69,0,0,1-3.31.63A33.69,33.69,0,0,1,153.55,217.94Zm.43-24.11-15.64,33.81a2.66,2.66,0,0,0-.31,1.81,1.18,1.18,0,0,0,.27.56q.17.17,1.16,1a1.69,1.69,0,0,1,.65,2.22,1.52,1.52,0,0,1-1.31.86,3.91,3.91,0,0,1-2-.49l-1-.45L123,227.18l-.75-.35a3.07,3.07,0,0,1-1.42-1.13,1.4,1.4,0,0,1,0-1.37,1.66,1.66,0,0,1,1.87-1q1.1.12,1.29.12a1,1,0,0,0,.48-.18,2.72,2.72,0,0,0,1-1.31l13.33-28.8a2.72,2.72,0,0,0,.33-1.63,1,1,0,0,0-.18-.48q-.13-.15-.93-.9a1.66,1.66,0,0,1-.43-2.09,1.4,1.4,0,0,1,1.07-.85,3.07,3.07,0,0,1,1.78.35l.75.35ZM103.81,218.3l1.44-3.11a14.52,14.52,0,0,0,3.47.63,10.46,10.46,0,0,0,3.19-.44,11.4,11.4,0,0,0,3-1.29,16.09,16.09,0,0,0,2.79-2.36,3.59,3.59,0,0,1,1.24-.95,1.45,1.45,0,0,1,1.1.11,1.38,1.38,0,0,1,.9,1,3.47,3.47,0,0,1-.45,1.8l-4.7,10.16Zm8.31-18.41,1.54-3.34a8.22,8.22,0,0,0,3.29-.61,6.59,6.59,0,0,0,2.35-2,3.73,3.73,0,0,1,1.3-1.23,1.49,1.49,0,0,1,1.26.08,1.41,1.41,0,0,1,.93,1.31,4.84,4.84,0,0,1-.58,1.79l-5.07,11a4.46,4.46,0,0,1-1.17,1.73,1.29,1.29,0,0,1-1.35,0,1.48,1.48,0,0,1-.85-.88,3.39,3.39,0,0,1,0-1.63,8.16,8.16,0,0,0,0-3.7A4.75,4.75,0,0,0,112.12,199.89ZM122,179l11.6,5.37-4.71,10.19a2.17,2.17,0,0,1-.94,1.14,1.9,1.9,0,0,1-2.08-.79,2.8,2.8,0,0,1-.05-1.32,11.87,11.87,0,0,0-.85-6.58,11,11,0,0,0-4.51-4.64Zm-2.56-1.18L101.22,217.1l-12.8-5.92-.75-.35a3.07,3.07,0,0,1-1.42-1.13,1.4,1.4,0,0,1,0-1.37,1.66,1.66,0,0,1,1.87-1q1.1.12,1.29.12a1,1,0,0,0,.48-.18,2.72,2.72,0,0,0,1-1.31l13.33-28.8a2.72,2.72,0,0,0,.33-1.63,1,1,0,0,0-.18-.48q-.12-.15-.93-.9A1.66,1.66,0,0,1,103,172a1.4,1.4,0,0,1,1.07-.85,3.07,3.07,0,0,1,1.78.35l.75.35ZM65.55,197.56,64,200.84a13.54,13.54,0,0,1-4.58-3.76q-.84-1-1.17-1.31a2.54,2.54,0,0,0-.71-.5,1.76,1.76,0,0,0-.95-.21,6.06,6.06,0,0,0-1.35.51,1.61,1.61,0,0,1-1.42.11q-1.61-.75-.47-3.22L58.23,182a2.3,2.3,0,0,1,1.09-1.15,1.67,1.67,0,0,1,1.42-.06,1.33,1.33,0,0,1,.83.82,3.65,3.65,0,0,1,0,1.65,20.87,20.87,0,0,0-.23,5.52,16.4,16.4,0,0,0,1.23,5A8.76,8.76,0,0,0,65.55,197.56Zm19.61-32.5,1.46-3.17a17.88,17.88,0,0,1,2.79,1.83,32.24,32.24,0,0,1,3,3,3,3,0,0,0,.84.67,1,1,0,0,0,1,0l1-.54a1.49,1.49,0,0,1,1.42-.11,1.38,1.38,0,0,1,.88,1.09,3.71,3.71,0,0,1-.46,1.94l-4.39,9.5a2.18,2.18,0,0,1-1.11,1.15,1.72,1.72,0,0,1-1.47,0,1.89,1.89,0,0,1-.89-.87,1.93,1.93,0,0,1-.16-.75,5.36,5.36,0,0,1,.21-1.25,13.3,13.3,0,0,0,.25-3.41,14.74,14.74,0,0,0-.57-3.51A10.85,10.85,0,0,0,85.17,165.06Zm-.74-4.36L82.89,164a6.16,6.16,0,0,0-3.42.25,4,4,0,0,0-2.1,2.08,4.62,4.62,0,0,0-.39,2.88,8.44,8.44,0,0,0,1.58,3.23q.9,1.22,4.3,5.06a33,33,0,0,1,3.08,3.89,15.39,15.39,0,0,1,1.65,3.5A13.1,13.1,0,0,1,87.05,195a14.4,14.4,0,0,1-12.28,8.43,18.87,18.87,0,0,1-4.46-.3,17,17,0,0,1-4.09-1.25l1.52-3.28a8.57,8.57,0,0,0,4.39,0,4.29,4.29,0,0,0,2.46-2.41,4.8,4.8,0,0,0-.16-4.19,22.61,22.61,0,0,0-3.28-4.38q-2.82-3.19-3.82-4.46a19.42,19.42,0,0,1-1.8-2.72,13.24,13.24,0,0,1-.66-12.78A15,15,0,0,1,69,162.19a12.7,12.7,0,0,1,5.84-2.73A17.25,17.25,0,0,1,84.42,160.7Z"/><path class="cls-4" d="M89.82,52.07,21.24,210l326.08,141.6L415.9,193.67Zm-3.64-9.24L425.14,190,351,360.83,12,213.64Z"/></g></svg>