<svg id="レイヤー_1" data-name="レイヤー 1" xmlns="http://www.w3.org/2000/svg" xmlns:xlink="http://www.w3.org/1999/xlink" viewBox="0 0 481.89 396.85"><defs><style>.cls-1{fill:none;}.cls-2{clip-path:url(#clip-path);}.cls-3,.cls-4,.cls-5,.cls-6,.cls-7{fill:#fff;}.cls-3{opacity:0;}.cls-4{font-size:22.3px;letter-spacing:0em;}.cls-4,.cls-5,.cls-7{font-family:Calibri, Calibri;}.cls-5,.cls-7{font-size:20.28px;}.cls-5{letter-spacing:0em;}.cls-7{letter-spacing:0.01em;}</style><clipPath id="clip-path"><rect class="cls-1" x="23.11" y="23.5" width="435.66" height="335.3"/></clipPath></defs><title>アートボード 1</title><g class="cls-2"><rect class="cls-3" x="23.11" y="23.5" width="435.66" height="335.3"/><rect x="34.77" y="55.94" width="317.3" height="2.53"/><rect x="35.28" y="165.43" width="423.5" height="3.29"/><rect x="35.28" y="227.77" width="317.05" height="2.53"/><rect x="35.03" y="113.73" width="207.06" height="3.8"/><rect x="34.77" y="292.65" width="317.3" height="2.53"/><rect x="34.77" y="356.27" width="317.3" height="2.53"/><text class="cls-4" transform="translate(36.63 51.11)">MM1911A1COLT</text><text class="cls-5" transform="translate(36.63 100.78)">USA</text><path class="cls-6" d="M72.4,86.13H88.32v1.5H81.75v4.91h5.15v1.5H81.75v5.62h7.13v1.5h-17v-1.5h2.93V90.8h1.74q.63.08.08.48v8.4h3.33v-12H72.4Z"/><path class="cls-6" d="M105.35,97.85q1,1.9,1.82,1.9.32,0,.4-.48l.16-1.35,1.74.79-.32,1.9q-.24,1.35-1.43,1.35-2.38,0-4-3.25Q102.1,95.63,102,90H92.28V88.27h9.66V84.63h1.74q.79.16.08.63v3h5.54V90h-5.54q.32,5.54,1.58,7.84Zm-3.09,1.43q-4.44,1-8.95,1.74-.16.71-.55.16l-.4-2q2-.16,3.88-.48V94.21H93.07V92.7h7.84v1.5H97.82v4.28q1.82-.24,4.2-.71ZM105.9,85a9.32,9.32,0,0,1,2.14,1.5l-1.43,1.19a9.51,9.51,0,0,0-2.06-1.5Z"/><path class="cls-6" d="M115.88,84.55q.63.08.08.48v3.48h1.9V90H116v3.17l1.74-.71.48,1.35-2.22,1v6.73a.91.91,0,0,1-1,1h-1.66l-.16-1.5h1a.28.28,0,0,0,.32-.32V95.4L113,96q-.24.63-.48,0l-.55-1.5,2.38-.71V90h-2.22v-1.5h2.22v-4Zm8.79,18.06h-1.58V97.69a12.34,12.34,0,0,1-5.15,4l-.71-1.66a12.83,12.83,0,0,0,5.86-4.75h-4.51v-1.5h4.51v-1.9h1.5q.63.08.08.48v1.43h5v1.5h-4.91a12.23,12.23,0,0,0,5.39,4.2l-.55,1.82q-3.8-1.9-4.91-3.72Zm4.28-16.39q.16.48-.63.08a87.19,87.19,0,0,1-9.9,1l-.32-1.5a89,89,0,0,0,10-1.11l.87,1.58Zm-8.4,1.9a14,14,0,0,1,1.5,3.25L120.4,92A12.33,12.33,0,0,0,119,88.74Zm3.09,3.25A17.51,17.51,0,0,0,122.38,88l1.58-.48a9.06,9.06,0,0,1,1.35,3.33Zm5.7-3.41q.32.4-.32.48-1,2.38-1.58,3.64L126,91.36a40,40,0,0,0,1.58-4.2l1.74.79Z"/><path class="cls-6" d="M147.56,95.87h-5.15v6h-1.58v-6h-4.75a9.82,9.82,0,0,1-2.46,6.57l-1.27-1.27a8,8,0,0,0,2.14-5.54V85.5h14.65v15.13a1.12,1.12,0,0,1-1.27,1.27h-2.22l-.4-1.74h2a.28.28,0,0,0,.32-.32ZM136.08,87v2.93h4.75V87Zm0,4.44v2.93h4.75V91.44ZM142.41,87v2.93h5.15V87Zm0,4.44v2.93h5.15V91.44Z"/><path class="cls-6" d="M170.13,95.87a12.06,12.06,0,0,1-5.94-3.64h-5q-.79.79-1.27,1.19a26,26,0,0,0,6.18-.71L165,94q.16.4-.55.16l-1.74.32v1.35h4.44v1.27h-4.44v1.19h6.65v1.27h-6.65v1.9a1.12,1.12,0,0,1-1.27,1.27H159.6l-.32-1.74h1.5a.28.28,0,0,0,.32-.32V99.52h-7V98.25h7V97.06H156V95.79h5.15V94.53l-3.25.16-.24-1a16.18,16.18,0,0,1-4.44,2.53l-.71-1.43a11.92,11.92,0,0,0,4.67-2.61h-4.28v-1.5h5.39a6,6,0,0,0,.79-1.27h-4.59V88h5.23a32.42,32.42,0,0,0,.79-3.56l1.58.24q.55.16-.08.4a18.24,18.24,0,0,1-.71,2.93h7.29v1.5h-4.44a3.62,3.62,0,0,0,.87,1.27h5.23v1.5h-4a10.18,10.18,0,0,0,4.44,2.06Zm-13-10.93A5.57,5.57,0,0,1,158.49,87l-1.82.79a6.64,6.64,0,0,0-1.11-2Zm3.56,4.51a5.1,5.1,0,0,1-.71,1.27h3.25l-.71-1.27Zm6.1-3.8a12,12,0,0,1-1.11,2.14l-1.58-.63a22.4,22.4,0,0,0,1.19-2.61l1.74.71q.32.32-.24.4Z"/><path class="cls-6" d="M177.26,86.37A10.1,10.1,0,0,1,175.6,89h4.12v1.5h-2.06v1.9h2.77v1.5h-2.77v5.62l3.48-1v1.27q-4.28,1.43-7,2.14-.08.63-.4.32l-.48-1.82,2.85-.63V93.89H173.3v-1.5h2.77v-1.9h-1.58q-.48.48-1.11,1l-1-1.27a14.26,14.26,0,0,0,4.12-5.86l1.35.24c.32.11.29.24-.08.4l-.08.24A10,10,0,0,1,181.06,88l-.71,1.43a10.77,10.77,0,0,0-3.09-3.09Zm-2.46,8.4a9.26,9.26,0,0,1,.71,3.56l-1.35.4a11.34,11.34,0,0,0-.63-3.64Zm5.46-.16q.4.24-.08.4a25,25,0,0,1-.71,3.41l-1.27-.24a20.33,20.33,0,0,0,.63-3.8Zm4.2,2.69q0,3.88-4.51,5.23l-.48-1.66q3.4-.63,3.41-3.56V94.21h1.5q.63.08.08.48ZM188,89.38A13.29,13.29,0,0,1,190.88,93l-1.43.71a2.78,2.78,0,0,0-.55-.87q-4.2.48-7,.71-.24.71-.48,0l-.4-1.74h1.74A20,20,0,0,0,184,88.9h-2.53V87.4h3.33V84.23h1.5q.63.08.08.48V87.4h4v1.5h-4.75a21.28,21.28,0,0,1-1.43,2.93l4-.16A8.14,8.14,0,0,0,186.92,90Zm1,11.25q.63,0,.71-2.14l1.58.55q-.24,3.09-2,3.09h-1.66q-1.35,0-1.35-1.43V94.21h1.5q.63.08.08.48v5.39c0,.37.13.55.4.55Z"/><text class="cls-7" transform="translate(36.63 149.44)">1911</text><path class="cls-6" d="M84.53,137.09a15,15,0,0,1-3.72,4.36L79.7,140a12,12,0,0,0,4.44-6.89l1.82.48q.32.32-.24.4l-.63,1.58H96.26v1.5H90.47v2.69h4.75v1.5H90.47v3.56h6.65v1.5H90.47v4.75H88.89v-4.75H79.78v-1.5h3.56v-5.07h5.54v-2.69Zm.4,7.76h4v-3.56h-4Z"/><path class="cls-6" d="M100.69,150q-.24-4.12-.24-7a49.45,49.45,0,0,1,.87-8.47l1.58.4q.87.16.08.71a45.58,45.58,0,0,0-.79,7.37q0,3.09.32,6.89Zm11.33-1.5a8.52,8.52,0,0,1-6.18-2.38l1-1.35a6.87,6.87,0,0,0,5.15,2h4.36v1.74Zm3.33-10.22a74.88,74.88,0,0,0-8.87.48v-1.66a78.16,78.16,0,0,1,8.87-.48Z"/><path class="cls-6" d="M122.47,133.21q.63.08.08.48v3.48h1.9v1.5h-1.9v3.17l1.74-.71.48,1.35-2.22,1v6.73a.91.91,0,0,1-1,1h-1.66l-.16-1.5h1a.28.28,0,0,0,.32-.32v-5.39l-1.35.55q-.24.63-.48,0l-.55-1.5,2.38-.71v-3.72h-2.22v-1.5H121v-4Zm8.79,18.06h-1.58v-4.91a12.34,12.34,0,0,1-5.15,4l-.71-1.66a12.83,12.83,0,0,0,5.86-4.75h-4.51v-1.5h4.51v-1.9h1.5q.63.08.08.48v1.43h5V144h-4.91a12.23,12.23,0,0,0,5.39,4.2l-.55,1.82q-3.8-1.9-4.91-3.72Zm4.28-16.39q.16.48-.63.08a87.19,87.19,0,0,1-9.9,1l-.32-1.5a89,89,0,0,0,10-1.11l.87,1.58Zm-8.4,1.9a14,14,0,0,1,1.5,3.25l-1.66.63a12.33,12.33,0,0,0-1.43-3.25Zm3.09,3.25a17.51,17.51,0,0,0-1.27-3.41l1.58-.48a9.06,9.06,0,0,1,1.35,3.33Zm5.7-3.41q.32.4-.32.48-1,2.38-1.58,3.64l-1.43-.71a40,40,0,0,0,1.58-4.2l1.74.79Z"/><path class="cls-6" d="M154.15,144.53H149v6h-1.58v-6h-4.75a9.82,9.82,0,0,1-2.46,6.57l-1.27-1.27a8,8,0,0,0,2.14-5.54V134.16h14.65v15.13a1.12,1.12,0,0,1-1.27,1.27h-2.22l-.4-1.74h2a.28.28,0,0,0,.32-.32Zm-11.48-8.87v2.93h4.75v-2.93Zm0,4.44V143h4.75V140.1Zm6.34-4.44v2.93h5.15v-2.93Zm0,4.44V143h5.15V140.1Z"/><path class="cls-6" d="M166,138.91q-3.25.24-6.42.24l-.48-1.58q3.88,0,6.26-.16a24,24,0,0,1-1.11-4.12H166q.71.16.16.63a27.1,27.1,0,0,0,1,3.33,32.62,32.62,0,0,0,4.75-.71l.4,1.74q-2.3.32-4.51.48A14.58,14.58,0,0,0,172.6,144l-1.19,1.43a13.78,13.78,0,0,0-5.78-1.35,5.09,5.09,0,0,0-3.64,1,1.82,1.82,0,0,0-.48,1.35,2.12,2.12,0,0,0,.71,1.5q1.11,1.11,5.23,1.11h2.77l-.4,1.74h-3q-4.12,0-5.78-1.66a3.71,3.71,0,0,1-1.19-2.69,3.21,3.21,0,0,1,.87-2.38,6,6,0,0,1,4.44-1.43,9.92,9.92,0,0,1,3.48.32,18.73,18.73,0,0,1-2.61-4Z"/><path class="cls-6" d="M186.72,140.41q.08-1.5-.87-1.5-1.35,0-5.23,3.88v7.92H179v-6.49l-3.48,4.36-1.27-1.27,3.17-3.72a22.24,22.24,0,0,0,1.58-2.3v-1.9l-3.48,1.19-.48-1.66,4-1v-4.67h1.43q.71.16.16.63v3.56l.87.48q.71.32-.16.71l-.71,1.5v.55q3.72-3.48,5.62-3.48,2.38,0,2.14,3.17l-.4,6.1q-.08,1.27,1,1.27a1.88,1.88,0,0,0,1.5-.55,7.79,7.79,0,0,0,1.19-2.06L193,146.2a9.36,9.36,0,0,1-1.5,2.22,3.26,3.26,0,0,1-2.38,1q-2.93,0-2.77-3l.4-6Z"/><path class="cls-6" d="M200.18,139.15a51.54,51.54,0,0,1-2.93,11.17l-1.74-.55a44.07,44.07,0,0,0,3-10.45q-1.9.16-3.41.16l-.32-1.58q2.22,0,4-.16.32-2.45.55-4.28l1.58.32q.87.24.16.63-.24,1-.63,3.17a26.54,26.54,0,0,0,3.33-.63l.32,1.58q-2.06.4-3.88.63Zm10.93,9.27v1.74h-3.48a12,12,0,0,1-5.7-1.43l.71-1.43a10.39,10.39,0,0,0,5,1.11Zm-.4-6.57a20.82,20.82,0,0,0-7.21,1.27l-.48-1.58a19.86,19.86,0,0,1,7.37-1.35Z"/><path class="cls-6" d="M218.54,149a4.77,4.77,0,0,1-3.41-1,3.42,3.42,0,0,1-1-2.53,8.15,8.15,0,0,1,.32-2.06l1.82.24a7.06,7.06,0,0,0-.4,1.82,1.61,1.61,0,0,0,.48,1.19,3.21,3.21,0,0,0,2.22.55h8.63V149Zm-3.17-13.38h10.3v1.74h-10.3Z"/><path class="cls-6" d="M234,133.6h1.66q.87.16.16.63l.16,3.8a7.3,7.3,0,0,0,.55,2.69,48.28,48.28,0,0,1,5.94-2l.79,2.06q-7.53,1.35-10.06,3.88a2.57,2.57,0,0,0-.87,1.82,1.74,1.74,0,0,0,.55,1.27,3.36,3.36,0,0,0,2.3.55h7.6v1.74h-7.68a5.09,5.09,0,0,1-3.64-1,3.26,3.26,0,0,1-1-2.38,4.11,4.11,0,0,1,1.27-3,15.67,15.67,0,0,1,3.17-2.22,8.2,8.2,0,0,1-.55-2.61Z"/><path class="cls-6" d="M245.55,149.44a37.42,37.42,0,0,0,4-9.27q-1.74.24-3.41.4l-.16-1.74q1.43,0,4-.24.71-2.45,1.19-5l1.66.55q1,.4-.08.71-.48,1.66-1,3.56a12.07,12.07,0,0,1,2-.16,2.26,2.26,0,0,1,1.66.55q1,1,1,4.28,0,4.59-1.35,5.94a2.51,2.51,0,0,1-1.82.79,4.14,4.14,0,0,1-3-1.74l1-1.43q1.27,1.27,1.9,1.27a1,1,0,0,0,.71-.32q.87-.87.87-4.83,0-2.22-.48-2.69a1.38,1.38,0,0,0-1-.24,17.1,17.1,0,0,0-2,.16,48.7,48.7,0,0,1-4,10.06l-1.82-.63Zm15.92-4a16.31,16.31,0,0,0-4.12-7.68l1.43-1a17.36,17.36,0,0,1,4.44,8l-1.74.71Z"/><path class="cls-6" d="M269.7,148.73h1.9q4,0,5-1a2.73,2.73,0,0,0,.87-2,2.43,2.43,0,0,0-.79-1.74,3.28,3.28,0,0,0-2.38-.71q-3.49,0-6.34,3.41l-1.58-.16.87-8.47,1.66.32q.79.32,0,.63l-.55,5.15a9.46,9.46,0,0,1,6.34-2.38A4.61,4.61,0,0,1,278.1,143a3.65,3.65,0,0,1,1,2.69,4.33,4.33,0,0,1-1.35,3.17q-1.59,1.58-6,1.58h-1.43Zm-1-15.13q2.22.56,6,1.9l-.79,1.58A52.6,52.6,0,0,0,268,135l.71-1.43Z"/><path class="cls-6" d="M286.71,149a4.77,4.77,0,0,1-3.41-1,3.42,3.42,0,0,1-1-2.53,8.15,8.15,0,0,1,.32-2.06l1.82.24a7.06,7.06,0,0,0-.4,1.82,1.61,1.61,0,0,0,.48,1.19,3.21,3.21,0,0,0,2.22.55h8.63V149Zm-3.17-13.38h10.3v1.74h-10.3Z"/><path class="cls-6" d="M307.84,138.28q-1.35,7.92-3.25,9.82a3,3,0,0,1-2.14,1,2.68,2.68,0,0,1-2-.71,6.45,6.45,0,0,1-1.9-4.75,8.09,8.09,0,0,1,2.46-5.94,8.94,8.94,0,0,1,6.57-2.69,7.39,7.39,0,0,1,5.46,2,7.56,7.56,0,0,1,.16,10.53,14.21,14.21,0,0,1-4.12,2.61l-1.66-1.66A10.48,10.48,0,0,0,311.8,146a5,5,0,0,0,1.5-3.64,5.69,5.69,0,0,0-1.66-4.2q-1.66-1.66-5.23-1.5l1.43.71q1,.4,0,.87Zm-1.82-1.5a7.25,7.25,0,0,0-3.56,2,6.89,6.89,0,0,0-2.06,5.07,4.08,4.08,0,0,0,1.19,3,1,1,0,0,0,.71.24,1.54,1.54,0,0,0,1-.55q1.82-1.82,2.69-9.74Z"/><path class="cls-6" d="M333,136a28.56,28.56,0,0,1-6.26,6.57h7.37v8.24h-1.58v-.71h-7.21v1h-1.58v-6.42a28.65,28.65,0,0,1-4.36,2.06l-.63-1.82a20.26,20.26,0,0,0,7.21-3.8,14.88,14.88,0,0,0-2.61-2.06,16.32,16.32,0,0,1-3.48,2.53l-1-1.27a12.24,12.24,0,0,0,6.1-7l1.74.4q.32.32-.24.4l-.32.71h5.31l.16-.32,1.66,1.19q.32.32-.24.4Zm-5.7,4a32.74,32.74,0,0,0,3.33-3.72h-5.23l-1.19,1.66a19.73,19.73,0,0,1,3.09,2.06Zm5.23,4.12h-7.21v4.51h7.21Z"/><path class="cls-6" d="M350.77,137.88h-1.9a13.07,13.07,0,0,1-2.06,2.69l-1-1.11h-2.14v1.9a8.85,8.85,0,0,1,2.85,1.82l-1,1.58a12.64,12.64,0,0,0-1.9-1.58v8.08h-1.58v-8.08a14.45,14.45,0,0,1-2.61,4l-.87-1.66a14.16,14.16,0,0,0,3.33-6.1H339V138h3.09v-2.53q-1.43.16-2.85.24l-.48-1.5a34.06,34.06,0,0,0,6.73-1l.79,1.43q.32.63-.4.24-1.19.24-2.22.4V138H346v1q1.66-1.58,3.17-5.94l1.66.48q.32.32-.24.4-.48,1.27-1,2.46h6.49v1.5h-3.72v12a1,1,0,0,1-1.11,1.11h-1.66l-.24-1.5h1.11a.28.28,0,0,0,.32-.32Zm-1.19,3.88A24.32,24.32,0,0,1,347,148l-1.5-.87a21.71,21.71,0,0,0,2.61-6.42l1.5.55q.55.32-.08.48Zm5.46,5.7a27.91,27.91,0,0,0-2.06-6.1l1.5-.63a27.91,27.91,0,0,1,2.3,6.18Z"/><path class="cls-6" d="M363,133.6h1.66q.87.16.16.63l.16,3.8a7.3,7.3,0,0,0,.55,2.69,48.28,48.28,0,0,1,5.94-2l.79,2.06q-7.53,1.35-10.06,3.88a2.57,2.57,0,0,0-.87,1.82,1.74,1.74,0,0,0,.55,1.27,3.36,3.36,0,0,0,2.3.55h7.6v1.74h-7.68a5.09,5.09,0,0,1-3.64-1,3.26,3.26,0,0,1-1-2.38,4.11,4.11,0,0,1,1.27-3,15.67,15.67,0,0,1,3.17-2.22,8.2,8.2,0,0,1-.55-2.61Z"/><path class="cls-6" d="M377.63,138.59a26.1,26.1,0,0,1-3.17.16l-.24-1.66q2,0,4-.16.4-1.43,1-3.8l1.43.48q.79.32,0,.63l-.71,2.53a18.25,18.25,0,0,0,2.77-.55l.4,1.66a24.54,24.54,0,0,1-3.64.55,55.87,55.87,0,0,1-3.72,8.79l-1.58-.79a42.78,42.78,0,0,0,3.56-7.84Zm8.47,1.9q.87.16.16.63v4.59a26.76,26.76,0,0,1,4.12,1.74l-1,1.5a16.87,16.87,0,0,0-3.17-1.5,4.24,4.24,0,0,1-1,2.46,3.53,3.53,0,0,1-2.61,1,4.32,4.32,0,0,1-3.09-.87,2.78,2.78,0,0,1-.79-2.06,2.5,2.5,0,0,1,.79-1.82,4.08,4.08,0,0,1,3-1,7.71,7.71,0,0,1,2.14.24v-4.83Zm-1.43,6.34a6.76,6.76,0,0,0-2.14-.32,2.46,2.46,0,0,0-1.74.48,1.3,1.3,0,0,0-.4,1,1.17,1.17,0,0,0,.32.87,2.32,2.32,0,0,0,1.66.48,2.19,2.19,0,0,0,1.58-.48,2.68,2.68,0,0,0,.71-2Zm.55-10.61q2.22.71,5.31,1.9l-.71,1.66a49.48,49.48,0,0,0-5.23-2Z"/><path class="cls-6" d="M397.7,141.36q-1.9.63-4.44,1.66l-.79-1.66,4.59-1.43a14.7,14.7,0,0,1,4.36-.71,4.47,4.47,0,0,1,4.67,4.59,4.84,4.84,0,0,1-1.19,3.56q-2.14,2.14-7.21,2.3l-.63-1.66q5-.08,6.57-1.66a3.64,3.64,0,0,0-.24-5,3.1,3.1,0,0,0-2.22-.63,11.65,11.65,0,0,0-3.48.63Z"/><path class="cls-6" d="M414.08,139.15a51.54,51.54,0,0,1-2.93,11.17l-1.74-.55a44.07,44.07,0,0,0,3-10.45q-1.9.16-3.41.16l-.32-1.58q2.22,0,4-.16.32-2.45.55-4.28l1.58.32q.87.24.16.63-.24,1-.63,3.17a26.54,26.54,0,0,0,3.33-.63l.32,1.58q-2.06.4-3.88.63ZM425,148.41v1.74h-3.48a12,12,0,0,1-5.7-1.43l.71-1.43a10.39,10.39,0,0,0,5,1.11Zm-.4-6.57a20.82,20.82,0,0,0-7.21,1.27l-.48-1.58a19.86,19.86,0,0,1,7.37-1.35Z"/><path class="cls-6" d="M51.23,207q.13.34-.47.13-3.77.4-8.08.74l.07,2H52v1.28H48.88v3.23h4.24v1.48H38v-1.48h3.5l-.34-8.21,1.55.47q4.11-.54,7.34-1.14Zm-6.8,10.57c.22.23.16.34-.2.34a13.28,13.28,0,0,1-4.71,2.63L38.58,219a11.77,11.77,0,0,0,4.71-2.42Zm3.1-3.16v-3.23H42.82l.13,3.23Zm.4,2.15a12.87,12.87,0,0,0,5,2.36l-.74,1.55a12.35,12.35,0,0,1-5.32-2.76l1-1.14Z"/><path class="cls-6" d="M70,210.08v1.48H63.48V218H69v1.48H56.28V218h5.65v-6.4H55.47v-1.48h6.46v-4.24h1.48q.67.14.07.54v3.7Z"/><path class="cls-6" d="M80.72,209.61Q79.57,216.34,78,218a2.58,2.58,0,0,1-1.82.88,2.27,2.27,0,0,1-1.68-.61,5.48,5.48,0,0,1-1.62-4,6.88,6.88,0,0,1,2.09-5,7.6,7.6,0,0,1,5.59-2.29,6.28,6.28,0,0,1,4.65,1.68,6.42,6.42,0,0,1,.13,9,12.08,12.08,0,0,1-3.5,2.22l-1.41-1.41a8.91,8.91,0,0,0,3.7-2.09,4.22,4.22,0,0,0,1.28-3.1,4.84,4.84,0,0,0-1.41-3.57q-1.41-1.41-4.44-1.28l1.21.61q.81.34,0,.74Zm-1.55-1.28a6.17,6.17,0,0,0-3,1.68,5.85,5.85,0,0,0-1.75,4.31,3.47,3.47,0,0,0,1,2.56.82.82,0,0,0,.61.2,1.31,1.31,0,0,0,.88-.47q1.55-1.55,2.29-8.28Z"/><path class="cls-6" d="M96.27,211.16H91.49v9.36H90.14V205.78h6.13Zm-1.35-3.23v-1.08H91.49v1.08Zm0,1.08H91.49v1.08h3.43Zm5.45,3.3v6.6H99v-.54H95.46v1.08H94.11v-7.14ZM99,213.38H95.46v1.48H99Zm0,2.56H95.46v1.35H99Zm3.57,3.23a.24.24,0,0,0,.27-.27v-7.74H98v-5.39h6.19v13.6a1,1,0,0,1-1.08,1.08h-1.35l-.13-1.28Zm.27-11.24v-1.08h-3.5v1.08Zm0,1.08h-3.5v1.08h3.5Z"/><path class="cls-6" d="M120.44,208.54a11.61,11.61,0,0,0-3.7.47,7.58,7.58,0,0,0-2.76,1.82,4.46,4.46,0,0,0-1.28,3.3,3.55,3.55,0,0,0,1,2.63q1.35,1.35,5.18,1.48l-.54,1.48q-4-.2-5.52-1.75a5.13,5.13,0,0,1-1.55-3.77,5.83,5.83,0,0,1,2.49-5l-6.46.94-.4-1.55q6.6-.47,13.26-1.62ZM119,213.79a27.35,27.35,0,0,0-2.56-1.68l.67-.81q1,.61,2.56,1.68l-.67.81Zm1.35-1.62q-1.62-1.14-2.56-1.68l.67-.81q.94.54,2.56,1.68l-.67.81Z"/><path class="cls-6" d="M123.58,219.51a31.24,31.24,0,0,1-.27-4.38,38.12,38.12,0,0,1,.81-8.75l1.48.27q.47.2-.07.47a30,30,0,0,0-.74,8,20,20,0,0,0,.34,4.11Zm10.17-9a48.83,48.83,0,0,1,0,5.12,16.51,16.51,0,0,1,3.9,2.09l-.81,1.28a17.87,17.87,0,0,0-3.1-1.88,2.64,2.64,0,0,1-.74,2,3.84,3.84,0,0,1-4.71,0,2.36,2.36,0,0,1-.67-1.75,2,2,0,0,1,.54-1.48,3.29,3.29,0,0,1,2.42-.81,7.77,7.77,0,0,1,1.75.2,40.25,40.25,0,0,0,0-4.65l-5,.34v-1.41l4.85-.27q-.07-1.88-.27-3.37h1.41q.74.14.13.54.07,1.41.13,2.76l3.64-.2v1.41Zm-1.41,6.06a6.8,6.8,0,0,0-1.75-.34,1.86,1.86,0,0,0-1.35.4,1,1,0,0,0-.34.67,1.09,1.09,0,0,0,.27.81,1.92,1.92,0,0,0,1.41.47,1.69,1.69,0,0,0,1.35-.47,2.07,2.07,0,0,0,.4-1.55Z"/><polygon class="cls-6" points="142.09 217.09 140.74 217.09 140.74 205.03 145.79 205.03 145.79 206.31 142.09 206.31 142.09 217.09"/><path class="cls-6" d="M153.67,210.15q.54.34-.13.61a22.91,22.91,0,0,1-3.9,7.74l-1.55-1a19,19,0,0,0,4-8.08l1.62.74Zm8.08,8a24.29,24.29,0,0,0-4.38-8.48l1.41-1.08a26.73,26.73,0,0,1,4.78,9l-1.82.61Z"/><path class="cls-6" d="M178.44,211.3q-3.57,7.41-12,7.81-.34.87-.67.13l-.54-1.75q8.75-.2,11.78-7.2Zm-9.49,0a28.11,28.11,0,0,0-3.43-2.76l1.14-1.41a24.62,24.62,0,0,1,3.57,2.89l-1.28,1.28Z"/><path class="cls-6" d="M188.82,215.13a31.44,31.44,0,0,0-5.86-2.42v7h-1.55V206.25h1.35q.81.07.2.54V211a42.34,42.34,0,0,1,6.66,2.56Zm-.13-5.92a13.81,13.81,0,0,0-2.29-2.29l.88-.67a13.81,13.81,0,0,1,2.29,2.29Zm1.62-1.28a13,13,0,0,0-2.22-2.22L189,205a10.41,10.41,0,0,1,2.22,2.22Z"/><path class="cls-6" d="M207.24,213.85l-6.26.67,1.28,5.45-1.48.34-1.28-5.59-6.87.81-.2-1.41,6.73-.74-.67-3.16-4.58.54-.27-1.41,4.44-.47-.67-3.1,1.41-.27q.61-.07.2.47l.54,2.69,4.91-.67.27,1.41L200,210l.67,3.16,6.33-.74Z"/><path class="cls-6" d="M214.09,211.83l5.52-1.35.34-.2,1.08,1.08q.27.27-.2.4-1.21,2-2.56,3.77l-1.14-.74a34.58,34.58,0,0,0,2-3L214.49,213l2.29,6.8-1.35.47-2.22-7-3.9,1.08-.47-1.35,3.9-.88-1.08-3.23,1.41-.27q.61,0,.2.47Z"/><path class="cls-6" d="M232.88,208.06a23.3,23.3,0,0,1-3.16,6.19,20.29,20.29,0,0,1-5.32,4.85l-1.62-1.28a16.21,16.21,0,0,0,5.12-4,18.21,18.21,0,0,0,3.37-7.07l1.82.81q.47.27-.2.54Z"/><path class="cls-6" d="M248.14,211.3q-3.57,7.41-12,7.81-.34.87-.67.13l-.54-1.75q8.75-.2,11.78-7.2Zm-9.49,0a28.11,28.11,0,0,0-3.43-2.76l1.14-1.41a24.62,24.62,0,0,1,3.57,2.89l-1.28,1.28Z"/><polygon class="cls-6" points="255.48 208.67 255.48 220.72 250.43 220.72 250.43 219.44 254.14 219.44 254.14 208.67 255.48 208.67"/><path class="cls-6" d="M267,209.61q-1.15,6.73-2.76,8.35a2.58,2.58,0,0,1-1.82.88,2.27,2.27,0,0,1-1.68-.61,5.48,5.48,0,0,1-1.62-4,6.88,6.88,0,0,1,2.09-5,7.6,7.6,0,0,1,5.59-2.29,6.28,6.28,0,0,1,4.65,1.68,6.42,6.42,0,0,1,.13,9,12.08,12.08,0,0,1-3.5,2.22l-1.41-1.41a8.91,8.91,0,0,0,3.7-2.09,4.22,4.22,0,0,0,1.28-3.1,4.84,4.84,0,0,0-1.41-3.57q-1.41-1.41-4.44-1.28l1.21.61q.81.34,0,.74Zm-1.55-1.28a6.17,6.17,0,0,0-3,1.68,5.85,5.85,0,0,0-1.75,4.31,3.47,3.47,0,0,0,1,2.56.82.82,0,0,0,.61.2,1.31,1.31,0,0,0,.88-.47q1.55-1.55,2.29-8.28Z"/><path class="cls-6" d="M289.41,212.24v-1.75H277.5v2h-1.35v-3h9.56A10,10,0,0,0,287,207l1.28.54q.67.27-.13.47a16,16,0,0,1-1,1.41h3.64v2.83ZM284,218.77a24,24,0,0,1-7.2,1.68l-.34-1.35a22.92,22.92,0,0,0,6.4-1,7.74,7.74,0,0,1-2-1.68,10.76,10.76,0,0,1-3.5,1.48l-.47-1.14a7.69,7.69,0,0,0,4.65-2.56.84.84,0,0,1-.88-.94V211h1.08q.61,0,.07.4v1.28a.42.42,0,0,0,.47.47h3.16a.24.24,0,0,0,.27-.27l.07-.88,1.14.27-.07,1.08q-.07.88-1.14.88h-2.76a3.16,3.16,0,0,1-.61.81h4.85l.27-.2,1.08.81-.4.27a13.89,13.89,0,0,1-2.76,2.15,18.25,18.25,0,0,0,5.86.81l-.61,1.48a17.82,17.82,0,0,1-6.6-1.55Zm4.65-12.12q-6.46.54-11.18.74l-.4-1.14q6.39-.27,11.24-.88l.81,1q.4.47-.47.27ZM279.92,212q.34.34-.27.4a11.79,11.79,0,0,1-1.35,2.09l-1.08-.74a8.25,8.25,0,0,0,1.55-2.29Zm-.4-2.69a5.58,5.58,0,0,0-.94-1.21l1.41-.47a8,8,0,0,1,1,1.21Zm4.51,8.28a12,12,0,0,0,2.22-1.48h-4.44a6.42,6.42,0,0,0,2.22,1.48Zm-.88-8.35a6.89,6.89,0,0,0-1-1.41l1.41-.4a7.14,7.14,0,0,1,1.08,1.35Zm.34,3.43a6.08,6.08,0,0,0-.94-1.48l1.14-.47a8.92,8.92,0,0,1,1.08,1.35Zm5.39,1.35a12.49,12.49,0,0,0-2-2.22l1-.67a15.87,15.87,0,0,1,2.15,2.15Z"/><path class="cls-6" d="M303.48,209.28h-1.62a11.11,11.11,0,0,1-1.75,2.29l-.81-.94h-1.82v1.62a7.52,7.52,0,0,1,2.42,1.55l-.81,1.35a10.74,10.74,0,0,0-1.62-1.35v6.87h-1.35v-6.87a12.28,12.28,0,0,1-2.22,3.43l-.74-1.41a12,12,0,0,0,2.83-5.18h-2.49v-1.28h2.63v-2.15q-1.21.14-2.42.2l-.4-1.28a29,29,0,0,0,5.72-.88l.67,1.21q.27.54-.34.2-1,.2-1.88.34v2.36h2v.88a13.08,13.08,0,0,0,2.69-5l1.41.4q.27.27-.2.34-.4,1.08-.88,2.09H308v1.28h-3.16v10.17a.83.83,0,0,1-.94.94h-1.41l-.2-1.28h.94a.24.24,0,0,0,.27-.27Zm-1,3.3a20.67,20.67,0,0,1-2.15,5.32l-1.28-.74a18.45,18.45,0,0,0,2.22-5.45l1.28.47q.47.27-.07.4Zm4.65,4.85a23.73,23.73,0,0,0-1.75-5.18l1.28-.54a23.72,23.72,0,0,1,2,5.25Z"/><path class="cls-6" d="M323.95,208.54a11.61,11.61,0,0,0-3.7.47,7.58,7.58,0,0,0-2.76,1.82,4.46,4.46,0,0,0-1.28,3.3,3.55,3.55,0,0,0,1,2.63q1.35,1.35,5.18,1.48l-.54,1.48q-4-.2-5.52-1.75a5.13,5.13,0,0,1-1.55-3.77,5.83,5.83,0,0,1,2.49-5l-6.46.94-.4-1.55q6.6-.47,13.26-1.62Zm-1.48,5.25a27.35,27.35,0,0,0-2.56-1.68l.67-.81q1,.61,2.56,1.68l-.67.81Zm1.35-1.62q-1.62-1.14-2.56-1.68l.67-.81q.94.54,2.56,1.68l-.67.81Z"/><path class="cls-6" d="M332.61,215.27q0,4-5,5.45l-.67-1.35q4.17-1.28,4.31-3.7L326.75,217q-.07.47-.34.2l-.34-1.55,5.18-1.21v-1.55h-3.9v-1.28h3.9v-2.15h-4.71v-1.28h4.71v-2.63h1.28q.54.07.07.4Zm7.94-7.14v1.28h-4.65v2.15h3.9v1.28h-3.9v2.36h5.32v1.28h-5.32v3.9h-1.35V205.51h1.28q.54.07.07.4v2.22Z"/><path class="cls-6" d="M42,270.16a6,6,0,0,0-1.48-1.68l1.08-.88a4.7,4.7,0,0,1,1.68,1.82l-1,.74H44.9v-3h1.28q.54.07.07.4v2.56h2.56l-1.08-.67,1.35-2.09,1.21.74q.47.34-.13.34L49,270.16h3.77v3.16H51.43v-2.09H39.59v2.36H38.24v-3.43Zm6.73,10.23h1.35a.24.24,0,0,0,.27-.27V278.3H46.25v4.17H44.9V278.3H41.07v3.3H39.72V277H44.9v-1.08H41.4v-3.7h8.21v3.7H46.25V277H51.7v3.7a.83.83,0,0,1-.94.94H49Zm-.47-7.07H42.75v1.55h5.52Z"/><path class="cls-6" d="M56.08,281.67q-.2-3.5-.2-6a42,42,0,0,1,.74-7.2l1.35.34q.74.14.07.61a38.74,38.74,0,0,0-.67,6.26q0,2.63.27,5.86Zm9.63-1.28a7.24,7.24,0,0,1-5.25-2l.88-1.14a5.84,5.84,0,0,0,4.38,1.68h3.7v1.48Zm2.83-8.68a63.65,63.65,0,0,0-7.54.4v-1.41a66.44,66.44,0,0,1,7.54-.4Z"/><path class="cls-6" d="M82.94,278.77a8.44,8.44,0,0,1-6.26,3.16,4.87,4.87,0,0,1-3.57-1.14q-.88-.87-.88-3.37v-9h1.41q.61.14.13.54v8.48a3.25,3.25,0,0,0,.61,2.29,3,3,0,0,0,2.22.74q2.63,0,5.32-3l1,1.28Z"/><path class="cls-6" d="M89,272.45a43.81,43.81,0,0,1-2.49,9.49l-1.48-.47a37.46,37.46,0,0,0,2.56-8.89q-1.62.14-2.89.13l-.27-1.35q1.88,0,3.37-.13.27-2.09.47-3.64l1.35.27q.74.2.13.54-.2.81-.54,2.69a22.56,22.56,0,0,0,2.83-.54l.27,1.35q-1.75.34-3.3.54Zm9.29,7.88v1.48h-3a10.21,10.21,0,0,1-4.85-1.21l.61-1.21a8.83,8.83,0,0,0,4.24.94ZM98,274.73a17.69,17.69,0,0,0-6.13,1.08l-.4-1.35a16.88,16.88,0,0,1,6.26-1.14Z"/><path class="cls-6" d="M112.08,278.77a8.44,8.44,0,0,1-6.26,3.16,4.87,4.87,0,0,1-3.57-1.14q-.88-.87-.88-3.37v-9h1.41q.61.14.13.54v8.48a3.25,3.25,0,0,0,.61,2.29,3,3,0,0,0,2.22.74q2.63,0,5.32-3l1,1.28Z"/><path class="cls-6" d="M121.42,277.56a24.07,24.07,0,0,1,5.39,1.88l-.74,1.48a16.61,16.61,0,0,0-4.65-2.09,3.57,3.57,0,0,1-.88,2.63,3.61,3.61,0,0,1-2.63.81,3.1,3.1,0,0,1-2.29-.88,2.27,2.27,0,0,1-.61-1.68,2.2,2.2,0,0,1,.67-1.62,3.67,3.67,0,0,1,2.69-.88q.54,0,1.68.07v-2.09l-5.12.13V274l5.12-.13V271.5l-6.33.2v-1.35l6.33-.2v-2.63h1.21q.74.14.13.54v2l5.52-.2v1.35l-5.52.2v2.42l4.38-.13V275l-4.38.13Zm-1.41,1a8.3,8.3,0,0,0-1.48-.13,2.63,2.63,0,0,0-1.88.54,1.18,1.18,0,0,0-.34.88,1,1,0,0,0,.34.74,2,2,0,0,0,1.48.47,1.83,1.83,0,0,0,1.35-.54,2.49,2.49,0,0,0,.54-2Z"/><path class="cls-6" d="M139.44,273.52q.07-1.28-.74-1.28-1.15,0-4.44,3.3v6.73h-1.35v-5.52l-3,3.7-1.08-1.08,2.69-3.16a18.9,18.9,0,0,0,1.35-2v-1.62l-3,1-.4-1.41,3.37-.88v-4h1.21q.61.14.13.54v3l.74.4q.61.27-.13.61l-.61,1.28v.47q3.16-3,4.78-3,2,0,1.82,2.69l-.34,5.18q-.07,1.08.81,1.08a1.6,1.6,0,0,0,1.28-.47,6.62,6.62,0,0,0,1-1.75l1.14.94a8,8,0,0,1-1.28,1.88,2.77,2.77,0,0,1-2,.88q-2.49,0-2.36-2.56l.34-5.12Z"/><path class="cls-6" d="M160,270.63a11.61,11.61,0,0,0-3.7.47,7.58,7.58,0,0,0-2.76,1.82,4.46,4.46,0,0,0-1.28,3.3,3.55,3.55,0,0,0,1,2.63q1.35,1.35,5.18,1.48l-.54,1.48q-4-.2-5.52-1.75a5.13,5.13,0,0,1-1.55-3.77,5.83,5.83,0,0,1,2.49-5l-6.46.94-.4-1.55q6.6-.47,13.26-1.62Z"/><path class="cls-6" d="M168.43,277.83a8.66,8.66,0,0,1-1.28,2.36,2.57,2.57,0,0,1-1.88,1.14,2.66,2.66,0,0,1-2.49-2,15.87,15.87,0,0,1-.47-4.91q0-2.69.27-5.45l1.41.34q.81.2.07.67a42.23,42.23,0,0,0-.27,4.51,15.56,15.56,0,0,0,.34,3.9q.34,1.15,1,1.14t1.28-1.08a14.82,14.82,0,0,0,.67-1.62l1.35.94Zm4-7.88a13.75,13.75,0,0,1,3.7,7.67l-1.82.47a13.77,13.77,0,0,0-3.3-7.34l1.41-.81Z"/><path class="cls-6" d="M186.6,280.86a3,3,0,0,0,1.82-.88,2.91,2.91,0,0,0,.81-2.15,3.19,3.19,0,0,0-.88-2.36,3.78,3.78,0,0,0-2.76-.88,5.8,5.8,0,0,0-3.43.88,18.83,18.83,0,0,0-3,2.89l-1.14-1a89.2,89.2,0,0,0,7.34-8.08q-2.22.27-4.44.47l-.47-1.55a45.23,45.23,0,0,0,5.86-.34l.61-.27.74.74q.74.67-.34.88-2,2.29-4,4.51a10.55,10.55,0,0,1,2.36-.34,5.14,5.14,0,0,1,3.77,1.21,4.19,4.19,0,0,1,1.21,3.1,4.1,4.1,0,0,1-1.08,3,5.56,5.56,0,0,1-4.11,1.62,4.7,4.7,0,0,1-3.43-1.08,2.85,2.85,0,0,1-.88-2.09,1.94,1.94,0,0,1,.61-1.41,2.13,2.13,0,0,1,1.55-.67,2.74,2.74,0,0,1,2,.81,5.36,5.36,0,0,1,1.28,3Zm-1.35.2a4.07,4.07,0,0,0-.81-2.36,1.36,1.36,0,0,0-.94-.47,1.1,1.1,0,0,0-.81.27,1,1,0,0,0-.34.74,1.61,1.61,0,0,0,.54,1.14,2.36,2.36,0,0,0,1.75.67Z"/><path class="cls-6" d="M194.08,267.93H208v1.28H195.43v8.15a9.32,9.32,0,0,1-1.41,5.12l-1.08-1a8.25,8.25,0,0,0,1.14-4.11Zm6.8,7.07a12.47,12.47,0,0,0-1.35-1v2.49h-1.14v-2.22a11.1,11.1,0,0,1-2.22,2.29l-.67-1.21a8.68,8.68,0,0,0,2.83-3H196.1v-1.08h2.29v-1.48h1.08q.54.07.07.4v1.08h1.82v1.08h-1.82v.54a5.28,5.28,0,0,1,2,.94l-.61,1.21Zm.54,1.62h1.28q.54.07.07.4v.81h3.84v1.28h-3.84v1.75h5.65v1.28H195.5v-1.28h2.29V277.7h1.28q.54.07.07.4v2.76h2.29Zm-.34-1.55a10.11,10.11,0,0,0,2.76-2.76H202v-1.08h2v-1.55H205q.54.07.07.4v1.14h2.63v1.08h-2.49a7.22,7.22,0,0,0,3.1,2.56l-.61,1.28a7.37,7.37,0,0,1-2.63-2.36v2.69h-1.14v-2.42a10.53,10.53,0,0,1-2.15,2.09Z"/><path class="cls-6" d="M218.66,269.75h5.18V276h-1.35v-.74h-3.84a11.73,11.73,0,0,1-.61,4q2.36,1.48,7.2,1.55l-.4,1.62a15.1,15.1,0,0,1-7.61-2,13.17,13.17,0,0,1-6.4,2.15l-.4-1.41q4.51-.67,5.59-1.68a8.87,8.87,0,0,1-2-2.63l1.14-.67a7.62,7.62,0,0,0,1.68,2.15,10.37,10.37,0,0,0,.4-3.1H213.2v1h-1.35v-6.53h5.45v-2.49h1.28q.54.07.07.4ZM217.31,271H213.2v3h4.11Zm5.18,3v-3h-3.84v3Z"/><path class="cls-6" d="M235.82,271.7q-1.15,6.73-2.76,8.35a2.58,2.58,0,0,1-1.82.88,2.27,2.27,0,0,1-1.68-.61,5.48,5.48,0,0,1-1.62-4,6.88,6.88,0,0,1,2.09-5,7.6,7.6,0,0,1,5.59-2.29,6.28,6.28,0,0,1,4.65,1.68,6.42,6.42,0,0,1,.13,9,12.08,12.08,0,0,1-3.5,2.22l-1.41-1.41a8.91,8.91,0,0,0,3.7-2.09,4.22,4.22,0,0,0,1.28-3.1,4.84,4.84,0,0,0-1.41-3.57q-1.41-1.41-4.44-1.28l1.21.61q.81.34,0,.74Zm-1.55-1.28a6.17,6.17,0,0,0-3,1.68,5.85,5.85,0,0,0-1.75,4.31,3.47,3.47,0,0,0,1,2.56.82.82,0,0,0,.61.2,1.31,1.31,0,0,0,.88-.47q1.55-1.55,2.29-8.28Z"/><path class="cls-6" d="M259.25,282.48q-5.79-1.35-7.67-6.13h-2.09v4.44l3.77-.67.27,1.14-6.93,1.41q-.07.54-.34.27l-.47-1.62,2.36-.34v-4.65h-3.23v-1.28h3.23V267.8h9.69v1.28h-8.35v1h7.41v1.28h-7.41v1.14H257v1.28h-7.54v1.28h10.37v1.28h-6.93a7.18,7.18,0,0,0,1.48,2l2.15-1.68,1.14.81q.47.34-.2.34l-2.09,1.41a15.61,15.61,0,0,0,4.65,1.82Z"/><path class="cls-6" d="M268.54,277.83a8.66,8.66,0,0,1-1.28,2.36,2.57,2.57,0,0,1-1.88,1.14,2.66,2.66,0,0,1-2.49-2,15.87,15.87,0,0,1-.47-4.91q0-2.69.27-5.45l1.41.34q.81.2.07.67a42.23,42.23,0,0,0-.27,4.51,15.56,15.56,0,0,0,.34,3.9q.34,1.15,1,1.14t1.28-1.08a14.82,14.82,0,0,0,.67-1.62l1.35.94Zm4-7.88a13.75,13.75,0,0,1,3.7,7.67l-1.82.47a13.77,13.77,0,0,0-3.3-7.34l1.41-.81Z"/><path class="cls-6" d="M281.06,282.75h-1.35v-8.82q-.54.81-1.21,1.68l-.88-1.21a14.61,14.61,0,0,0,3.1-7.2l1.55.34q.27.27-.2.34a27.6,27.6,0,0,1-1.21,4l.34.13q.2.2-.13.4Zm7.07-8.48q.54.07.07.4v1.62h4.91v1.28h-4.58a11.2,11.2,0,0,0,5.12,2.76L293,281.8a11.3,11.3,0,0,1-4.85-3.1v4h-1.35v-3.64a13,13,0,0,1-4.78,3.1l-.47-1.48a10.7,10.7,0,0,0,5-3.16H282.2v-1.28h4.65v-2Zm-6.33.34a7,7,0,0,0,3-1.88,6.68,6.68,0,0,0-1.35-1.28,11,11,0,0,1-.94,1.14l-.81-.81a10.31,10.31,0,0,0,2.22-4.51l1.28.2q.27.27-.2.34l-.27.81h2.42v.67a6.9,6.9,0,0,1-4.65,6.53Zm2.56-4.91-.4.88a17.23,17.23,0,0,1,1.41,1.08,5.1,5.1,0,0,0,.54-2Zm7.2,5.52h-1.14v-1.82h-3.57v-1.08h1.35V270h-.67v-1.08h2.89V267.4h1.08q.54.07.07.4v1.14h1.35V270h-1.35v2.29h2v1.08h-2Zm-2.22-2.89h1.08V270h-1.08Z"/><path class="cls-6" d="M295.33,274.94a17.45,17.45,0,0,0,3.9-7.41l1.48.47c.27.18.25.29-.07.34a24,24,0,0,1-1.35,3.37l.4.13q.27.27-.2.34v10.37h-1.35v-8.75a14.08,14.08,0,0,1-1.75,2.29Zm15.08-4.71v1.28h-4.85V274h4.24v1.28h-4.24v2.22h4.51v1.28h-4.51v3.77h-1.35v-11h-.67a12.43,12.43,0,0,1-2.29,3.5l-1.28-.94a12.63,12.63,0,0,0,3.37-6.66l1.41.4c.27.13.25.25-.07.34a14.91,14.91,0,0,1-.67,2.09Z"/><path class="cls-6" d="M325.08,269.75a24.27,24.27,0,0,1-5.32,5.59H326v7h-1.35v-.61h-6.13v.81h-1.35v-5.45a24.35,24.35,0,0,1-3.7,1.75l-.54-1.55a17.22,17.22,0,0,0,6.13-3.23,12.65,12.65,0,0,0-2.22-1.75,13.87,13.87,0,0,1-3,2.15l-.88-1.08a10.41,10.41,0,0,0,5.18-6l1.48.34q.27.27-.2.34l-.27.61h4.51l.13-.27,1.41,1q.27.27-.2.34Zm-4.85,3.37a27.83,27.83,0,0,0,2.83-3.16h-4.44l-1,1.41a16.77,16.77,0,0,1,2.63,1.75Zm4.44,3.5h-6.13v3.84h6.13Z"/><path class="cls-6" d="M333.63,268.94a8.58,8.58,0,0,1-1.41,2.22h3.5v1.28H334v1.62h2.36v1.28H334v4.78l3-.81v1.08q-3.64,1.21-6,1.82-.07.54-.34.27l-.4-1.55,2.42-.54v-5h-2.36v-1.28h2.36v-1.62h-1.35q-.4.4-.94.88l-.81-1.08a12.12,12.12,0,0,0,3.5-5l1.14.2c.27.09.25.2-.07.34l-.07.2a8.49,8.49,0,0,1,2.83,2.36l-.61,1.21a9.15,9.15,0,0,0-2.63-2.63Zm-2.09,7.14a7.87,7.87,0,0,1,.61,3l-1.14.34a9.64,9.64,0,0,0-.54-3.1Zm4.65-.13q.34.2-.07.34a21.24,21.24,0,0,1-.61,2.89l-1.08-.2a17.28,17.28,0,0,0,.54-3.23Zm3.57,2.29q0,3.3-3.84,4.44l-.4-1.41q2.89-.54,2.89-3v-2.63h1.28q.54.07.07.4Zm3-6.73a11.3,11.3,0,0,1,2.42,3.1l-1.21.61a2.36,2.36,0,0,0-.47-.74q-3.57.4-5.92.61-.2.61-.4,0l-.34-1.48h1.48a17,17,0,0,0,1-2.49H337.2v-1.28H340v-2.69h1.28q.54.07.07.4v2.29h3.43v1.28h-4a18.09,18.09,0,0,1-1.21,2.49l3.37-.13a6.92,6.92,0,0,0-1.08-1.41Zm.88,9.56q.54,0,.61-1.82l1.35.47q-.2,2.63-1.68,2.63h-1.41q-1.15,0-1.14-1.21v-5.52h1.28q.54.07.07.4v4.58c0,.31.11.47.34.47Z"/><path class="cls-6" d="M351.88,278.64a2.44,2.44,0,1,1-1.68-.67,2.29,2.29,0,0,1,1.68.67Zm-.61,2.76a1.47,1.47,0,1,0-1.08.47,1.48,1.48,0,0,0,1.08-.47Z"/><path class="cls-6" d="M49.48,340.8q.87,1.62,1.55,1.62.27,0,.34-.4l.13-1.14,1.48.67-.27,1.62q-.2,1.14-1.21,1.14-2,0-3.43-2.76a17,17,0,0,1-1.41-7.41H38.37v-1.48h8.21v-3.1h1.48q.67.14.07.54v2.56h4.71v1.48H48.14q.27,4.71,1.35,6.66ZM46.86,342q-3.77.81-7.61,1.48-.14.61-.47.13l-.34-1.68q1.68-.13,3.3-.4V337.7H39v-1.28h6.66v1.28H43.09v3.64q1.55-.2,3.57-.61ZM50,329.89a7.92,7.92,0,0,1,1.82,1.28l-1.21,1a8.08,8.08,0,0,0-1.75-1.28Z"/><path class="cls-6" d="M67.59,331.84a24.27,24.27,0,0,1-5.32,5.59h6.26v7H67.19v-.61H61.06v.81H59.71v-5.45a24.35,24.35,0,0,1-3.7,1.75l-.54-1.55a17.22,17.22,0,0,0,6.13-3.23,12.65,12.65,0,0,0-2.22-1.75,13.87,13.87,0,0,1-3,2.15l-.88-1.08a10.41,10.41,0,0,0,5.18-6l1.48.34q.27.27-.2.34l-.27.61h4.51l.13-.27,1.41,1q.27.27-.2.34Zm-4.85,3.37A27.83,27.83,0,0,0,65.57,332H61.13l-1,1.41a16.77,16.77,0,0,1,2.63,1.75Zm4.44,3.5H61.06v3.84h6.13Z"/><path class="cls-6" d="M73.65,343.69a31.24,31.24,0,0,1-.27-4.38,38.12,38.12,0,0,1,.81-8.75l1.48.27q.47.2-.07.47a30,30,0,0,0-.74,8,20,20,0,0,0,.34,4.11Zm10.17-9a48.83,48.83,0,0,1,0,5.12,16.51,16.51,0,0,1,3.9,2.09l-.81,1.28a17.87,17.87,0,0,0-3.1-1.88,2.64,2.64,0,0,1-.74,2,3.84,3.84,0,0,1-4.71,0,2.36,2.36,0,0,1-.67-1.75,2,2,0,0,1,.54-1.48,3.29,3.29,0,0,1,2.42-.81,7.77,7.77,0,0,1,1.75.2,40.25,40.25,0,0,0,0-4.65l-5,.34v-1.41l4.85-.27Q82.2,331.51,82,330h1.41q.74.14.13.54.07,1.41.13,2.76l3.64-.2v1.41Zm-1.41,6.06a6.8,6.8,0,0,0-1.75-.34,1.86,1.86,0,0,0-1.35.4,1,1,0,0,0-.34.67,1.09,1.09,0,0,0,.27.81,1.92,1.92,0,0,0,1.41.47,1.69,1.69,0,0,0,1.35-.47,2.07,2.07,0,0,0,.4-1.55Z"/><polygon class="cls-6" points="99.03 334.61 89.67 334.61 89.67 333.12 100.58 333.12 100.58 342.75 99.03 342.75 99.03 342.01 89.67 342.01 89.67 340.53 99.03 340.53 99.03 334.61"/><path class="cls-6" d="M103.42,343.15a10.66,10.66,0,0,0,3.37-8v-3h1.41q.61.14.13.54v2.42a11.6,11.6,0,0,1-3.57,9Zm9-1.82a12.51,12.51,0,0,0,5.45-4.58l.94,1.28a14.5,14.5,0,0,1-6.46,5l-.54.27-1.08-.81.13-.34V331.37h1.41q.61.14.13.54Z"/><path class="cls-6" d="M123.28,335.21a42.34,42.34,0,0,1,6.66,2.56l-.81,1.55a31.44,31.44,0,0,0-5.86-2.42v7h-1.55V330.43h1.35q.81.07.2.54v4.24Z"/><path class="cls-6" d="M138.07,333.6l5.32-.2v4.17a12.47,12.47,0,0,1-.61,4.65,2.51,2.51,0,0,1-2.56,1.35h-1.62l-.2-1.68a13.36,13.36,0,0,0,1.75.13q1,0,1.28-.67a12.07,12.07,0,0,0,.4-3.77v-2.76l-3.84.13a11.36,11.36,0,0,1-5.32,9l-1.14-1.14q4.65-3.1,4.91-7.88l-4.78.13-.13-1.35,5-.13v-3.77h1.41q.74.14.13.54Zm5.39-1.14a26.62,26.62,0,0,0-2.09-2.22l.81-.81a26.62,26.62,0,0,1,2.09,2.22l-.81.81Zm1.88-.67a27.22,27.22,0,0,0-2.09-2.22l.81-.81a26.62,26.62,0,0,1,2.09,2.22l-.81.81Z"/><path class="cls-6" d="M153.16,334.34q.54.34-.13.61a22.91,22.91,0,0,1-3.9,7.74l-1.55-1a19,19,0,0,0,4-8.08Zm5.12-1.55a26.73,26.73,0,0,1,4.78,9l-1.82.61a24.29,24.29,0,0,0-4.38-8.48Zm1.35-2.69a27.84,27.84,0,0,1,2.15,2.29l-1,.74a15,15,0,0,0-2.09-2.29l.94-.74Zm1.62-1a29.22,29.22,0,0,1,2.15,2.09l-.88.81a24.28,24.28,0,0,0-2.15-2.15l.88-.74Z"/><path class="cls-6" d="M164.74,342.14a15.7,15.7,0,0,0,5.92-5,27.25,27.25,0,0,0-3.3-1.75l.81-1.48q1.48.67,3.37,1.75a22.93,22.93,0,0,0,1.62-5.25l1.62.54q.47.14-.07.4a25.85,25.85,0,0,1-1.82,5.18q1.62,1.08,2.63,1.88l-.88,1.55a28,28,0,0,0-2.56-2,20.7,20.7,0,0,1-5.92,5.45Z"/><path class="cls-6" d="M190.35,335.48q-3.57,7.41-12,7.81-.34.87-.67.13l-.54-1.75q8.75-.2,11.78-7.2Zm-9.49,0a28.11,28.11,0,0,0-3.43-2.76l1.14-1.41a24.62,24.62,0,0,1,3.57,2.89l-1.28,1.28Z"/><path class="cls-6" d="M195,335.21a42.34,42.34,0,0,1,6.66,2.56l-.81,1.55a31.44,31.44,0,0,0-5.86-2.42v7h-1.55V330.43h1.35q.81.07.2.54v4.24Z"/></g></svg>