<svg id="レイヤー_1" data-name="レイヤー 1" xmlns="http://www.w3.org/2000/svg" xmlns:xlink="http://www.w3.org/1999/xlink" viewBox="0 0 566.93 566.93"><defs><style>.cls-1{fill:none;}.cls-2{clip-path:url(#clip-path);}.cls-3,.cls-4,.cls-5,.cls-6{fill:#fff;}.cls-3{opacity:0;}.cls-4,.cls-6{font-size:24.87px;font-family:Calibri, Calibri;}.cls-6{letter-spacing:0em;}</style><clipPath id="clip-path"><rect class="cls-1" y="32.92" width="566.93" height="501.09"/></clipPath></defs><title>アートボード 1</title><g class="cls-2"><rect class="cls-3" y="32.92" width="566.93" height="501.09"/><rect x="20.12" y="87.05" width="457.93" height="3.66"/><rect x="20.12" y="252.37" width="210.68" height="2.19"/><rect x="20.12" y="341.62" width="457.93" height="3.66"/><rect x="20.12" y="175.93" width="457.93" height="3.66"/><rect x="20.12" y="428.67" width="457.93" height="3.66"/><rect x="20.12" y="527.79" width="457.93" height="3.66"/><text class="cls-4" transform="translate(15.29 63.91)">Beretta M92F</text><path class="cls-5" d="M37.54,152v2.14H22.19v1.65H20.25v-13.5H16.65v-2.14h3.59v-5.44h1.85q.78.1.1.58v4.86h4.18v-6h1.85q.78.1.1.58v5.44h4.76v-5.64h1.85q.78.1.1.58v5.05h3.59v2.14H35v7.29H33.07v-1.17H28.31v1.65H26.37v-7.77H22.19V152Zm-4.47-5.44v-4.27H28.31v4.27Z"/><path class="cls-5" d="M60.76,144.36H59.11v-.68H54.64q3,3.11,9.33,4.66l-.78,2.14a18.76,18.76,0,0,1-6.12-2.62v8.06H55.12v-8.45h1.36a15.05,15.05,0,0,1-3.79-3.3,16,16,0,0,1-3.4,3.21h1.26q.78.1.1.58v3a3.82,3.82,0,0,1-1.17,3.11q-1.85,1.55-5.93,2l-.87-1.94q3.79-.29,5.25-1.46a2.52,2.52,0,0,0,.78-2.14v-2.72a18.3,18.3,0,0,1-6.61,2.82l-.87-2.14q6.61-1.36,9.52-4.86H46.28v1.07H44.63v-10.1H60.76Zm-8.94-5.93V136.2H46.28v2.23Zm0,1.55H46.28v2.14h5.54Zm7.29-1.55V136.2H53.47v2.23Zm0,3.69V140H53.47v2.14Z"/><path class="cls-5" d="M76.4,134.16h1.85q.78.1.1.58v3.89H86.8v10.69H84.85v-.68H78.34v7.29H76.4v-7.29H70.09v1.26H68.14V138.63H76.4Zm0,12.63v-6.32H70.09v6.32Zm8.45,0v-6.32H78.34v6.32Z"/><path class="cls-5" d="M103.31,140.18q-1.65,9.72-4,12a3.72,3.72,0,0,1-2.62,1.26,3.28,3.28,0,0,1-2.43-.87,7.91,7.91,0,0,1-2.33-5.83,9.93,9.93,0,0,1,3-7.29,11,11,0,0,1,8.06-3.3,9.07,9.07,0,0,1,6.7,2.43,9.27,9.27,0,0,1,.19,12.92,17.43,17.43,0,0,1-5.05,3.21l-2-2a12.85,12.85,0,0,0,5.34-3,6.09,6.09,0,0,0,1.85-4.47,7,7,0,0,0-2-5.15q-2-2-6.41-1.85l1.75.87q1.17.49,0,1.07Zm-2.23-1.85a8.9,8.9,0,0,0-4.37,2.43A8.45,8.45,0,0,0,94.18,147a5,5,0,0,0,1.46,3.69,1.19,1.19,0,0,0,.87.29,1.89,1.89,0,0,0,1.26-.68q2.23-2.23,3.3-12Z"/><path class="cls-5" d="M121.87,148.15q-1.94,4.47-3.4,7.29.1.78-.49.39L116,154.37a37,37,0,0,0,4.08-7.19Zm-2-2.82a26.26,26.26,0,0,0-3.4-3l1.36-1.65a14.28,14.28,0,0,1,3.5,2.91ZM120.9,140a39.3,39.3,0,0,0-3.4-2.72l1.36-1.65a19.26,19.26,0,0,1,3.5,2.72Zm12.73,11.76-2.23-2.82,1.65-1.26a33.85,33.85,0,0,1,5.05,6.9l-2,1.36a18.6,18.6,0,0,0-1.36-2.33l-11.85,1.17q-.1.78-.49.39l-.78-2.62,3-.1a49.26,49.26,0,0,0,3.21-6.7h-5.54v-1.85h6.41v-4h-4.76V138h4.76v-3.89h2.14q1,.2.1.78V138h5.25v1.85H130.9v4H138v1.85h-7.58a54.5,54.5,0,0,1-3.59,6.61Z"/><path class="cls-5" d="M145.38,133.87h1.85q.78.1.1.58v1.94h3.11v1.85h-3.11v2.23h4.37v1.85h-1.94l-1,2.91h2.33v1.85h-3.79v2.23h3.3v1.85h-3.3v5h-1.94v-5H142v-1.85h3.4v-2.23h-3.89v-1.85h2.43l-1.07-2.91h-2.14v-1.85h4.66v-2.23H142V136.4h3.4Zm.29,11.37h1.46l.87-2.91h-3.4ZM163.74,151q-.2,4.66-1.94,4.66-.87,0-1.55-1.36a14.87,14.87,0,0,1-1.36-6.7v-7h-2.23v2.53q0,1.56-.19,3.69a28.47,28.47,0,0,1,2.23,2.53l-1.17,1.85a19.85,19.85,0,0,0-1.65-2.14,11.58,11.58,0,0,1-5.44,6.8L149.36,154a9.56,9.56,0,0,0,5-6.7L152.08,145l1-1.65,1.55,1.55q.1-1,.1-2.23v-2.14h-2.43v-1.85h2.43v-4.37h1.85q.78.1.1.58v3.79h4.18v9a12.37,12.37,0,0,0,.39,3.5c.19.71.36,1.07.49,1.07s.29-.81.29-2.43l1.75,1.07Z"/><path class="cls-5" d="M171.9,155.92H170v-10.3A15.1,15.1,0,0,1,167,148L165.78,146a21.81,21.81,0,0,0,7.09-7.09l1.55,1.26q.49.58-.19.49-1.17,1.56-2.33,3ZM173.26,136a21.73,21.73,0,0,1-5.54,5.15l-1.17-1.75a19,19,0,0,0,5.44-5.15l1.46,1.26q.49.58-.19.49Zm1.26,7.58v-1.85H188v1.85H184v9.91q0,2-1.65,2h-2.62l-.39-1.85h2.33a.34.34,0,0,0,.39-.39v-9.72Zm11.56-8.06v1.85H175.6v-1.85Z"/><path class="cls-5" d="M197,146.79q-1.07-1.17-1.46-1.55v10.88h-1.65V145.53a13.33,13.33,0,0,1-2.43,4.57l-1.17-1.85a25.2,25.2,0,0,0,3.5-7.87H191v-1.85h2.82v-4.66h1.55q.78.1.1.58v4.08h2.23v1.85h-2.23v2.72A8.56,8.56,0,0,1,198,145Zm8.94-5.15q0,2.33.19,4.37h2.62a4.31,4.31,0,0,0-.68-1.46l1.85-.49a6.87,6.87,0,0,1,1,1.94h2v1.55h-6.7a12.34,12.34,0,0,0,1,3.4,12.8,12.8,0,0,0,2.33-3l1.65.87q.58.39-.29.58a15.7,15.7,0,0,1-2.43,3,3.71,3.71,0,0,0,2.23,1.36q.58,0,.87-2l1.65,1q-.29,2.33-1.36,3-1.65,1.07-4.86-2.14a15.56,15.56,0,0,1-4.86,2.43l-.87-1.85a14.06,14.06,0,0,0,4.57-2.14,12.14,12.14,0,0,1-1.26-4.47H201V149a11.6,11.6,0,0,1,3.3,1.75l-1.17,1.75q-.78-.68-2.14-1.65a7.66,7.66,0,0,1-3.11,5.25l-1.55-1.55a5.54,5.54,0,0,0,2.72-5.34v-1.65h-1.07V146h6.51q-.1-1-.1-1.65l-1.36.49-.19-1-4,.58q-.2.68-.39.29l-.58-1.85h1l1.17-2-2-1.46.78-1.26.29.19,1.85-4,1.46,1c.26.26.19.39-.19.39l-2,3.3.68.49,1.55-2.62,1.26.87c.26.26.19.39-.19.39l-3,4.66,2-.19-.58-1.55,1.17-.49a10,10,0,0,1,1.26,3.11v-9.62h1.55q.78.1.1.58Zm5.34,1.55-4,.78q-.2.68-.39.29l-.58-1.75.87-.1,1.17-1.75L206,138.92l.78-1.17.39.29,1.94-3.69,1.36.87c.26.26.19.39-.19.39l-1.94,3,.87.58,1.55-2.43,1.26.68c.26.26.19.39-.19.39l-3.11,4.47,2.14-.29-.58-1.36,1.26-.29a10.85,10.85,0,0,1,1.46,3.4l-1.46.49Z"/><path class="cls-5" d="M218.54,156.12H216.6V134.36h8.84v8.26h-6.9Zm0-20.21v1.85h5v-1.85Zm5,5.15v-1.75h-5v1.75Zm2.23,5.54h-5.05V145h2.43a5.75,5.75,0,0,0-1-1.46l1.75-.58a8.58,8.58,0,0,1,1.26,2h3l.78-2.14,1.65.49q.58.39-.1.68l-.49,1h2.82v1.55h-5.44v2h6.12v1.55h-6.22l-.1.58a25.51,25.51,0,0,1,5.54,2.23l-1.26,1.85a49.67,49.67,0,0,0-4.66-2.62q-1.17,2.24-5.64,3.59l-.87-1.94q5-1.17,5.25-3.69h-5.44v-1.55h5.64Zm11.08,7.77a1.37,1.37,0,0,1-1.55,1.55H233.6l-.19-1.85h1.07a.34.34,0,0,0,.39-.39V142.61h-6.8v-8.26h8.74Zm-1.94-16.61v-1.85H230v1.85Zm0,3.3v-1.75H230v1.75Z"/><path class="cls-5" d="M246.23,141.64a51.79,51.79,0,0,1-.87-5.93h2q1,.2.19.78a24.67,24.67,0,0,0,.58,4.47l4.86-1.75.19-4.47h1.85q1.07.2.19.78l-.29,3.3a8.07,8.07,0,0,1,1.75-.19,5.79,5.79,0,0,1,4.27,1.46,5.4,5.4,0,0,1,1.55,4,4.75,4.75,0,0,1-1.17,3.5A5.13,5.13,0,0,1,257.6,149a7.15,7.15,0,0,1-5-1.65l.87-1.85A7.09,7.09,0,0,0,257.4,147a3.42,3.42,0,0,0,2.53-1,2.68,2.68,0,0,0,.58-1.94,3.42,3.42,0,0,0-1-2.53,3.81,3.81,0,0,0-2.82-1.07,10.4,10.4,0,0,0-3.89.78l-4.18,1.65a60.92,60.92,0,0,0,4.18,11.46l-2.23.87a83.06,83.06,0,0,1-3.89-11.56l-4.66,1.94L241,143.68l5.25-2Z"/><path class="cls-5" d="M284.22,138.24v1.55h-6.7v1.46H284v8h-6.51v1.65h10.1v1.55h-10.1V156h-1.94v-3.59h-10.2v-1.55h10.2v-1.65h-6.51v-8h6.51V139.8h-6.8v-1.55h6.8v-2h-7.68v3.3H266v-4.86H287v4.86h-1.94v-3.3h-7.58v2Zm-8.65,4.57H271v1.65h4.57ZM271,146v1.65h4.57V146Zm6.51-3.21v1.65h4.57v-1.65Zm4.57,3.21h-4.57v1.65h4.57Z"/><path class="cls-5" d="M291,134.74h5.34l.19-.39,1.75,1.46-.39.39-1.85,6.12a11.21,11.21,0,0,1,1.85,4.18q1,5.34-2.91,5.34h-.87l-.29-1.85h1.26q1,0,1.17-1.17.49-2.53-1.94-6.41l1.55-5.83H293v19.33H291Zm14.86,5.15-1.26,1.36a25,25,0,0,1,1.75,3.21,28.34,28.34,0,0,0,3.59-3.21l1.55,1.55c.06.32-.1.42-.49.29a29.31,29.31,0,0,1-4,2.82,17.76,17.76,0,0,0,5.83,5.73l-1.07,1.94a17.54,17.54,0,0,1-4.47-4.57q.49,4.18-.19,5.44a2.19,2.19,0,0,1-2,1.26H303l-.49-1.85h2q.87,0,1-.68a10.3,10.3,0,0,0,.1-3.69,17.7,17.7,0,0,1-7.87,5.64l-.78-1.94a18.54,18.54,0,0,0,8.36-6.12l-.39-1.36a15.66,15.66,0,0,1-5.54,3.89l-.78-1.85a15.07,15.07,0,0,0,5.64-3.89l-.87-1.55a18,18,0,0,1-4.86,2.62l-1-1.65a14.27,14.27,0,0,0,6-3.4H298V138h7.19a43.27,43.27,0,0,0,2.33-4.57l1.75.87q.39.39-.29.49a37.1,37.1,0,0,1-2,3.21H312v1.85Zm-4.18-5.83a20,20,0,0,1,2.14,2.72l-1.75,1.07a21.46,21.46,0,0,0-2-2.72l1.65-1.07Z"/><path class="cls-5" d="M334.74,138.63a16.76,16.76,0,0,0-5.34.68,10.93,10.93,0,0,0-4,2.62,6.44,6.44,0,0,0-1.85,4.76,5.13,5.13,0,0,0,1.46,3.79q1.94,1.94,7.48,2.14l-.78,2.14q-5.73-.29-8-2.53a7.4,7.4,0,0,1-2.23-5.44,8.42,8.42,0,0,1,3.59-7.19q-4.57.68-9.33,1.36l-.58-2.23q9.52-.68,19.14-2.33Zm-2.14,7.58a39.47,39.47,0,0,0-3.69-2.43l1-1.17q1.46.87,3.69,2.43l-1,1.17Zm1.94-2.33q-2.33-1.65-3.69-2.43l1-1.17q1.36.78,3.69,2.43l-1,1.17Z"/><path class="cls-5" d="M342,140.38q1,.1.1.58v15.16h-1.94V143.68a12.69,12.69,0,0,1-1.94,2.91l-1.26-2q3.4-3.5,4.57-10.59l2.14.58q.87.29-.19.68a39.76,39.76,0,0,1-1.46,5.15Zm10-6.61q.78.1.1.58v2.43H359v1.85h-6.9v2.14h5.54v7.38h-1.94v-.78h-3.59a9.68,9.68,0,0,1-.78,3.79q2.43,1.65,8.16,2.62l-.68,2.14a18,18,0,0,1-8.45-3.11,12.65,12.65,0,0,1-6.9,3.4l-.68-1.85a11,11,0,0,0,6.12-2.72,10.69,10.69,0,0,1-2.72-3.5l1.17-.78h-2.72v-6.61h5.54v-2.14h-6.61v-1.85h6.61v-3Zm-1.85,12v-3.5h-3.59v3.5Zm-.39,4.18a8.3,8.3,0,0,0,.39-2.62h-2.43a12.42,12.42,0,0,0,2,2.62Zm5.93-4.18v-3.5h-3.59v3.5Z"/><path class="cls-5" d="M381,147.86h-6.32v7.38h-1.94v-7.38H367a12.05,12.05,0,0,1-3,8.06l-1.55-1.55a9.85,9.85,0,0,0,2.62-6.8V135.13h18v18.56a1.37,1.37,0,0,1-1.55,1.55h-2.72l-.49-2.14h2.43a.34.34,0,0,0,.39-.39ZM367,137v3.59h5.83V137Zm0,5.44V146h5.83v-3.59Zm7.77-5.44v3.59H381V137Zm0,5.44V146H381v-3.59Z"/><path class="cls-5" d="M395.62,141q-4,.29-7.87.29l-.58-1.94q4.76,0,7.68-.19a29.45,29.45,0,0,1-1.36-5.05h2.14q.87.2.19.78a33.25,33.25,0,0,0,1.17,4.08,40,40,0,0,0,5.83-.87l.49,2.14q-2.82.39-5.54.58a17.88,17.88,0,0,0,5.93,6.41l-1.46,1.75a16.9,16.9,0,0,0-7.09-1.65q-3.21,0-4.47,1.26a2.23,2.23,0,0,0-.58,1.65A2.6,2.6,0,0,0,391,152q1.36,1.36,6.41,1.36h3.4l-.49,2.14h-3.69q-5.05,0-7.09-2a4.55,4.55,0,0,1-1.46-3.3,3.94,3.94,0,0,1,1.07-2.91q1.75-1.75,5.44-1.75t4.27.39a23,23,0,0,1-3.21-5Z"/><path class="cls-5" d="M421.05,142.81q.1-1.84-1.07-1.85-1.65,0-6.41,4.76v9.72h-1.94v-8l-4.27,5.34-1.55-1.55,3.89-4.57a27.28,27.28,0,0,0,1.94-2.82v-2.33L407.35,143l-.58-2,4.86-1.26V134h1.75q.87.2.19.78v4.37l1.07.58q.87.39-.19.87l-.87,1.85v.68q4.57-4.27,6.9-4.27,2.91,0,2.62,3.89l-.49,7.48q-.1,1.56,1.17,1.55a2.3,2.3,0,0,0,1.85-.68,9.56,9.56,0,0,0,1.46-2.53l1.65,1.36a11.48,11.48,0,0,1-1.85,2.72,4,4,0,0,1-2.91,1.26q-3.6,0-3.4-3.69l.49-7.38Z"/><path class="cls-5" d="M450.68,138.63a16.76,16.76,0,0,0-5.34.68,10.93,10.93,0,0,0-4,2.62,6.44,6.44,0,0,0-1.85,4.76,5.13,5.13,0,0,0,1.46,3.79q1.94,1.94,7.48,2.14l-.78,2.14q-5.73-.29-8-2.53a7.4,7.4,0,0,1-2.23-5.44,8.42,8.42,0,0,1,3.59-7.19q-4.57.68-9.33,1.36l-.58-2.23q9.52-.68,19.14-2.33Z"/><path class="cls-5" d="M462.89,149a12.5,12.5,0,0,1-1.85,3.4,3.7,3.7,0,0,1-2.72,1.65q-2.43,0-3.59-2.82-.68-1.65-.68-7.09,0-3.88.39-7.87l2,.49q1.17.29.1,1a60.94,60.94,0,0,0-.39,6.51,22.46,22.46,0,0,0,.49,5.64q.49,1.65,1.46,1.65T460,150a21.39,21.39,0,0,0,1-2.33l1.94,1.36Zm5.73-11.37A19.85,19.85,0,0,1,474,148.73l-2.62.68q-1.17-6.8-4.76-10.59l2-1.17Z"/><path class="cls-5" d="M489.12,153.4a4.37,4.37,0,0,0,2.62-1.26,4.2,4.2,0,0,0,1.17-3.11,4.6,4.6,0,0,0-1.26-3.4,5.45,5.45,0,0,0-4-1.26,8.37,8.37,0,0,0-5,1.26,27.18,27.18,0,0,0-4.27,4.18l-1.65-1.46a128.74,128.74,0,0,0,10.59-11.66q-3.21.39-6.41.68l-.68-2.23a65.27,65.27,0,0,0,8.45-.49l.87-.39,1.07,1.07q1.07,1-.49,1.26-2.91,3.3-5.83,6.51a15.23,15.23,0,0,1,3.4-.49q3.69,0,5.44,1.75a6.05,6.05,0,0,1,1.75,4.47,5.91,5.91,0,0,1-1.55,4.37,8,8,0,0,1-5.93,2.33q-3.4,0-5-1.55a4.11,4.11,0,0,1-1.26-3,2.8,2.8,0,0,1,.87-2,3.07,3.07,0,0,1,2.23-1,4,4,0,0,1,2.91,1.17,7.73,7.73,0,0,1,1.85,4.27Zm-1.94.29a5.87,5.87,0,0,0-1.17-3.4,2,2,0,0,0-1.36-.68,1.58,1.58,0,0,0-1.17.39,1.48,1.48,0,0,0-.49,1.07,2.32,2.32,0,0,0,.78,1.65,3.41,3.41,0,0,0,2.53,1Z"/><path class="cls-5" d="M16.75,236.4q10.2-4.27,15.45-12L34,225.91q.78.58-.68.87a33.51,33.51,0,0,1-4.76,5V245H26.37V233.58a42.48,42.48,0,0,1-8,4.76Z"/><path class="cls-5" d="M45.29,225.42a13.74,13.74,0,0,1-1,2.23h6.51l1.07-.39,1.26,1.26q.39.49-.39.78a29.49,29.49,0,0,1-2.33,7.09L52.77,238l-1.46,2.14-2.14-1.55a20.87,20.87,0,0,1-8.06,6.7l-2.23-1.65q5.83-2.43,8.36-6.41-2.43-1.55-4.76-2.82l1.17-1.75a49.57,49.57,0,0,1,5,2.53,17.59,17.59,0,0,0,1.75-5.34H43.25a27.38,27.38,0,0,1-4.57,6l-1.85-1.26a25.33,25.33,0,0,0,6.51-10.88l2.33,1q.78.39-.39.78Z"/><path class="cls-5" d="M59.84,237.08H57.61v-11h2.14q1,.1.1.78Zm10-2.14q0,7.29-6.8,10.49l-1.94-1.65q6.41-2.91,6.51-8.94v-9.72h2q1,.2.19.78Z"/><path class="cls-5" d="M85.3,233.58A12.41,12.41,0,0,1,79,245l-1.65-1.85q5.73-3.11,5.73-8.74v-4.18h2q.87.1.19.68v2.53a25.53,25.53,0,0,0,5.34-5.15l-15.84.58-.19-2.23,17.68-.49L93,226l1.46,1.75q.29.39-.49.29a42.45,42.45,0,0,1-7,7.09Z"/><path class="cls-5" d="M116,227.85v1.55h-6.7v1.46h6.51v8h-6.51v1.65h10.1V242h-10.1v3.59h-1.94V242H97.12v-1.55h10.2v-1.65h-6.51v-8h6.51v-1.46h-6.8v-1.55h6.8v-2H99.64v3.3H97.7v-4.86h21.08v4.86h-1.94v-3.3h-7.58v2Zm-8.65,4.57h-4.57v1.65h4.57Zm-4.57,3.21v1.65h4.57v-1.65Zm6.51-3.21v1.65h4.57v-1.65Zm4.57,3.21h-4.57v1.65h4.57Z"/><path class="cls-5" d="M123.16,225.52h19.53v1.85h-8.06v6h6.32v1.85h-6.32v6.9h8.74V244H122.48v-1.85h3.59V231.25h2.14q.78.1.1.58v10.3h4.08V227.37h-9.23Z"/><path class="cls-5" d="M163.57,239.9q1.26,2.33,2.23,2.33.39,0,.49-.58l.19-1.65,2.14,1-.39,2.33q-.29,1.65-1.75,1.65-2.91,0-5-4-1.94-3.79-2-10.69h-12v-2.14h11.85v-4.47h2.14q1,.2.1.78v3.69h6.8v2.14h-6.8q.39,6.8,1.94,9.62Zm-3.79,1.75q-5.44,1.17-11,2.14-.2.87-.68.19l-.49-2.43q2.43-.19,4.76-.58v-5.54h-3.89v-1.85h9.62v1.85h-3.79v5.25q2.23-.29,5.15-.87Zm4.47-17.49a11.43,11.43,0,0,1,2.62,1.85l-1.75,1.46a11.66,11.66,0,0,0-2.53-1.85Z"/><path class="cls-5" d="M176.49,223.58q.78.1.1.58v4.27h2.33v1.85h-2.33v3.89l2.14-.87.58,1.65-2.72,1.26v8.26a1.12,1.12,0,0,1-1.26,1.26h-2l-.19-1.85h1.17a.34.34,0,0,0,.39-.39v-6.61l-1.65.68q-.29.78-.58,0l-.68-1.85,2.91-.87v-4.57h-2.72v-1.85h2.72v-4.86Zm10.78,22.15h-1.94v-6a15.14,15.14,0,0,1-6.32,5l-.87-2a15.74,15.74,0,0,0,7.19-5.83H179.8v-1.85h5.54v-2.33h1.85q.78.1.1.58v1.75h6.12v1.85h-6a15,15,0,0,0,6.61,5.15l-.68,2.23q-4.66-2.33-6-4.57Zm5.25-20.11q.19.58-.78.1a107,107,0,0,1-12.14,1.17l-.39-1.85a109.17,109.17,0,0,0,12.24-1.36l1.07,1.94Zm-10.3,2.33a17.23,17.23,0,0,1,1.85,4l-2,.78a15.12,15.12,0,0,0-1.75-4Zm3.79,4a21.48,21.48,0,0,0-1.55-4.18l1.94-.58a11.12,11.12,0,0,1,1.65,4.08Zm7-4.18q.39.49-.39.58-1.17,2.91-1.94,4.47l-1.75-.87a49,49,0,0,0,1.94-5.15l2.14,1Z"/><path class="cls-5" d="M215.36,237.47H209v7.38H207.1v-7.38h-5.83a12.05,12.05,0,0,1-3,8.06L196.7,244a9.85,9.85,0,0,0,2.62-6.8V224.74h18V243.3a1.37,1.37,0,0,1-1.55,1.55H213l-.49-2.14H215a.34.34,0,0,0,.39-.39Zm-14.09-10.88v3.59h5.83v-3.59Zm0,5.44v3.59h5.83V232Zm7.77-5.44v3.59h6.32v-3.59Zm0,5.44v3.59h6.32V232Z"/><path class="cls-5" d="M243,237.47a14.79,14.79,0,0,1-7.29-4.47h-6.12q-1,1-1.55,1.46a31.93,31.93,0,0,0,7.58-.87l1.07,1.55q.19.49-.68.19l-2.14.39v1.65h5.44v1.55h-5.44v1.46h8.16v1.55h-8.16v2.33a1.37,1.37,0,0,1-1.55,1.55h-2.23l-.39-2.14h1.85a.34.34,0,0,0,.39-.39v-1.36h-8.55v-1.55H232v-1.46h-6.32v-1.55H232v-1.55l-4,.19-.29-1.17a19.85,19.85,0,0,1-5.44,3.11l-.87-1.75a14.62,14.62,0,0,0,5.73-3.21h-5.25v-1.85h6.61a7.4,7.4,0,0,0,1-1.55h-5.64v-1.85h6.41a39.77,39.77,0,0,0,1-4.37l1.94.29q.68.2-.1.49a22.38,22.38,0,0,1-.87,3.59h8.94v1.85h-5.44a4.44,4.44,0,0,0,1.07,1.55h6.41V233h-4.86a12.49,12.49,0,0,0,5.44,2.53Zm-15.93-13.41a6.83,6.83,0,0,1,1.65,2.53l-2.23,1a8.15,8.15,0,0,0-1.36-2.43Zm4.37,5.54a6.26,6.26,0,0,1-.87,1.55h4l-.87-1.55Zm7.48-4.66a14.7,14.7,0,0,1-1.36,2.62l-1.94-.78a27.47,27.47,0,0,0,1.46-3.21l2.14.87q.39.39-.29.49Z"/><path class="cls-5" d="M251.79,225.81a12.39,12.39,0,0,1-2,3.21h5.05v1.85h-2.53v2.33h3.4V235h-3.4v6.9l4.27-1.17v1.55q-5.25,1.75-8.65,2.62-.1.78-.49.39l-.58-2.23,3.5-.78V235h-3.4V233.2h3.4v-2.33h-1.94q-.58.58-1.36,1.26l-1.17-1.55a17.49,17.49,0,0,0,5.05-7.19l1.65.29c.39.13.36.29-.1.49l-.1.29a12.25,12.25,0,0,1,4.08,3.4l-.87,1.75a13.21,13.21,0,0,0-3.79-3.79Zm-3,10.3a11.36,11.36,0,0,1,.87,4.37L248,241a13.91,13.91,0,0,0-.78-4.47Zm6.7-.19q.49.29-.1.49a30.65,30.65,0,0,1-.87,4.18l-1.55-.29a24.94,24.94,0,0,0,.78-4.66Zm5.15,3.3q0,4.76-5.54,6.41l-.58-2q4.18-.78,4.18-4.37v-3.79h1.85q.78.1.1.58ZM265,229.5a16.3,16.3,0,0,1,3.5,4.47l-1.75.87a3.41,3.41,0,0,0-.68-1.07q-5.15.58-8.55.87-.29.87-.58,0l-.49-2.14h2.14a24.55,24.55,0,0,0,1.46-3.59h-3.11v-1.85H261v-3.89h1.85q.78.1.1.58v3.3h5v1.85h-5.83a26.1,26.1,0,0,1-1.75,3.59l4.86-.19a10,10,0,0,0-1.55-2Zm1.26,13.8q.78,0,.87-2.62l1.94.68q-.29,3.79-2.43,3.79h-2q-1.65,0-1.65-1.75v-8h1.85q.78.1.1.58v6.61c0,.45.16.68.49.68Z"/><path class="cls-5" d="M17.23,332.81V315.13h6.41v16.13H19.18v1.55ZM21.7,322V317H19.18V322Zm0,7.38v-5.54H19.18v5.54Zm1,3.79q6.41-1.65,7.38-7.38H24.23V324h1.85v-6.9h4.18V313H32.1q.78.1.1.58v3.5h4.37V324h2v1.85H32.39a11.37,11.37,0,0,0,7,6.8l-1.07,2a13.34,13.34,0,0,1-6.9-6.8,11.14,11.14,0,0,1-7.68,7.38Zm7.58-14.28H28V324h2.23ZM34.62,324v-5.05H32.2V324Z"/><path class="cls-5" d="M63.38,316.2H53.28v2.91h4.66v10.59H47V319.12h4.66V316.2H41.72v-1.85H63.38Zm-3.11,15.64v-13.5h1.85q.78.1.1.58v15.93H60.27v-1.17H44.63V335H42.69V318.24h1.85q.78.1.1.58v13Zm-8.65-8.36v-2.82h-3v2.82Zm0,4.66V325h-3v3.11Zm4.66-4.66v-2.82h-3v2.82Zm0,1.55h-3v3.11h3Z"/><path class="cls-5" d="M72.13,320.86a51.79,51.79,0,0,1-.87-5.93h2q1,.2.19.78a24.67,24.67,0,0,0,.58,4.47l4.86-1.75.19-4.47H81q1.07.2.19.78l-.29,3.3a8.07,8.07,0,0,1,1.75-.19,5.79,5.79,0,0,1,4.27,1.46,5.4,5.4,0,0,1,1.55,4,4.75,4.75,0,0,1-1.17,3.5,5.13,5.13,0,0,1-3.79,1.46,7.15,7.15,0,0,1-5-1.65l.87-1.85a7.09,7.09,0,0,0,3.89,1.46,3.42,3.42,0,0,0,2.53-1,2.68,2.68,0,0,0,.58-1.94,3.42,3.42,0,0,0-1-2.53,3.81,3.81,0,0,0-2.82-1.07,10.4,10.4,0,0,0-3.89.78l-4.18,1.65a60.92,60.92,0,0,0,4.18,11.46l-2.23.87a83.06,83.06,0,0,1-3.89-11.56l-4.66,1.94-1.07-1.94,5.25-2Z"/><path class="cls-5" d="M111.67,319.6v2.14H106a20,20,0,0,1-7.29,13.12l-2.23-1.26q6.7-5.34,7.09-11.85H96.22A17.06,17.06,0,0,1,93,326.21l-1.94-1.07a20.4,20.4,0,0,0,5.44-11.08l2.43.58q.78.2-.19.78a31.88,31.88,0,0,1-1.46,4.18Zm-4.37-5.93a42.85,42.85,0,0,1,3.11,3.5l-1.26,1.07q-1.75-2-3.11-3.5Zm2.72-1.07a40.78,40.78,0,0,1,3.21,3.4l-1.46,1.07a34.1,34.1,0,0,0-2.91-3.4Z"/><rect class="cls-5" x="114.85" y="323" width="21.67" height="2.14"/><path class="cls-5" d="M138.72,329.61l4.08-.1a80.9,80.9,0,0,0,5.34-15.45l2.23.78q.87.58-.19.87a83.82,83.82,0,0,1-5,13.6l10.1-.49q-2-2.72-3.21-4l1.94-1.36a56.45,56.45,0,0,1,6.32,8.45l-2.14,1.46-1.55-2.53-16.32,1.26q-.58,1-.87,0Z"/><path class="cls-5" d="M167,319.8a32,32,0,0,1-3.89.19l-.29-2q2.43,0,4.86-.19.49-1.75,1.17-4.66l1.75.58q1,.39,0,.78l-.87,3.11a22.39,22.39,0,0,0,3.4-.68l.49,2a30.1,30.1,0,0,1-4.47.68,68.54,68.54,0,0,1-4.57,10.78l-1.94-1A52.47,52.47,0,0,0,167,319.8Zm10.4,2.33q1.07.2.19.78v5.64a32.83,32.83,0,0,1,5.05,2.14l-1.17,1.85a20.7,20.7,0,0,0-3.89-1.85,5.2,5.2,0,0,1-1.26,3,4.33,4.33,0,0,1-3.21,1.17q-2.72,0-3.79-1.07a3.42,3.42,0,0,1-1-2.53,3.07,3.07,0,0,1,1-2.23,5,5,0,0,1,3.69-1.26,9.46,9.46,0,0,1,2.62.29v-5.93Zm-1.75,7.77a8.3,8.3,0,0,0-2.62-.39,3,3,0,0,0-2.14.58,1.59,1.59,0,0,0-.49,1.17,1.44,1.44,0,0,0,.39,1.07,2.84,2.84,0,0,0,2,.58,2.68,2.68,0,0,0,1.94-.58,3.28,3.28,0,0,0,.87-2.43Zm.68-13q2.72.87,6.51,2.33l-.87,2a60.7,60.7,0,0,0-6.41-2.43Z"/><path class="cls-5" d="M201.69,322.52q-9.23,1.65-12.34,4.76a3.16,3.16,0,0,0-1.07,2.23,2.14,2.14,0,0,0,.68,1.55,4.12,4.12,0,0,0,2.82.68h9.33v2.14h-9.42q-3.21,0-4.47-1.26a4,4,0,0,1-1.26-2.91A5,5,0,0,1,187.5,326a19.23,19.23,0,0,1,3.89-2.72,10.06,10.06,0,0,1-.68-3.21l-.39-6.41h2q1.07.2.19.78l.19,4.66a9,9,0,0,0,.68,3.3,59.23,59.23,0,0,1,7.29-2.43Zm-2.53-7.58q2.23,1.36,3.79,2.43l-1,1.26q-1.75-1.17-3.79-2.43l1-1.26ZM201.3,313l3.79,2.43-1,1.26q-2-1.36-3.79-2.43l1-1.26Z"/><path class="cls-5" d="M212.36,319v16.32h-1.65V319h-1.55V329.8h-1.94V317.46h3.5V313h1.55q.78.1.1.58v3.89h3.5V328q0,1.46-1.07,1.46h-1.65l-.19-1.55h.58a.34.34,0,0,0,.39-.39V319Zm4-4.76h13v1.85h-13Zm.78,10.69h11.56v9.91H227v-.78h-8.26v1.26h-1.65Zm1.07-7.38h9.33v5.64h-9.33Zm.58,8.94v2.14h3.3V326.5Zm0,6h3.3v-2.33h-3.3Zm1.07-13.41v2.53h6v-2.53Zm3.89,7.38v2.14H227V326.5Zm0,3.69v2.33H227v-2.33Z"/><path class="cls-5" d="M244.62,316.2h8.65v2.14H236.36v7.09a17.67,17.67,0,0,1-2.53,9.81l-1.55-1.75a15.2,15.2,0,0,0,2.14-8.55V316.2h8v-3.4h2.14q.78.1.1.58Zm-7.77,15.45,2.33-.1a99,99,0,0,0,3.79-12l2.62.87q1.07.39-.49.78l-3.69,10.3,8.45-.78q-1.94-3-3.21-4.66l1.75-1.17a35.22,35.22,0,0,1,5.54,8.55l-2,1.46-1.17-2.33-12,1.46q-.58,1.17-1.07,0Z"/><path class="cls-5" d="M266.48,328.25a12.5,12.5,0,0,1-1.85,3.4,3.7,3.7,0,0,1-2.72,1.65q-2.43,0-3.59-2.82-.68-1.65-.68-7.09,0-3.88.39-7.87l2,.49q1.17.29.1,1a60.94,60.94,0,0,0-.39,6.51,22.46,22.46,0,0,0,.49,5.64q.49,1.65,1.46,1.65t1.85-1.55a21.39,21.39,0,0,0,1-2.33l1.94,1.36Zm5.73-11.37A19.85,19.85,0,0,1,277.55,328l-2.62.68q-1.17-6.8-4.76-10.59l2-1.17Z"/><path class="cls-5" d="M289.3,315.13a26,26,0,0,1-7.48,9.23l-1.55-1.85a20.47,20.47,0,0,0,7.38-9l1.85,1.17q.58.39-.19.49Zm8.74,7.68-.39,7.87q-.2,4.08-2.82,4.08h-2.91l-.29-2.14h2.43q1.26,0,1.36-1.65l.39-6.32h-5.34l-.1.78q-.68,5.34-7.68,9.81l-1.46-1.85q6.31-3.59,7-7.58l.19-1.17h-3.69v-1.85Zm3.3,1.55q-5.34-3.11-7.87-10.2l1.85-.78a15.94,15.94,0,0,0,7.48,8.94Z"/><path class="cls-5" d="M317.19,332.72l-10.88,1.65q-.1.68-.49.29l-.58-2.43,5.15-.39v-3H306V327h4.37v-2.62h-4.27V314H316.6v10.4h-4.27V327h4.37v1.85h-4.37v2.82l4.76-.58Zm-6.8-17.2h-2.33v2.91h2.33Zm0,7.29V320h-2.33v2.82Zm4.27-4.37v-2.91h-2.33v2.91Zm0,4.37V320h-2.33v2.82Zm8.26,5a31.87,31.87,0,0,0,2.43-3.69h-2.72v9.62q0,1.65-1.55,1.65h-1.75l-.39-1.85h1.46a.26.26,0,0,0,.29-.29v-9.13h-3.21v-1.85h8.45l.49-.49L328,323.1q.39.39-.29.49a27.89,27.89,0,0,1-3.11,5.25ZM320.1,317a13.75,13.75,0,0,1,1.65,1.17l1.75-2.23h-5.93v-1.85h7.29l.29-.29,1.46,1.46q.39.39-.29.49l-3.4,3.4,1.07,1.07-1.36,1.36a25.32,25.32,0,0,0-3.69-3.4L320.1,317Z"/><path class="cls-5" d="M334.67,319.6q1,.1.1.58v15.16h-1.94V322.9a12.69,12.69,0,0,1-1.94,2.91l-1.26-2q3.4-3.5,4.57-10.59l2.14.58q.87.29-.19.68a39.76,39.76,0,0,1-1.46,5.15Zm10-6.61q.78.1.1.58V316h6.9v1.85h-6.9V320h5.54v7.38h-1.94v-.78h-3.59a9.68,9.68,0,0,1-.78,3.79q2.43,1.65,8.16,2.62l-.68,2.14A18,18,0,0,1,343,332a12.65,12.65,0,0,1-6.9,3.4l-.68-1.85a11,11,0,0,0,6.12-2.72,10.69,10.69,0,0,1-2.72-3.5l1.17-.78H337.3V320h5.54v-2.14h-6.61V316h6.61v-3Zm-1.85,12v-3.5h-3.59V325Zm-.39,4.18a8.3,8.3,0,0,0,.39-2.62h-2.43a12.42,12.42,0,0,0,2,2.62Zm5.93-4.18v-3.5h-3.59V325Z"/><path class="cls-5" d="M360.42,326.69l-4,4.76-1.55-1.55,2.62-2.91a24.37,24.37,0,0,0,2.91-4v-2.43l-4.57,1.17-.58-2,5.15-1v-5.64h1.75q1.07.2.19.78v4l1.46.87q1,.49-.29,1.07l-1.17,1.65v1.17q4.27-3.4,8.16-3.4a6.05,6.05,0,0,1,4.47,1.55,6.45,6.45,0,0,1,1.85,4.76,6.31,6.31,0,0,1-1.65,4.66,17.46,17.46,0,0,1-6.32,3.69l-1-1.94a14.87,14.87,0,0,0,5.34-3,4.93,4.93,0,0,0,0-6.8,3.94,3.94,0,0,0-2.91-1.07q-3.5,0-8,4.08v10.2h-1.94Z"/><path class="cls-5" d="M394.72,322q.1-1.84-1.07-1.85-1.65,0-6.41,4.76v9.72h-1.94v-8L381,332l-1.55-1.55,3.89-4.57a27.28,27.28,0,0,0,1.94-2.82v-2.33L381,322.22l-.58-2,4.86-1.26v-5.73H387q.87.2.19.78v4.37l1.07.58q.87.39-.19.87l-.87,1.85v.68q4.57-4.27,6.9-4.27,2.91,0,2.62,3.89l-.49,7.48q-.1,1.56,1.17,1.55a2.3,2.3,0,0,0,1.85-.68,9.56,9.56,0,0,0,1.46-2.53l1.65,1.36a11.48,11.48,0,0,1-1.85,2.72,4,4,0,0,1-2.91,1.26q-3.6,0-3.4-3.69l.49-7.38Z"/><path class="cls-5" d="M424.35,317.85a16.76,16.76,0,0,0-5.34.68,10.93,10.93,0,0,0-4,2.62,6.44,6.44,0,0,0-1.85,4.76,5.13,5.13,0,0,0,1.46,3.79q1.94,1.94,7.48,2.14l-.78,2.14q-5.73-.29-8-2.53a7.4,7.4,0,0,1-2.23-5.44,8.42,8.42,0,0,1,3.59-7.19q-4.57.68-9.33,1.36l-.58-2.23q9.52-.68,19.14-2.33Z"/><path class="cls-5" d="M436.56,328.25a12.5,12.5,0,0,1-1.85,3.4A3.7,3.7,0,0,1,432,333.3q-2.43,0-3.59-2.82-.68-1.65-.68-7.09,0-3.88.39-7.87l2,.49q1.17.29.1,1a60.94,60.94,0,0,0-.39,6.51,22.46,22.46,0,0,0,.49,5.64q.49,1.65,1.46,1.65t1.85-1.55a21.39,21.39,0,0,0,1-2.33l1.94,1.36Zm5.73-11.37A19.85,19.85,0,0,1,447.63,328l-2.62.68q-1.17-6.8-4.76-10.59l2-1.17Z"/><path class="cls-5" d="M462.78,332.62a4.37,4.37,0,0,0,2.62-1.26,4.2,4.2,0,0,0,1.17-3.11,4.6,4.6,0,0,0-1.26-3.4,5.45,5.45,0,0,0-4-1.26,8.37,8.37,0,0,0-5,1.26,27.18,27.18,0,0,0-4.27,4.18l-1.65-1.46A128.74,128.74,0,0,0,461,315.91q-3.21.39-6.41.68l-.68-2.23a65.27,65.27,0,0,0,8.45-.49l.87-.39,1.07,1.07q1.07,1-.49,1.26-2.91,3.3-5.83,6.51a15.23,15.23,0,0,1,3.4-.49q3.69,0,5.44,1.75a6.05,6.05,0,0,1,1.75,4.47,5.91,5.91,0,0,1-1.55,4.37,8,8,0,0,1-5.93,2.33q-3.4,0-5-1.55a4.11,4.11,0,0,1-1.26-3,2.8,2.8,0,0,1,.87-2,3.07,3.07,0,0,1,2.23-1,4,4,0,0,1,2.91,1.17,7.73,7.73,0,0,1,1.85,4.27Zm-1.94.29a5.87,5.87,0,0,0-1.17-3.4,2,2,0,0,0-1.36-.68,1.58,1.58,0,0,0-1.17.39,1.48,1.48,0,0,0-.49,1.07,2.32,2.32,0,0,0,.78,1.65,3.41,3.41,0,0,0,2.53,1Z"/><path class="cls-5" d="M490,316.59a35,35,0,0,1-7.68,8.06h9v10.1h-1.94v-.87h-8.84V335h-1.94v-7.87a35.14,35.14,0,0,1-5.34,2.53l-.78-2.23a24.85,24.85,0,0,0,8.84-4.66,18.25,18.25,0,0,0-3.21-2.53,20,20,0,0,1-4.27,3.11l-1.26-1.55a15,15,0,0,0,7.48-8.65l2.14.49q.39.39-.29.49l-.39.87h6.51l.19-.39,2,1.46q.39.39-.29.49Zm-7,4.86a40.17,40.17,0,0,0,4.08-4.57h-6.41l-1.46,2a24.21,24.21,0,0,1,3.79,2.53Zm6.41,5.05h-8.84V332h8.84Z"/><path class="cls-5" d="M502.33,315.42a12.39,12.39,0,0,1-2,3.21h5.05v1.85h-2.53v2.33h3.4v1.85h-3.4v6.9l4.27-1.17v1.55q-5.25,1.75-8.65,2.62-.1.78-.49.39l-.58-2.23,3.5-.78v-7.29h-3.4v-1.85h3.4v-2.33h-1.94q-.58.58-1.36,1.26l-1.17-1.55a17.49,17.49,0,0,0,5.05-7.19l1.65.29c.39.13.36.29-.1.49l-.1.29a12.25,12.25,0,0,1,4.08,3.4l-.87,1.75a13.21,13.21,0,0,0-3.79-3.79Zm-3,10.3a11.36,11.36,0,0,1,.87,4.37l-1.65.49a13.91,13.91,0,0,0-.78-4.47Zm6.7-.19q.49.29-.1.49a30.65,30.65,0,0,1-.87,4.18l-1.55-.29a24.94,24.94,0,0,0,.78-4.66Zm5.15,3.3q0,4.76-5.54,6.41l-.58-2q4.18-.78,4.18-4.37V325h1.85q.78.1.1.58Zm4.37-9.72a16.3,16.3,0,0,1,3.5,4.47l-1.75.87a3.41,3.41,0,0,0-.68-1.07q-5.15.58-8.55.87-.29.87-.58,0l-.49-2.14h2.14a24.55,24.55,0,0,0,1.46-3.59h-3.11v-1.85h4.08V312.8h1.85q.78.1.1.58v3.3h5v1.85h-5.83a26.1,26.1,0,0,1-1.75,3.59l4.86-.19a10,10,0,0,0-1.55-2Zm1.26,13.8q.78,0,.87-2.62l1.94.68q-.29,3.79-2.43,3.79h-2q-1.65,0-1.65-1.75v-8h1.85q.78.1.1.58v6.61c0,.45.16.68.49.68Z"/><path class="cls-5" d="M37.83,421.07a26.73,26.73,0,0,1-9.23-9.42v6.12h4v1.85h-4v5.25H26.66v-5.25H22.87v-1.85h3.79v-6.12a21.73,21.73,0,0,1-9.13,9.91l-1.07-2A20.41,20.41,0,0,0,25.88,409H17.43v-1.85h9.23V402.8H28.5q.78.1.1.58v3.79h9.33V409H29.28a26.78,26.78,0,0,0,9.62,9.81Z"/><path class="cls-5" d="M50.07,421.84a9.94,9.94,0,0,0,4.27.58q1.26-.29,1.85-3.59H41.42V417H56.48l.19-2.33H48l-.39,1-1.94-.49a61.13,61.13,0,0,0,1.94-8.55l1.85.19q.78.1.1.58l-.29,1.17H59.2v1.85H49q-.29,1.17-.58,2.43H58.91L58.62,417h4.86v1.85H58.33q-1,5.44-3.3,5.83a9,9,0,0,1-4.66-.49l-.29-2.33Zm10.4-13.31v-2.91h-16v2.91H42.2v-4.76H62.7v4.76Z"/><path class="cls-5" d="M66.59,419H88.35v1.85h-7A21.87,21.87,0,0,0,88,423.3l-1,1.85a20.76,20.76,0,0,1-7.29-3.21l1.17-1.07h-6.7L75.33,422q.39.68-.39.49a29.53,29.53,0,0,1-6.9,2.72l-.78-2q4.57-.87,6.32-2.33h-7Zm.78-14.57h9v-1.94h1.94q.68.2,0,.49v1.46h9v1.85h-9v1.26h5.93v10.2H70.67v-10.2H76.4V406.3h-9Zm15,6v-1.36H72.61v1.36Zm0,2.82V412H72.61v1.26Zm0,1.55H72.61v1.36h9.72Z"/><path class="cls-5" d="M93.11,423.3a45.09,45.09,0,0,1-.39-6.32,55,55,0,0,1,1.17-12.63l2.14.39q.68.29-.1.68-1.07,3.4-1.07,11.56a28.89,28.89,0,0,0,.49,5.93Zm14.67-13a70.47,70.47,0,0,1,0,7.38,23.82,23.82,0,0,1,5.64,3l-1.17,1.85a25.79,25.79,0,0,0-4.47-2.72,3.81,3.81,0,0,1-1.07,2.82,5.54,5.54,0,0,1-6.8,0,3.41,3.41,0,0,1-1-2.53,2.89,2.89,0,0,1,.78-2.14,4.75,4.75,0,0,1,3.5-1.17,11.21,11.21,0,0,1,2.53.29,58.09,58.09,0,0,0,0-6.7l-7.19.49v-2l7-.39q-.1-2.72-.39-4.86h2q1.07.2.19.78.1,2,.19,4l5.25-.29v2Zm-2,8.74a9.81,9.81,0,0,0-2.53-.49,2.68,2.68,0,0,0-1.94.58,1.4,1.4,0,0,0-.49,1,1.58,1.58,0,0,0,.39,1.17,2.77,2.77,0,0,0,2,.68,2.44,2.44,0,0,0,1.94-.68,3,3,0,0,0,.58-2.23Z"/><text class="cls-4" transform="translate(114.78 422.72) scale(0.89 1)">BIOHAZARD</text><path class="cls-5" d="M241.89,403.29h2q1.07.2.19.78l.19,4.66A9,9,0,0,0,245,412a59.23,59.23,0,0,1,7.29-2.43l1,2.53q-9.23,1.65-12.34,4.76a3.16,3.16,0,0,0-1.07,2.23,2.14,2.14,0,0,0,.68,1.55,4.12,4.12,0,0,0,2.82.68h9.33v2.14h-9.42q-3.21,0-4.47-1.26a4,4,0,0,1-1.26-2.91,5,5,0,0,1,1.55-3.69A19.23,19.23,0,0,1,243,412.9a10.06,10.06,0,0,1-.68-3.21Z"/><path class="cls-5" d="M265.38,417.86a12.5,12.5,0,0,1-1.85,3.4,3.7,3.7,0,0,1-2.72,1.65q-2.43,0-3.59-2.82-.68-1.65-.68-7.09,0-3.88.39-7.87l2,.49q1.17.29.1,1a60.94,60.94,0,0,0-.39,6.51,22.46,22.46,0,0,0,.49,5.64q.49,1.65,1.46,1.65t1.85-1.55a21.39,21.39,0,0,0,1-2.33l1.94,1.36Zm5.73-11.37a19.85,19.85,0,0,1,5.34,11.08l-2.62.68q-1.17-6.8-4.76-10.59l2-1.17Z"/><path class="cls-5" d="M283.06,422.72a12.28,12.28,0,0,0,6.22-3.11,6,6,0,0,0,1.85-4.37,3.68,3.68,0,0,0-1-2.72,2.73,2.73,0,0,0-2.23-.78,41.56,41.56,0,0,0-7.77,1.94l-1.07-2.53q3.69-.68,6.9-1.46a12.06,12.06,0,0,1,2.53-.39,4.74,4.74,0,0,1,3.5,1.36,6.05,6.05,0,0,1,1.55,4.47,8.72,8.72,0,0,1-2.62,6.41,13.77,13.77,0,0,1-6.32,3.4l-1.55-2.23Zm8.06-15.93a90.58,90.58,0,0,1-9.42-1.55l.58-2.43a75.2,75.2,0,0,0,9.33,1.65Z"/><path class="cls-5" d="M317.23,409.21v2.14h-5.64a20,20,0,0,1-7.29,13.12l-2.23-1.26q6.7-5.34,7.09-11.85h-7.38a17.06,17.06,0,0,1-3.21,4.47l-1.94-1.07a20.4,20.4,0,0,0,5.44-11.08l2.43.58q.78.2-.19.78a31.88,31.88,0,0,1-1.46,4.18Zm-4.37-5.93a42.85,42.85,0,0,1,3.11,3.5l-1.26,1.07q-1.75-2-3.11-3.5Zm2.72-1.07a40.78,40.78,0,0,1,3.21,3.4l-1.46,1.07a34.1,34.1,0,0,0-2.91-3.4Z"/><rect class="cls-5" x="320.4" y="412.61" width="21.67" height="2.14"/><path class="cls-5" d="M344.27,419.22l4.08-.1a80.9,80.9,0,0,0,5.34-15.45l2.23.78q.87.58-.19.87a83.82,83.82,0,0,1-5,13.6l10.1-.49q-2-2.72-3.21-4l1.94-1.36a56.45,56.45,0,0,1,6.32,8.45L363.8,423l-1.55-2.53-16.32,1.26q-.58,1-.87,0Z"/><path class="cls-5" d="M388.14,407.46a16.76,16.76,0,0,0-5.34.68,10.93,10.93,0,0,0-4,2.62,6.44,6.44,0,0,0-1.85,4.76,5.13,5.13,0,0,0,1.46,3.79q1.94,1.94,7.48,2.14l-.78,2.14q-5.73-.29-8-2.53a7.4,7.4,0,0,1-2.23-5.44,8.42,8.42,0,0,1,3.59-7.19q-4.57.68-9.33,1.36l-.58-2.23q9.52-.68,19.14-2.33ZM386,415a39.47,39.47,0,0,0-3.69-2.43l1-1.17q1.46.87,3.69,2.43L386,415Zm1.94-2.33q-2.33-1.65-3.69-2.43l1-1.17q1.36.78,3.69,2.43l-1,1.17Z"/><path class="cls-5" d="M395.39,409.21q1,.1.1.58V425h-1.94V412.52a12.69,12.69,0,0,1-1.94,2.91l-1.26-2q3.4-3.5,4.57-10.59l2.14.58q.87.29-.19.68a39.76,39.76,0,0,1-1.46,5.15Zm10-6.61q.78.1.1.58v2.43h6.9v1.85h-6.9v2.14H411V417h-1.94v-.78h-3.59a9.68,9.68,0,0,1-.78,3.79q2.43,1.65,8.16,2.62l-.68,2.14a18,18,0,0,1-8.45-3.11,12.65,12.65,0,0,1-6.9,3.4l-.68-1.85a11,11,0,0,0,6.12-2.72,10.69,10.69,0,0,1-2.72-3.5l1.17-.78H398V409.6h5.54v-2.14h-6.61v-1.85h6.61v-3Zm-1.85,12v-3.5H400v3.5Zm-.39,4.18a8.3,8.3,0,0,0,.39-2.62h-2.43a12.42,12.42,0,0,0,2,2.62Zm5.93-4.18v-3.5h-3.59v3.5Z"/><path class="cls-5" d="M434.45,416.69h-6.32v7.38h-1.94v-7.38h-5.83a12.05,12.05,0,0,1-3,8.06l-1.55-1.55a9.85,9.85,0,0,0,2.62-6.8V404h18v18.56a1.37,1.37,0,0,1-1.55,1.55h-2.72l-.49-2.14h2.43a.34.34,0,0,0,.39-.39Zm-14.09-10.88v3.59h5.83v-3.59Zm0,5.44v3.59h5.83v-3.59Zm7.77-5.44v3.59h6.32v-3.59Zm0,5.44v3.59h6.32v-3.59Z"/><path class="cls-5" d="M449,409.8q-4,.29-7.87.29l-.58-1.94q4.76,0,7.68-.19a29.45,29.45,0,0,1-1.36-5.05H449q.87.2.19.78a33.25,33.25,0,0,0,1.17,4.08,40,40,0,0,0,5.83-.87l.49,2.14q-2.82.39-5.54.58a17.88,17.88,0,0,0,5.93,6.41l-1.46,1.75a16.9,16.9,0,0,0-7.09-1.65q-3.21,0-4.47,1.26a2.23,2.23,0,0,0-.58,1.65,2.6,2.6,0,0,0,.87,1.85q1.36,1.36,6.41,1.36h3.4l-.49,2.14H450q-5.05,0-7.09-2a4.55,4.55,0,0,1-1.46-3.3,3.94,3.94,0,0,1,1.07-2.91q1.75-1.75,5.44-1.75t4.27.39a23,23,0,0,1-3.21-5Z"/><path class="cls-5" d="M474.45,411.64q.1-1.84-1.07-1.85-1.65,0-6.41,4.76v9.72H465v-8l-4.27,5.34-1.55-1.55,3.89-4.57a27.28,27.28,0,0,0,1.94-2.82v-2.33l-4.27,1.46-.58-2,4.86-1.26V402.8h1.75q.87.2.19.78v4.37l1.07.58q.87.39-.19.87l-.87,1.85v.68q4.57-4.27,6.9-4.27,2.91,0,2.62,3.89L476,419q-.1,1.56,1.17,1.55a2.3,2.3,0,0,0,1.85-.68,9.56,9.56,0,0,0,1.46-2.53l1.65,1.36a11.48,11.48,0,0,1-1.85,2.72,4,4,0,0,1-2.91,1.26q-3.6,0-3.4-3.69l.49-7.38Z"/><path class="cls-5" d="M504.08,407.46a16.76,16.76,0,0,0-5.34.68,10.93,10.93,0,0,0-4,2.62,6.44,6.44,0,0,0-1.85,4.76,5.13,5.13,0,0,0,1.46,3.79q1.94,1.94,7.48,2.14l-.78,2.14q-5.73-.29-8-2.53a7.4,7.4,0,0,1-2.23-5.44,8.42,8.42,0,0,1,3.59-7.19q-4.57.68-9.33,1.36l-.58-2.23q9.52-.68,19.14-2.33Z"/><path class="cls-5" d="M516.29,417.86a12.5,12.5,0,0,1-1.85,3.4,3.7,3.7,0,0,1-2.72,1.65q-2.43,0-3.59-2.82-.68-1.65-.68-7.09,0-3.88.39-7.87l2,.49q1.17.29.1,1a60.94,60.94,0,0,0-.39,6.51,22.46,22.46,0,0,0,.49,5.64q.49,1.65,1.46,1.65t1.85-1.55a21.39,21.39,0,0,0,1-2.33l1.94,1.36ZM522,406.49a19.85,19.85,0,0,1,5.34,11.08l-2.62.68q-1.17-6.8-4.76-10.59l2-1.17Z"/><path class="cls-5" d="M542.52,422.23a4.37,4.37,0,0,0,2.62-1.26,4.2,4.2,0,0,0,1.17-3.11,4.6,4.6,0,0,0-1.26-3.4,5.45,5.45,0,0,0-4-1.26,8.37,8.37,0,0,0-5,1.26,27.18,27.18,0,0,0-4.27,4.18l-1.65-1.46a128.74,128.74,0,0,0,10.59-11.66q-3.21.39-6.41.68l-.68-2.23a65.27,65.27,0,0,0,8.45-.49l.87-.39,1.07,1.07q1.07,1-.49,1.26-2.91,3.3-5.83,6.51a15.23,15.23,0,0,1,3.4-.49q3.69,0,5.44,1.75a6.05,6.05,0,0,1,1.75,4.47,5.91,5.91,0,0,1-1.55,4.37,8,8,0,0,1-5.93,2.33q-3.4,0-5-1.55a4.11,4.11,0,0,1-1.26-3,2.8,2.8,0,0,1,.87-2,3.07,3.07,0,0,1,2.23-1,4,4,0,0,1,2.91,1.17,7.73,7.73,0,0,1,1.85,4.27Zm-1.94.29a5.87,5.87,0,0,0-1.17-3.4,2,2,0,0,0-1.36-.68,1.58,1.58,0,0,0-1.17.39,1.48,1.48,0,0,0-.49,1.07,2.32,2.32,0,0,0,.78,1.65,3.41,3.41,0,0,0,2.53,1Z"/><path class="cls-5" d="M31.32,500.09l-5.54.19a16.39,16.39,0,0,1-7.68,13l-1.65-1.65q6.7-4.47,7.09-11.37l-6.9.19-.19-1.94,7.19-.19V492.9h2q1.07.2.19.78v4.66l7.68-.29v6q0,4.76-.87,6.7T29,512.72H26.66l-.29-2.43a19.28,19.28,0,0,0,2.53.19q1.46,0,1.85-1a17.42,17.42,0,0,0,.58-5.44Z"/><path class="cls-5" d="M48.79,503.49A78,78,0,0,1,57,510.87l-1.94,1.65a70.29,70.29,0,0,0-7.87-7.19,47.28,47.28,0,0,1-8.65,7.29L36.74,511Q47,504.27,50,497.56l-10.59.68-.29-2.33,11.27-.49,1.17-.29,1.55,1.55q.68.68-.39.87a58.56,58.56,0,0,1-3.89,5.93Z"/><path class="cls-5" d="M67.61,494.26a13.74,13.74,0,0,1-1,2.23h6.51l1.07-.39,1.26,1.26q.39.49-.39.78a29.49,29.49,0,0,1-2.33,7.09l2.33,1.55-1.46,2.14-2.14-1.55a20.87,20.87,0,0,1-8.06,6.7l-2.23-1.65Q67,510,69.55,506q-2.43-1.55-4.76-2.82L66,501.45a49.57,49.57,0,0,1,5,2.53,17.59,17.59,0,0,0,1.75-5.34H65.57a27.38,27.38,0,0,1-4.57,6l-1.85-1.26a25.33,25.33,0,0,0,6.51-10.88l2.33,1q.78.39-.39.78Z"/><path class="cls-5" d="M78.37,508.83l4.08-.1a80.9,80.9,0,0,0,5.34-15.45l2.23.78q.87.58-.19.87a83.82,83.82,0,0,1-5,13.6l10.1-.49q-2-2.72-3.21-4l1.94-1.36a56.45,56.45,0,0,1,6.32,8.45l-2.14,1.46-1.55-2.53L80,511.36q-.58,1-.87,0Z"/><path class="cls-5" d="M107.17,498.82q1,.1.1.58v15.16h-1.94V502.13a12.69,12.69,0,0,1-1.94,2.91l-1.26-2q3.4-3.5,4.57-10.59l2.14.58q.87.29-.19.68a39.76,39.76,0,0,1-1.46,5.15Zm10-6.61q.78.1.1.58v2.43h6.9v1.85h-6.9v2.14h5.54v7.38h-1.94v-.78h-3.59a9.68,9.68,0,0,1-.78,3.79q2.43,1.65,8.16,2.62l-.68,2.14a18,18,0,0,1-8.45-3.11,12.65,12.65,0,0,1-6.9,3.4l-.68-1.85a11,11,0,0,0,6.12-2.72,10.69,10.69,0,0,1-2.72-3.5l1.17-.78h-2.72v-6.61h5.54v-2.14h-6.61v-1.85h6.61v-3Zm-1.85,12v-3.5h-3.59v3.5Zm-.39,4.18a8.3,8.3,0,0,0,.39-2.62H112.9a12.42,12.42,0,0,0,2,2.62Zm5.93-4.18v-3.5h-3.59v3.5Z"/><path class="cls-5" d="M146.23,506.31h-6.32v7.38H138v-7.38h-5.83a12.05,12.05,0,0,1-3,8.06l-1.55-1.55a9.85,9.85,0,0,0,2.62-6.8V493.58h18v18.56a1.37,1.37,0,0,1-1.55,1.55H143.9l-.49-2.14h2.43a.34.34,0,0,0,.39-.39Zm-14.09-10.88V499H138v-3.59Zm0,5.44v3.59H138v-3.59Zm7.77-5.44V499h6.32v-3.59Zm0,5.44v3.59h6.32v-3.59Z"/><path class="cls-5" d="M164.39,498.63q-1.65,9.72-4,12a3.72,3.72,0,0,1-2.62,1.26,3.28,3.28,0,0,1-2.43-.87,7.91,7.91,0,0,1-2.33-5.83,9.93,9.93,0,0,1,3-7.29,11,11,0,0,1,8.06-3.3,9.07,9.07,0,0,1,6.7,2.43A9.27,9.27,0,0,1,171,510a17.43,17.43,0,0,1-5.05,3.21l-2-2a12.85,12.85,0,0,0,5.34-3,6.09,6.09,0,0,0,1.85-4.47,7,7,0,0,0-2-5.15q-2-2-6.41-1.85l1.75.87q1.17.49,0,1.07Zm-2.23-1.85a8.9,8.9,0,0,0-4.37,2.43,8.45,8.45,0,0,0-2.53,6.22,5,5,0,0,0,1.46,3.69,1.19,1.19,0,0,0,.87.29,1.89,1.89,0,0,0,1.26-.68q2.23-2.23,3.3-12Z"/><text class="cls-6" transform="translate(175.86 512.33)">M9</text><path class="cls-5" d="M230.49,497.08a16.76,16.76,0,0,0-5.34.68,10.93,10.93,0,0,0-4,2.62,6.44,6.44,0,0,0-1.85,4.76,5.13,5.13,0,0,0,1.46,3.79q1.94,1.94,7.48,2.14l-.78,2.14q-5.73-.29-8-2.53a7.4,7.4,0,0,1-2.23-5.44,8.42,8.42,0,0,1,3.59-7.19q-4.57.68-9.33,1.36l-.58-2.23q9.52-.68,19.14-2.33Zm-2.14,7.58a39.47,39.47,0,0,0-3.69-2.43l1-1.17q1.46.87,3.69,2.43l-1,1.17Zm1.94-2.33q-2.33-1.65-3.69-2.43l1-1.17q1.36.78,3.69,2.43l-1,1.17Z"/><path class="cls-5" d="M244.65,512.43q4-.39,5.34-1.75a4.07,4.07,0,0,0,1.07-3,4.36,4.36,0,0,0-1.07-3.21,5.44,5.44,0,0,0-3.5-1.46q-1.56,5.05-3.5,7.09l.58,1.26-1.85,1.36-.49-1.07q-2.53,2.14-4.27,2.14a3,3,0,0,1-2.14-1,3.93,3.93,0,0,1-1.07-2.91,7.52,7.52,0,0,1,2.23-5.54,12,12,0,0,1,2.82-2.14l.19-3.69-4.08.19-.39-2.14,4.57-.1q.1-2.23.29-4.27h1.85q1,.2.19.78-.2,1.75-.29,3.4a72.88,72.88,0,0,0,8-.87l.39,2.14q-4.08.49-8.45.68l-.19,3.11a13.32,13.32,0,0,1,3.79-.58l.29-1.55,1.85.29q.87.2.19.78l-.1.68a7.37,7.37,0,0,1,4.66,1.94,6.45,6.45,0,0,1,1.85,4.76,5.91,5.91,0,0,1-1.65,4.37q-1.75,1.75-5.83,2.43l-1.26-2.14Zm-5.54-8.16a7.15,7.15,0,0,0-1.75,1.36,6.18,6.18,0,0,0-1.75,4.57,1.86,1.86,0,0,0,.58,1.36,1.12,1.12,0,0,0,.78.19,5.09,5.09,0,0,0,3.3-1.85,23,23,0,0,1-1.17-5.64Zm1.94-1a15.4,15.4,0,0,0,1,4.86,13.89,13.89,0,0,0,2.23-5.34,10.1,10.1,0,0,0-3.21.49Z"/><path class="cls-5" d="M268.93,511.84a4.37,4.37,0,0,0,2.62-1.26,4.2,4.2,0,0,0,1.17-3.11,4.6,4.6,0,0,0-1.26-3.4,5.45,5.45,0,0,0-4-1.26,8.37,8.37,0,0,0-5,1.26,27.18,27.18,0,0,0-4.27,4.18l-1.65-1.46a128.74,128.74,0,0,0,10.59-11.66q-3.21.39-6.41.68l-.68-2.23a65.27,65.27,0,0,0,8.45-.49l.87-.39,1.07,1.07q1.07,1-.49,1.26-2.91,3.3-5.83,6.51a15.23,15.23,0,0,1,3.4-.49q3.69,0,5.44,1.75a6.05,6.05,0,0,1,1.75,4.47,5.91,5.91,0,0,1-1.55,4.37,8,8,0,0,1-5.93,2.33q-3.4,0-5-1.55a4.11,4.11,0,0,1-1.26-3,2.8,2.8,0,0,1,.87-2,3.07,3.07,0,0,1,2.23-1,4,4,0,0,1,2.91,1.17,7.73,7.73,0,0,1,1.85,4.27Zm-1.94.29a5.87,5.87,0,0,0-1.17-3.4,2,2,0,0,0-1.36-.68,1.58,1.58,0,0,0-1.17.39,1.48,1.48,0,0,0-.49,1.07,2.32,2.32,0,0,0,.78,1.65,3.41,3.41,0,0,0,2.53,1Z"/></g></svg>