<svg id="レイヤー_1" data-name="レイヤー 1" xmlns="http://www.w3.org/2000/svg" xmlns:xlink="http://www.w3.org/1999/xlink" viewBox="0 0 481.89 481.89"><defs><style>.cls-1{fill:none;}.cls-2{clip-path:url(#clip-path);}.cls-3,.cls-4,.cls-5,.cls-6{fill:#fff;}.cls-3{opacity:0;}.cls-4,.cls-6{font-size:24.25px;font-family:Calibri, Calibri;}.cls-4{letter-spacing:0.01em;}.cls-6{letter-spacing:0em;}</style><clipPath id="clip-path"><rect class="cls-1" x="0.18" y="14.27" width="481.53" height="467.62"/></clipPath></defs><title>アートボード 1</title><g class="cls-2"><rect class="cls-3" x="0.18" y="14.27" width="481.53" height="467.62"/><rect x="3.75" y="48.51" width="446.58" height="3.57"/><rect x="7.67" y="229.35" width="446.58" height="3.92"/><rect x="7.67" y="315.67" width="446.58" height="3.57"/><rect x="3.75" y="135.19" width="446.58" height="3.57"/><rect x="3.75" y="381.66" width="446.58" height="3.57"/><rect x="3.75" y="478.32" width="446.58" height="3.57"/><text class="cls-4" transform="translate(15.04 46.58)">VR</text><path class="cls-5" d="M55,27q.76.1.09.57V29h9v1.8h-9v1.42h7v7.86H60.24v-.38H59v1.89h6.06v1.8H59v4a1.17,1.17,0,0,1-1.33,1.33H55.22L54.94,47h1.8a.34.34,0,0,0,.38-.38V43.45H50.58a16.85,16.85,0,0,1,2.75,2.27L51.9,47.24a20.66,20.66,0,0,0-3.32-2.75l1-1H43.47v-1.8H57.11V39.76H48.3v.57H46.41V32.27h6.82V30.85H44.32V29h8.91V27ZM48.3,33.79v1.42h4.93V33.79Zm0,2.94v1.52h4.93V36.72Zm6.82-1.52h5.12V33.79H55.12Zm0,1.52v1.52h5.12V36.72Z"/><path class="cls-5" d="M86,40.7H79.85v7.2H78V40.7H72.27a11.75,11.75,0,0,1-2.94,7.86l-1.52-1.52a9.6,9.6,0,0,0,2.56-6.63V28.29H87.91v18.1a1.34,1.34,0,0,1-1.52,1.52H83.74l-.47-2.08h2.37a.34.34,0,0,0,.38-.38ZM72.27,30.09V33.6H78V30.09Zm0,5.31V38.9H78V35.4Zm7.58-5.31V33.6H86V30.09Zm0,5.31V38.9H86V35.4Z"/><text class="cls-6" transform="translate(106.71 46.58)">GUN</text><path class="cls-5" d="M16.74,116.34a23.68,23.68,0,0,0,6.92-1.89l1.42,1.71q.09.66-.57.28l-2.27.66v3.22h3.32v1.8H22.24v1.8a20.53,20.53,0,0,1,3.6,2.65l-1.23,2.08a17.78,17.78,0,0,0-2.37-2.46v9.95H20.34v-9.76a21.63,21.63,0,0,1-2.94,4.45L16,129.42a18.88,18.88,0,0,0,4.26-7.3h-3.6v-1.8h3.7v-2.84a25,25,0,0,1-2.84.38Zm15.63,5.87a12.77,12.77,0,0,0,6,11.27L37,135.58A13.12,13.12,0,0,1,31.71,128a11.9,11.9,0,0,1-6.35,8l-1.42-1.71q6.54-3.6,6.54-10.23v-9.47h1.8q.76.1.09.57v7.11ZM28.58,119q.95.28,0,.66A31.38,31.38,0,0,1,28,126l-2.08-.38A27.14,27.14,0,0,0,26.5,119Zm9.1,0q.38.38-.28.47A25.47,25.47,0,0,1,35.79,126l-1.89-.76a21.28,21.28,0,0,0,1.71-6.73Z"/><path class="cls-5" d="M61.84,135.58q-6.25-1.23-9.57-4.64v5.21H50.66v-5.4a17.7,17.7,0,0,1-9.38,5.12L40.71,134A17,17,0,0,0,49,130.08h-8v-1.52h9.57V127H46.59v.47H45V122H41.09v-1.52H45v-1.42h1.52q.76.1.09.57v.85h3.6v-1.71H51.7q.76.1.09.57v1.14h4V119h1.52q.76.1.09.57v.95h4.17V122H57.39v2.37h-7.2V122h-3.6v3.51H60.32V127H52.27v1.52h9.38v1.52h-8q2.56,2.37,8.72,3.6Zm-6.35-19.33h6.06v1.52H55.49V119H53.88v-1.23h-5V119H47.25v-1.23H41.09v-1.52h6.16v-1.89h1.52q.76.1.09.57v1.33h5v-2H55.4q.76.1.09.57Zm.28,7V122h-4v1.23Z"/><path class="cls-5" d="M76.43,133.87a.34.34,0,0,0,.38-.38V128H73.3v.66H71.41v-9.19h4.45l.38-2.46H68.76v9q0,6.16-2.27,9.66l-1.61-1.61a14.48,14.48,0,0,0,2-8.05v-10.8H85.81V117h-7.3l-.66,2.46h5.87v9.1H81.83V128H78.71v6.44A1.34,1.34,0,0,1,77.19,136H75.29l-.47-2.08Zm-1.71-3.6q.76.66-.19.47a17.33,17.33,0,0,1-4.17,4.36L69,133.4A16.56,16.56,0,0,0,73,129Zm-1.42-7.39h8.53V121H73.3Zm0,3.6h8.53V124.4H73.3Zm10.8,8.15a26.92,26.92,0,0,0-3.79-4.36l1.42-1.33a18.69,18.69,0,0,1,4.17,4.17Z"/><path class="cls-5" d="M108.17,122.31q-2.84,4.17-4.83,6.82l-1.8-1.23a63.56,63.56,0,0,0,3.88-5.31L97.56,124v7a1.17,1.17,0,0,0,1.33,1.33h8.72l-.28,2.08h-9q-2.94,0-2.94-3v-7l-5.68,1.14-.76-2.18,6.44-1.14V116h2q.85.19.19.76v5.21l8.53-1.42.76-.47,1.71,1.71q.38.48-.38.57Z"/><path class="cls-5" d="M120.24,120.32l7.48-.28v5.87q0,4.64-.85,6.54t-3.6,1.89H121l-.28-2.37a18.81,18.81,0,0,0,2.46.19q1.42,0,1.8-.95a17,17,0,0,0,.57-5.31V122l-5.4.19a16,16,0,0,1-7.48,12.7l-1.61-1.61q6.54-4.36,6.92-11.09l-6.73.19-.19-1.89,7-.19V115h2q1,.19.19.76Zm7.58-1.61a37.46,37.46,0,0,0-2.94-3.13l1.14-1.14a37.46,37.46,0,0,1,2.94,3.13l-1.14,1.14Zm2.65-.95a38.3,38.3,0,0,0-2.94-3.13l1.14-1.14a37.46,37.46,0,0,1,2.94,3.13l-1.14,1.14Z"/><path class="cls-5" d="M152.85,119.09a16.34,16.34,0,0,0-5.21.66,10.66,10.66,0,0,0-3.88,2.56A6.28,6.28,0,0,0,142,127a5,5,0,0,0,1.42,3.7q1.89,1.9,7.3,2.08l-.76,2.08q-5.59-.28-7.77-2.46A7.22,7.22,0,0,1,140,127a8.21,8.21,0,0,1,3.51-7q-4.45.66-9.1,1.33l-.57-2.18q9.28-.66,18.66-2.27Zm-2.08,7.39a38.49,38.49,0,0,0-3.6-2.37l.95-1.14q1.42.85,3.6,2.37l-.95,1.14Zm1.89-2.27q-2.27-1.61-3.6-2.37l.95-1.14q1.33.76,3.6,2.37l-.95,1.14Z"/><path class="cls-5" d="M156.61,116.44h19v1.8h-7.86v5.87h6.16v1.8h-6.16v6.73h8.53v1.8H155.95v-1.8h3.51V122h2.08q.76.1.09.57v10h4v-14.4h-9Z"/><path class="cls-5" d="M196,130.46q1.23,2.27,2.18,2.27.38,0,.47-.57l.19-1.61,2.08.95-.38,2.27q-.28,1.61-1.71,1.61-2.84,0-4.83-3.88-1.9-3.7-2-10.42H180.39V119h11.56v-4.36H194q.95.19.09.76V119h6.63v2.08h-6.63q.38,6.63,1.89,9.38Zm-3.7,1.71q-5.31,1.14-10.71,2.08-.19.85-.66.19l-.47-2.37q2.37-.19,4.64-.57v-5.4h-3.79v-1.8h9.38v1.8H187v5.12q2.18-.28,5-.85Zm4.36-17.05a11.15,11.15,0,0,1,2.56,1.8l-1.71,1.42a11.37,11.37,0,0,0-2.46-1.8Z"/><path class="cls-5" d="M208.62,114.54q.76.1.09.57v4.17H211v1.8h-2.27v3.79l2.08-.85.57,1.61-2.65,1.23v8.05a1.09,1.09,0,0,1-1.23,1.23h-2l-.19-1.8h1.14a.34.34,0,0,0,.38-.38v-6.44l-1.61.66q-.28.76-.57,0l-.66-1.8,2.84-.85v-4.45h-2.65v-1.8h2.65v-4.74Zm10.52,21.6h-1.89v-5.87a14.76,14.76,0,0,1-6.16,4.83l-.85-2a15.35,15.35,0,0,0,7-5.68h-5.4v-1.8h5.4v-2.27H219q.76.1.09.57v1.71h6v1.8h-5.87a14.63,14.63,0,0,0,6.44,5l-.66,2.18q-4.55-2.27-5.87-4.45Zm5.12-19.61q.19.57-.76.09a104.3,104.3,0,0,1-11.84,1.14l-.38-1.8a106.47,106.47,0,0,0,11.94-1.33l1,1.89Zm-10,2.27a16.8,16.8,0,0,1,1.8,3.88l-2,.76a14.75,14.75,0,0,0-1.71-3.88Zm3.7,3.88a21,21,0,0,0-1.52-4.07l1.89-.57a10.84,10.84,0,0,1,1.61,4Zm6.82-4.07q.38.48-.38.57-1.14,2.84-1.89,4.36l-1.71-.85a47.82,47.82,0,0,0,1.89-5l2.08.95Z"/><path class="cls-5" d="M246.52,128.09h-6.16v7.2h-1.89v-7.2h-5.68a11.75,11.75,0,0,1-2.94,7.86l-1.52-1.52a9.6,9.6,0,0,0,2.56-6.63V115.68h17.53v18.1a1.34,1.34,0,0,1-1.52,1.52h-2.65l-.47-2.08h2.37a.34.34,0,0,0,.38-.38Zm-13.74-10.61V121h5.68v-3.51Zm0,5.31v3.51h5.68v-3.51Zm7.58-5.31V121h6.16v-3.51Zm0,5.31v3.51h6.16v-3.51Z"/><path class="cls-5" d="M260.73,121.36q-3.89.28-7.67.28l-.57-1.89q4.64,0,7.48-.19a28.72,28.72,0,0,1-1.33-4.93h2.08q.85.19.19.76a32.42,32.42,0,0,0,1.14,4,39,39,0,0,0,5.68-.85l.47,2.08q-2.75.38-5.4.57a17.44,17.44,0,0,0,5.78,6.25l-1.42,1.71a16.48,16.48,0,0,0-6.92-1.61q-3.13,0-4.36,1.23a2.18,2.18,0,0,0-.57,1.61,2.54,2.54,0,0,0,.85,1.8q1.33,1.33,6.25,1.33h3.32l-.47,2.08h-3.6q-4.93,0-6.92-2a4.44,4.44,0,0,1-1.42-3.22,3.84,3.84,0,0,1,1-2.84q1.71-1.71,5.31-1.71t4.17.38a22.4,22.4,0,0,1-3.13-4.83Z"/><path class="cls-5" d="M285.54,123.16q.09-1.8-1-1.8-1.61,0-6.25,4.64v9.47h-1.89v-7.77l-4.17,5.21-1.52-1.52,3.79-4.45a26.6,26.6,0,0,0,1.89-2.75v-2.27l-4.17,1.42-.57-2,4.74-1.23v-5.59h1.71q.85.19.19.76v4.26l1,.57q.85.38-.19.85l-.85,1.8v.66q4.45-4.17,6.73-4.17,2.84,0,2.56,3.79l-.47,7.3q-.1,1.52,1.14,1.52a2.25,2.25,0,0,0,1.8-.66,9.32,9.32,0,0,0,1.42-2.46l1.61,1.33a11.2,11.2,0,0,1-1.8,2.65,3.9,3.9,0,0,1-2.84,1.23q-3.51,0-3.32-3.6l.47-7.2Z"/><path class="cls-5" d="M314.43,119.09a16.34,16.34,0,0,0-5.21.66,10.66,10.66,0,0,0-3.88,2.56,6.28,6.28,0,0,0-1.8,4.64,5,5,0,0,0,1.42,3.7q1.89,1.9,7.3,2.08l-.76,2.08q-5.59-.28-7.77-2.46a7.22,7.22,0,0,1-2.18-5.31,8.21,8.21,0,0,1,3.51-7q-4.45.66-9.1,1.33l-.57-2.18q9.28-.66,18.66-2.27Z"/><path class="cls-5" d="M326.34,129.23a12.19,12.19,0,0,1-1.8,3.32,3.61,3.61,0,0,1-2.65,1.61q-2.37,0-3.51-2.75-.66-1.61-.66-6.92,0-3.79.38-7.67l2,.47q1.14.28.09.95a59.43,59.43,0,0,0-.38,6.35,21.9,21.9,0,0,0,.47,5.5q.47,1.61,1.42,1.61t1.8-1.52a20.86,20.86,0,0,0,.95-2.27l1.89,1.33Zm5.59-11.09a19.36,19.36,0,0,1,5.21,10.8l-2.56.66q-1.14-6.63-4.64-10.33l2-1.14Z"/><path class="cls-5" d="M351.91,133.49a4.26,4.26,0,0,0,2.56-1.23,4.1,4.1,0,0,0,1.14-3,4.49,4.49,0,0,0-1.23-3.32,5.32,5.32,0,0,0-3.88-1.23,8.16,8.16,0,0,0-4.83,1.23,26.51,26.51,0,0,0-4.17,4.07l-1.61-1.42a125.55,125.55,0,0,0,10.33-11.37q-3.13.38-6.25.66l-.66-2.18a63.65,63.65,0,0,0,8.24-.47l.85-.38,1,1q1,.95-.47,1.23-2.84,3.22-5.68,6.35a14.85,14.85,0,0,1,3.32-.47q3.6,0,5.31,1.71A5.9,5.9,0,0,1,357.6,129a5.77,5.77,0,0,1-1.52,4.26,7.83,7.83,0,0,1-5.78,2.27q-3.32,0-4.83-1.52a4,4,0,0,1-1.23-2.94,2.73,2.73,0,0,1,.85-2,3,3,0,0,1,2.18-.95,3.86,3.86,0,0,1,2.84,1.14,7.54,7.54,0,0,1,1.8,4.17Zm-1.89.28a5.73,5.73,0,0,0-1.14-3.32,1.92,1.92,0,0,0-1.33-.66,1.55,1.55,0,0,0-1.14.38,1.45,1.45,0,0,0-.47,1,2.26,2.26,0,0,0,.76,1.61,3.33,3.33,0,0,0,2.46.95Z"/><text class="cls-4" transform="translate(359.6 133.97)">VR</text><path class="cls-5" d="M399.59,114.35q.76.1.09.57v1.52h9v1.8h-9v1.42h7v7.86H404.8v-.38h-1.23V129h6.06v1.8h-6.06v4a1.17,1.17,0,0,1-1.33,1.33h-2.46l-.28-1.8h1.8a.34.34,0,0,0,.38-.38v-3.13h-6.54a16.85,16.85,0,0,1,2.75,2.27l-1.42,1.52a20.66,20.66,0,0,0-3.32-2.75l1-1H388V129h13.64v-1.89h-8.81v.57H391v-8.05h6.82v-1.42h-8.91v-1.8h8.91v-2.08Zm-6.73,6.82v1.42h4.93v-1.42Zm0,2.94v1.52h4.93v-1.52Zm6.82-1.52h5.12v-1.42h-5.12Zm0,1.52v1.52h5.12v-1.52Z"/><path class="cls-5" d="M430.57,128.09h-6.16v7.2h-1.89v-7.2h-5.68A11.75,11.75,0,0,1,413.9,136l-1.52-1.52a9.6,9.6,0,0,0,2.56-6.63V115.68h17.53v18.1a1.34,1.34,0,0,1-1.52,1.52H428.3l-.47-2.08h2.37a.34.34,0,0,0,.38-.38Zm-13.74-10.61V121h5.68v-3.51Zm0,5.31v3.51h5.68v-3.51Zm7.58-5.31V121h6.16v-3.51Zm0,5.31v3.51h6.16v-3.51Z"/><path class="cls-5" d="M448.29,120.61q-1.61,9.48-3.88,11.75a3.63,3.63,0,0,1-2.56,1.23,3.2,3.2,0,0,1-2.37-.85,7.71,7.71,0,0,1-2.27-5.68,9.68,9.68,0,0,1,2.94-7.11,10.7,10.7,0,0,1,7.86-3.22,8.84,8.84,0,0,1,6.54,2.37,9,9,0,0,1,.19,12.6,17,17,0,0,1-4.93,3.13l-2-2a12.54,12.54,0,0,0,5.21-2.94,5.94,5.94,0,0,0,1.8-4.36,6.81,6.81,0,0,0-2-5q-2-2-6.25-1.8l1.71.85q1.14.48,0,1Zm-2.18-1.8a8.68,8.68,0,0,0-4.26,2.37,8.24,8.24,0,0,0-2.46,6.06,4.88,4.88,0,0,0,1.42,3.6,1.16,1.16,0,0,0,.85.28,1.85,1.85,0,0,0,1.23-.66q2.18-2.18,3.22-11.65Z"/><path class="cls-5" d="M26.6,211.69a12.1,12.1,0,0,1-6.16,11.18l-1.61-1.8q5.59-3,5.59-8.53v-4.07h2q.85.1.19.66v2.46a24.89,24.89,0,0,0,5.21-5l-15.44.57L16.17,205l17.24-.47.66-.19L35.5,206q.28.38-.47.28a41.4,41.4,0,0,1-6.82,6.92Z"/><path class="cls-5" d="M53.94,208.75h5.59v2.08H54v1.8q0,7.11-7.48,10.14L45,221.07q6.82-2.27,6.82-8.24v-2H45.61l.09,4.83H43.62l-.09-4.83H38.22v-2.08h5.31l-.09-5h2q.95.1.09.95l.09,4.07h6.16V203h2.08q.95.1.09.95Z"/><path class="cls-5" d="M62.56,221.17a15,15,0,0,0,4.74-11.27v-4.26h2q.85.19.19.76v3.41q0,8-5,12.6Zm12.7-2.56a17.61,17.61,0,0,0,7.67-6.44l1.33,1.8a20.41,20.41,0,0,1-9.1,7.11l-.76.38-1.52-1.14.19-.47V204.58h2q.85.19.19.76Z"/><path class="cls-5" d="M90.51,210a59.59,59.59,0,0,1,9.38,3.6l-1.14,2.18a44.25,44.25,0,0,0-8.24-3.41v9.85H88.34V203.26h1.89q1.14.1.28.76v6Z"/><path class="cls-5" d="M106.21,221.45q9.19-2.37,10.33-9.95h-14.4v-2.08h14.5l.85-.28,1.71,1q.57.48-.19.85-1.52,9.48-11.09,12.32Zm10.71-15.35H103.84V204h13.07Z"/><path class="cls-5" d="M122,214.44q9.95-4.17,15.06-11.75l1.8,1.52q.76.57-.66.85a32.68,32.68,0,0,1-4.64,4.83v12.89h-2.18V211.69a41.43,41.43,0,0,1-7.77,4.64Z"/><path class="cls-5" d="M143.62,219.84q11.84-2.75,12.41-12.6H141.82v-2.08h14.4l1.33-.28,1,.95q-.38,12.6-13.26,16.11Z"/><path class="cls-5" d="M161.72,221.17a15,15,0,0,0,4.74-11.27v-4.26h2q.85.19.19.76v3.41q0,8-5,12.6Zm12.7-2.56a17.61,17.61,0,0,0,7.67-6.44l1.33,1.8a20.41,20.41,0,0,1-9.1,7.11l-.76.38-1.52-1.14.19-.47V204.58h2q.85.19.19.76Z"/><path class="cls-5" d="M192.52,217.75a3.43,3.43,0,1,1-2.37-.95,3.22,3.22,0,0,1,2.37.95Zm-.85,3.88a2.06,2.06,0,1,0-1.52.66,2.09,2.09,0,0,0,1.52-.66Z"/><path class="cls-5" d="M210.65,219.08a15.57,15.57,0,0,0-2.75-2.18v6.44H206v-6.06a10.92,10.92,0,0,1-3.22,3.7l-1.33-1.61a13.41,13.41,0,0,0,4.45-5.31h-3.79v-1.8H206V209.8h1.8q.76.1.09.57v1.89h3.22v1.8h-3.22v.85a16.58,16.58,0,0,1,3.88,2.37Zm-3.41-14.31a19.24,19.24,0,0,0,2.18-3l1.8,1q.66.38-.38.57a21,21,0,0,1-1.89,2.46q1.42.85,2.56,1.61l-1.33,1.8q-1-.85-2.56-1.89a25.85,25.85,0,0,1-4.36,3.51l-1.61-1.61a15.85,15.85,0,0,0,4.17-2.94,22.31,22.31,0,0,0-3.32-1.71l1.33-1.52q1.71.76,3.41,1.71Zm3.13,16.58a11.68,11.68,0,0,0,5.5-2.56,14.08,14.08,0,0,1-2.56-4.74h-1.23v-1.8h8l.38-.57L222,213l-.47.28a16.49,16.49,0,0,1-3,5.4,16.13,16.13,0,0,0,5,2.46l-.95,2a17.28,17.28,0,0,1-5.4-2.94,14.85,14.85,0,0,1-6.16,3.22l-.66-2.08Zm10.9-12.79q.66,0,.66-1.89l1.89.38q0,3.32-2.08,3.32h-2q-1.61,0-1.61-2v-3.79h-3.22V207q0,2.75-3.32,4.45l-1.14-1.71q2.56-1,2.56-3v-4h7v5c0,.51.22.76.66.76Zm-6.16,5.5a10.88,10.88,0,0,0,2.08,3.51,12.23,12.23,0,0,0,2-3.51Z"/><path class="cls-5" d="M231.69,202.78a36.85,36.85,0,0,1-1.8,5.5l.57.09q.28.28-.19.57v14.69h-1.89V211.12a21.58,21.58,0,0,1-1.52,2.08l-1.23-1.61a23.61,23.61,0,0,0,4.26-10l2.08.76q.38.38-.28.47Zm4.74.66h10.71V205H235.57l-.76,1h9.95v5.78H234.43v-5.21a14.78,14.78,0,0,1-2.56,2.37l-1-1.61a12.06,12.06,0,0,0,4.45-5.78l1.8.66q.38.38-.28.47ZM235.48,217a10.67,10.67,0,0,1-3.51,2l-.66-1.71a9.16,9.16,0,0,0,4.17-2.84h-4v-1.52h16.2v1.52h-9.95l-.85,1h9.85l-.47,5.78q-.19,2.08-1.8,2.08H242.3l-.28-1.8h1.52a.82.82,0,0,0,.95-.76l.38-3.79h-1.33a11.08,11.08,0,0,1-6.44,6.73l-1-1.8q4.45-1.89,5.4-4.93h-2a10.18,10.18,0,0,1-6.82,5.21l-.57-1.89a8.69,8.69,0,0,0,5.31-3.32Zm.57-9.85v1.14h7.11v-1.14Zm7.11,2.27H236v1.23h7.11Z"/><path class="cls-5" d="M259.07,203.73a27.88,27.88,0,0,1,3.22,4.36l-1.8,1-.76-1.14-8.43.85q-.1.66-.47.28l-.57-2.27h2.56l1.89-5.12,2.37.57q.38.38-.28.47l-2.27,4,4.45-.28-1.42-1.89Zm1.33,6.06v11.94a1.34,1.34,0,0,1-1.52,1.52h-1.61l-.28-1.8h1.23a.25.25,0,0,0,.28-.28v-2.75H254v4.93h-1.89V209.8ZM254,211.6v1.61h4.45V211.6Zm0,3.41v1.61h4.45V215Zm16.58-9q.09.66-.57.28l-5.4,1.52v2.27q0,.66.57.66H269c.38,0,.6-.25.66-.76l.19-1.71,2,.38-.19,2.08q-.19,1.8-1.8,1.8h-5.4q-1.71,0-1.71-1.61V202.5h1.8q.76.1.09.57v3.32l4.83-2.08,1.14,1.71Zm-6.06,7.48q.76.1.09.57v2.46l5.4-2,.95,1.61q.09.66-.57.28l-5.78,1.52v2.65q0,.66.57.66H269a.69.69,0,0,0,.76-.66l.28-1.61,2,.38-.38,2.18q-.28,1.51-1.61,1.52h-5.59q-1.71,0-1.71-1.61v-8Z"/><path class="cls-5" d="M275.84,220.69q7.48-2.56,8-11.46H277v-2.08h6.92v-4.83H286q.95.19.09.76v4.07h8.34q-.19,7.58-.38,11.37t-2.84,3.79H287.4l-.38-2.08h3.22a1.44,1.44,0,0,0,1.61-1.52q.19-2.75.38-9.47H286q0,10.23-9.1,13.74Z"/><path class="cls-5" d="M304.64,223.63a23.92,23.92,0,0,0-4.74-4.17l1.42-1.89a20.52,20.52,0,0,1,5,4.07Z"/><path class="cls-5" d="M324.1,216.9l-8,2.08q-.66,1.14-.95,0l-.47-2.18,3.6-.57v-9.38h-2.94v-2.08h8.34v2.08h-3.51v9l3.6-.76Zm-4.36,4.26q5.78-1.61,8.53-4.26a18,18,0,0,1-2.46-6.54,15.92,15.92,0,0,1-2.65,3.7l-1.42-1.61q3.79-3.41,5.12-10.71l2,.57q.66.48-.19.66-.48,1.71-.95,3.32h8.43v2.08h-2.46a17.24,17.24,0,0,1-2.94,8.72,16.34,16.34,0,0,0,5.68,3.22l-1,2.37a18.83,18.83,0,0,1-5.87-4.17,21.38,21.38,0,0,1-8.91,4.74Zm7.39-12.79a21,21,0,0,0,2.37,7,18,18,0,0,0,2.18-7Z"/><path class="cls-5" d="M345.42,213.78h-1.33v-1.52h-4.83v-1.14h4.83v-1h-3.32v-4.93h3.32v-1h-4.55V203h4.55v-1.23h1.23q.76.1.09.57V203h4.45v1.14h-4.45v1h3.32v4.93h-3.32v1h4.93v1.14h-4.93Zm3.88,1.89h-7.86l-.38-1.14h6.44a51.79,51.79,0,0,0,8.91-.76l1.23,1.33q.19.48-.66.19-3,.28-6.06.38v1.14h7v1.14h-7v1.14h9.47v1.52h-9.47v1.52q0,1.42-1.23,1.42h-2.46l-.28-1.52h2a.34.34,0,0,0,.38-.38v-1h-9.57v-1.52h9.57v-1.14h-7.58v-1.14h7.58Zm-7.2-8.34h2v-1h-2Zm0,1.61h2V208h-2Zm3.32-1.61h2v-1h-2Zm0,1.61h2V208h-2Zm9.38,3.51a12.54,12.54,0,0,1-4.93,1.71l-.66-1.42a11.91,11.91,0,0,0,4.26-1.14,7.44,7.44,0,0,1-1.89-2.37h-1.23v-1.14h6.73l.38-.38,1.14,1.14q.19.19-.38.38-.76.85-2.27,2.27a16.81,16.81,0,0,0,4.83,1.23l-.57,1.52a19,19,0,0,1-5.4-1.8Zm3.7-6.73q.47,0,.76-1.42l1.61.47q-.48,2.46-1.89,2.46h-1.89a1.51,1.51,0,0,1-1.71-1.71v-1.61h-2.46v1.42q0,1.9-2.94,2.56l-.57-1.52q1.89-.28,1.89-1.42v-2.56H357v2.84a.42.42,0,0,0,.47.47Zm-5.31,3.51a4,4,0,0,0,1.42,1.61,6.15,6.15,0,0,0,1.61-1.61Z"/><path class="cls-5" d="M364.65,220.69q7.48-2.56,8-11.46h-6.82v-2.08h6.92v-4.83h2.08q.95.19.09.76v4.07h8.34q-.19,7.58-.38,11.37T380,222.3h-3.79l-.38-2.08h3.22a1.44,1.44,0,0,0,1.61-1.52q.19-2.75.38-9.47h-6.25q0,10.23-9.1,13.74Z"/><path class="cls-5" d="M389.48,221.92a44,44,0,0,1-.38-6.16,53.66,53.66,0,0,1,1.14-12.32l2.08.38q.66.28-.09.66-1,3.32-1,11.27a28.17,28.17,0,0,0,.47,5.78Zm14.31-12.7a68.72,68.72,0,0,1,0,7.2,23.23,23.23,0,0,1,5.5,2.94l-1.14,1.8a25.15,25.15,0,0,0-4.36-2.65,3.72,3.72,0,0,1-1,2.75,5.4,5.4,0,0,1-6.63,0,3.33,3.33,0,0,1-.95-2.46,2.82,2.82,0,0,1,.76-2.08,4.63,4.63,0,0,1,3.41-1.14,10.93,10.93,0,0,1,2.46.28,56.65,56.65,0,0,0,0-6.54l-7,.47v-2l6.82-.38q-.1-2.65-.38-4.74h2q1,.19.19.76.09,2,.19,3.88l5.12-.28v2Zm-2,8.53a9.57,9.57,0,0,0-2.46-.47,2.61,2.61,0,0,0-1.89.57,1.36,1.36,0,0,0-.47.95,1.54,1.54,0,0,0,.38,1.14,2.7,2.7,0,0,0,2,.66,2.38,2.38,0,0,0,1.89-.66,2.91,2.91,0,0,0,.57-2.18Z"/><path class="cls-5" d="M415.91,208.37a31.22,31.22,0,0,1-3.79.19l-.28-2q2.37,0,4.74-.19.47-1.71,1.14-4.55l1.71.57q.95.38,0,.76l-.85,3a21.83,21.83,0,0,0,3.32-.66l.47,2a29.36,29.36,0,0,1-4.36.66,66.84,66.84,0,0,1-4.45,10.52l-1.89-.95a51.17,51.17,0,0,0,4.26-9.38ZM426,210.65q1,.19.19.76v5.5a32,32,0,0,1,4.93,2.08l-1.14,1.8a20.18,20.18,0,0,0-3.79-1.8,5.07,5.07,0,0,1-1.23,2.94,4.23,4.23,0,0,1-3.13,1.14q-2.65,0-3.7-1a3.33,3.33,0,0,1-.95-2.46,3,3,0,0,1,.95-2.18,4.88,4.88,0,0,1,3.6-1.23,9.22,9.22,0,0,1,2.56.28v-5.78Zm-1.71,7.58a8.09,8.09,0,0,0-2.56-.38,2.94,2.94,0,0,0-2.08.57,1.55,1.55,0,0,0-.47,1.14,1.4,1.4,0,0,0,.38,1,2.77,2.77,0,0,0,2,.57,2.62,2.62,0,0,0,1.89-.57,3.2,3.2,0,0,0,.85-2.37Zm.66-12.7q2.65.85,6.35,2.27l-.85,2a59.2,59.2,0,0,0-6.25-2.37Z"/><path class="cls-5" d="M434,212.64a2.71,2.71,0,0,1,1-2q6.16-5.78,8-8.72l1.71,1.33q.85.95-.47.76-1.42,2.09-7.48,7.77a1,1,0,0,0-.38.66,1,1,0,0,0,.38.85,63,63,0,0,1,8.53,7.86l-1.71,1.71a76.1,76.1,0,0,0-8.15-8.05,3.28,3.28,0,0,1-1.42-2.18Z"/><path class="cls-5" d="M35.6,291.12H28v1.52h9.47v4.55H35.6v-3.41H28v5.4H26.12v-5.4h-7.3v3.79H16.93v-4.93h9.19v-1.52H18.54v-1.52H35.6Zm2.65,16.2q-.1,3.5-3.13,3.51H27.73q-1.71,0-1.71-1.61v-1.8H21.1V309H19.49v-9.29H34.93v7.67h-7v.85q0,.76.66.76h6.25q1.23,0,1.33-2.08ZM20,296.14V295h5.21v1.14Zm5.21,2.27H20v-1.14h5.21Zm-4.07,4.36H26v-1.52H21.1Zm0,3.13H26v-1.61H21.1Zm6.82-3.13h5.4v-1.52h-5.4Zm0,3.13h5.4v-1.61h-5.4Zm1.14-9.76V295h5.5v1.14Zm0,2.27v-1.14h5.5v1.14Z"/><path class="cls-5" d="M45.26,308.74a.25.25,0,0,0,.28-.28v-5.78H43.27v2.46a9.4,9.4,0,0,1-1.42,5.4l-1.33-1.33q1.14-1.33,1.14-4.74v-14.4h5.5v18.66q0,1.51-1.14,1.52H44.5l-.28-1.52Zm.28-17.15H43.27v4h2.27Zm0,5.5H43.27v4.07h2.27Zm5-6.73a16.85,16.85,0,0,1,1.8,4.45l-2.08.66A14.88,14.88,0,0,0,48.58,291Zm0,17.05h9.1v-10h1.8q.76.1.09.57v12.22H59.66v-.95h-9.1v1.33H48.67V297.37h1.8q.76.1.09.57Zm7.77-9.66a18.67,18.67,0,0,1-1.71,3.88A19.31,19.31,0,0,1,59.09,305l-1.52,1.52a11.58,11.58,0,0,0-2-3.13,17.85,17.85,0,0,1-3.41,3.7l-1.33-1.52a12.92,12.92,0,0,0,3.41-3.7,16,16,0,0,0-3-3.13l1.33-1.33a21.35,21.35,0,0,1,2.75,2.65,14.81,14.81,0,0,0,1.42-3.6l1.89.76q.38.38-.28.47Zm-4.07-3a12.62,12.62,0,0,0-1.71-4.45l1.8-.66a12,12,0,0,1,1.89,4.55l-2,.57Zm5.31-5.12,2.08.66q.38.38-.28.47l-1.8,4.83-1.8-.66Z"/><path class="cls-5" d="M85.24,306.94V309h-15v1.61H68.38V297.47H64.87v-2.08h3.51v-5.31h1.8q.76.1.09.57v4.74h4.07v-5.87h1.8q.76.1.09.57v5.31h4.64v-5.5h1.8q.76.1.09.57v4.93h3.51v2.08H82.78v7.11H80.88v-1.14H76.24V305H74.35v-7.58H70.27v9.47Zm-4.36-5.31v-4.17H76.24v4.17Z"/><path class="cls-5" d="M107.89,299.46h-1.61v-.66h-4.36q2.94,3,9.1,4.55l-.76,2.08a18.29,18.29,0,0,1-6-2.56v7.86h-1.89v-8.24h1.33a14.68,14.68,0,0,1-3.7-3.22,15.58,15.58,0,0,1-3.32,3.13h1.23q.76.1.09.57v2.94a3.73,3.73,0,0,1-1.14,3,11,11,0,0,1-5.78,2L90.26,309q3.7-.28,5.12-1.42a2.46,2.46,0,0,0,.76-2.08v-2.65a17.84,17.84,0,0,1-6.44,2.75l-.85-2.08q6.44-1.33,9.29-4.74H93.77v1H92.16V290h15.73Zm-8.72-5.78V291.5h-5.4v2.18Zm0,1.52h-5.4v2.08h5.4Zm7.11-1.52V291.5h-5.5v2.18Zm0,3.6V295.2h-5.5v2.08Z"/><path class="cls-5" d="M132.52,293.87a16.34,16.34,0,0,0-5.21.66,10.66,10.66,0,0,0-3.88,2.56,6.28,6.28,0,0,0-1.8,4.64,5,5,0,0,0,1.42,3.7q1.89,1.9,7.3,2.08l-.76,2.08q-5.59-.28-7.77-2.46a7.22,7.22,0,0,1-2.18-5.31,8.21,8.21,0,0,1,3.51-7q-4.45.66-9.1,1.33l-.57-2.18q9.28-.66,18.66-2.27Zm-2.08,7.39a38.49,38.49,0,0,0-3.6-2.37l.95-1.14q1.42.85,3.6,2.37l-.95,1.14Zm1.89-2.27q-2.27-1.61-3.6-2.37l.95-1.14q1.33.76,3.6,2.37l-.95,1.14Z"/><path class="cls-5" d="M146.89,295.38q-1.61,9.48-3.88,11.75a3.63,3.63,0,0,1-2.56,1.23,3.2,3.2,0,0,1-2.37-.85,7.71,7.71,0,0,1-2.27-5.68,9.68,9.68,0,0,1,2.94-7.11,10.7,10.7,0,0,1,7.86-3.22,8.84,8.84,0,0,1,6.54,2.37,9,9,0,0,1,.19,12.6,17,17,0,0,1-4.93,3.13l-2-2a12.54,12.54,0,0,0,5.21-2.94,5.94,5.94,0,0,0,1.8-4.36,6.81,6.81,0,0,0-2-5q-2-2-6.25-1.8l1.71.85q1.14.48,0,1Zm-2.18-1.8a8.68,8.68,0,0,0-4.26,2.37A8.24,8.24,0,0,0,138,302a4.88,4.88,0,0,0,1.42,3.6,1.16,1.16,0,0,0,.85.28,1.85,1.85,0,0,0,1.23-.66q2.18-2.18,3.22-11.65Z"/><path class="cls-5" d="M176.64,302.77a15.74,15.74,0,0,1-3.7,7.3l-2-1.14a13.22,13.22,0,0,0,3.88-6.82,32,32,0,0,0-6.73-1.71q-2.56,5.5-3.41,6.35a3.64,3.64,0,0,1-2.65,1.14,2.57,2.57,0,0,1-1.89-.76,3.47,3.47,0,0,1-.85-2.56,5.53,5.53,0,0,1,1.89-3.88,7.56,7.56,0,0,1,5.59-2.08q1.14-2.94,2.08-5.5-2.65.66-5.31,1.23l-.85-1.89a55.47,55.47,0,0,0,6-1l1.14-.47,1.61,1.23q.95.57-.09.85a50.15,50.15,0,0,0-2.65,5.68,33.72,33.72,0,0,1,6.44,1.52,51.74,51.74,0,0,0,.09-5.59l1.8.38q1,.19.19.76,0,3.13-.19,5.12a37.32,37.32,0,0,1,4.17,1.89l-.95,1.89q-2-1.14-3.6-1.89Zm-10.52-2.37a4.74,4.74,0,0,0-3.51,1.33,4.24,4.24,0,0,0-1.52,2.84,1.28,1.28,0,0,0,.38.95,1.16,1.16,0,0,0,.85.28,1.85,1.85,0,0,0,1.52-1q.57-.85,2.27-4.36Z"/><path class="cls-5" d="M183.37,308.46a23.71,23.71,0,0,0,5.5-4.45q-1.14-1.14-2.37-2.18l1.23-1.42q1.14.85,2.27,1.8a16.89,16.89,0,0,0,1.52-3l1.89,1.33c.06.32-.09.41-.47.28a20.26,20.26,0,0,1-1.52,2.84,13.85,13.85,0,0,1,2.18,2.46L192,307.61a14,14,0,0,0-1.71-2.18,21.27,21.27,0,0,1-5.78,4.83ZM189.15,297a19.86,19.86,0,0,1-4.17,3.79l-1.42-1.52a18.16,18.16,0,0,0,4.36-4.07l1.71,1.52c.06.32-.09.41-.47.28Zm7-2.56H184v-1.8h5.12v-3.51h1.8q.76.1.09.57v2.94h5.12Zm-1.52,5.78a25.53,25.53,0,0,0-3.51-3.79l1.42-1.42a18,18,0,0,1,3.6,3.7Zm3.7-3.41h-2.18V295h2.18v-5.21h1.8q.76.1.09.57V295h4.36l-.19,12.7q0,2.84-2.18,2.84h-2.84l-.28-2.08h2.46q.95,0,.95-1.23l.19-10.42h-2.46v1.71q0,8.43-7.67,12.41l-.95-2q6.73-3,6.73-11.27Z"/><path class="cls-5" d="M208.38,303v-1.8h9.38v-2.08h-4.83v.85H211V289.79h15.25v9.95h-1.89v-.66h-4.74v2.08h9.19V303h-8.72a20.6,20.6,0,0,0,9.1,5l-.85,2.18q-6-2.27-8.72-5.4V311h-1.89v-6.16q-2.65,3.6-8.53,5.4l-1-2.08q6.16-1.51,9.1-5.21Zm4.55-11.37v2h4.83v-2Zm0,3.79v1.89h4.83v-1.89Zm11.46-3.79h-4.74v2h4.74Zm0,3.79h-4.74v1.89h4.74Z"/><path class="cls-5" d="M245.42,301.16q0,5.5-1.61,7.11a3,3,0,0,1-2.18.95,5,5,0,0,1-3.6-2.08l1.23-1.71q1.51,1.52,2.27,1.52a1.18,1.18,0,0,0,.85-.38q1-1,1-5.78,0-2.65-.57-3.22a1.65,1.65,0,0,0-1.14-.28,20.45,20.45,0,0,0-2.37.19,58.26,58.26,0,0,1-4.74,12l-2.18-.76a44.76,44.76,0,0,0,4.83-11.09q-2.09.28-4.07.47L233,296q1.71,0,4.74-.28.85-2.94,1.42-6l2,.66q1.14.48-.09.85-.57,2-1.14,4.26a14.44,14.44,0,0,1,2.37-.19,2.71,2.71,0,0,1,2,.66q1.14,1.14,1.14,5.12Zm2.84-7.58a20.76,20.76,0,0,1,5.31,9.57l-2.08.85q-1.71-6.16-4.93-9.19Zm3.13,1.14a36.76,36.76,0,0,0-3.7-2.75l1.14-1.14a26.46,26.46,0,0,1,3.79,2.65Zm-.66-6.06a26.46,26.46,0,0,1,3.79,2.65l-1.14,1.14a43.3,43.3,0,0,0-3.79-2.65Z"/><path class="cls-5" d="M262.19,298a17.76,17.76,0,0,1-5,2.56l-.95-1.89a17.4,17.4,0,0,0,5.31-2.65l-2.84-2,1.33-1.52,3.13,2.18a12.12,12.12,0,0,0,2.46-2.84h-5.12v-1.8h6.16l.38-.38,1.42,1q.38.38-.28.47,1.14,1.33,1.89,2.08l2.84-2.84,1.61,1.23c.06.32-.09.41-.47.28l-2.84,2.37a4.12,4.12,0,0,0,1.23.95l2.94-2.94,1.61,1.33c.06.32-.09.41-.47.28l-2.84,2.27a20.62,20.62,0,0,0,4.45,1.89l-.95,2a16.59,16.59,0,0,1-4.83-2.46v1.42h-1.8v2.56h5.78v1.8h-5.78v4.17c0,.51.22.76.66.76h2.75a1.09,1.09,0,0,0,1.23-.85l.47-1.8,2,.66q-.57,3.79-2.65,3.79h-4.83q-1.52,0-1.52-1.61v-5.12h-3q0,6.25-8.15,7.39l-.57-2q6.82-1,6.82-5.4h-5.4v-1.8h5.5v-2.56h-1.61Zm5-5.31a13.82,13.82,0,0,1-4,4.55h8.53a15.58,15.58,0,0,1-4.55-4.55Zm1.42,8.91v-2.56H265.7v2.56Z"/><path class="cls-5" d="M283.13,308.84a.34.34,0,0,0,.38-.38V302.4l-1.71.57c-.06.32-.25.38-.57.19l-.66-2,2.94-.57v-4.83H281V294h2.56v-4.74h1.8q.95.1.09.57V294h1.71v1.8h-1.71v4.45l2.46-.66.28,1.61-2.75.85v7.39a1.34,1.34,0,0,1-1.52,1.52H282l-.19-2.08Zm12.41-15.06h4.26v1.52h-4.26v1.33h5v7.67h-5v1.42h6.82v1.8h-6.82v3.41h-1.61v-3.41H287.4v-1.8h6.54v-1.42H289.2v-7.67h4.74v-1.33h-4.17v-1.52h4.17v-1.52h1.52q.76.1.09.57Zm6.06.38H300v-2.84H289.48v2.84h-1.61v-4.36h13.74Zm-10.8,4v1.52h3.13v-1.52Zm0,3v1.61h3.13v-1.61Zm4.74-3v1.52H299v-1.52Zm0,4.64H299v-1.61h-3.41Z"/><path class="cls-5" d="M313.17,296.14q-3.89.28-7.67.28l-.57-1.89q4.64,0,7.48-.19a28.72,28.72,0,0,1-1.33-4.93h2.08q.85.19.19.76a32.42,32.42,0,0,0,1.14,4,39,39,0,0,0,5.68-.85l.47,2.08q-2.75.38-5.4.57a17.44,17.44,0,0,0,5.78,6.25l-1.42,1.71a16.48,16.48,0,0,0-6.92-1.61q-3.13,0-4.36,1.23a2.18,2.18,0,0,0-.57,1.61,2.54,2.54,0,0,0,.85,1.8q1.33,1.33,6.25,1.33h3.32l-.47,2.08h-3.6q-4.93,0-6.92-2a4.44,4.44,0,0,1-1.42-3.22,3.84,3.84,0,0,1,1-2.84q1.71-1.71,5.31-1.71t4.17.38a22.4,22.4,0,0,1-3.13-4.83Z"/><path class="cls-5" d="M338,297.94q.09-1.8-1-1.8-1.61,0-6.25,4.64v9.47h-1.89v-7.77l-4.17,5.21-1.52-1.52,3.79-4.45a26.6,26.6,0,0,0,1.89-2.75v-2.27l-4.17,1.42-.57-2,4.74-1.23v-5.59h1.71q.85.19.19.76v4.26l1,.57q.85.38-.19.85l-.85,1.8v.66q4.45-4.17,6.73-4.17,2.84,0,2.56,3.79l-.47,7.3q-.1,1.52,1.14,1.52a2.25,2.25,0,0,0,1.8-.66,9.32,9.32,0,0,0,1.42-2.46l1.61,1.33a11.2,11.2,0,0,1-1.8,2.65,3.9,3.9,0,0,1-2.84,1.23q-3.51,0-3.32-3.6l.47-7.2Z"/><path class="cls-5" d="M359.76,308.27a4.26,4.26,0,0,0,2.56-1.23,4.1,4.1,0,0,0,1.14-3,4.49,4.49,0,0,0-1.23-3.32,5.32,5.32,0,0,0-3.88-1.23,8.16,8.16,0,0,0-4.83,1.23,26.51,26.51,0,0,0-4.17,4.07l-1.61-1.42A125.55,125.55,0,0,0,358.05,292q-3.13.38-6.25.66l-.66-2.18a63.65,63.65,0,0,0,8.24-.47l.85-.38,1,1q1,.95-.47,1.23-2.84,3.22-5.68,6.35a14.85,14.85,0,0,1,3.32-.47q3.6,0,5.31,1.71a5.9,5.9,0,0,1,1.71,4.36,5.77,5.77,0,0,1-1.52,4.26,7.83,7.83,0,0,1-5.78,2.27q-3.32,0-4.83-1.52a4,4,0,0,1-1.23-2.94,2.73,2.73,0,0,1,.85-2,3,3,0,0,1,2.18-.95A3.86,3.86,0,0,1,358,304.1a7.54,7.54,0,0,1,1.8,4.17Zm-1.89.28a5.73,5.73,0,0,0-1.14-3.32,1.92,1.92,0,0,0-1.33-.66,1.55,1.55,0,0,0-1.14.38,1.45,1.45,0,0,0-.47,1,2.26,2.26,0,0,0,.76,1.61,3.33,3.33,0,0,0,2.46.95Z"/><path class="cls-5" d="M375.5,305.14a3.43,3.43,0,1,1-2.37-.95,3.22,3.22,0,0,1,2.37.95Zm-.85,3.88a2.06,2.06,0,1,0-1.52.66,2.09,2.09,0,0,0,1.52-.66Z"/><path class="cls-5" d="M22.24,366.41q-2.94,0-4.07-1.14a4.1,4.1,0,0,1-1.14-3,9.75,9.75,0,0,1,.38-2.46l2.18.28a8.45,8.45,0,0,0-.47,2.18,1.93,1.93,0,0,0,.57,1.42,3.84,3.84,0,0,0,2.65.66H32.66v2.08Zm-3.79-16H30.76v2.08H18.45Z"/><path class="cls-5" d="M47.37,353.53q-1.61,9.48-3.88,11.75a3.63,3.63,0,0,1-2.56,1.23,3.2,3.2,0,0,1-2.37-.85A7.71,7.71,0,0,1,36.29,360a9.68,9.68,0,0,1,2.94-7.11,10.7,10.7,0,0,1,7.86-3.22A8.84,8.84,0,0,1,53.63,352a9,9,0,0,1,.19,12.6,17,17,0,0,1-4.93,3.13l-2-2a12.54,12.54,0,0,0,5.21-2.94,5.94,5.94,0,0,0,1.8-4.36,6.81,6.81,0,0,0-2-5q-2-2-6.25-1.8l1.71.85q1.14.48,0,1Zm-2.18-1.8a8.68,8.68,0,0,0-4.26,2.37,8.24,8.24,0,0,0-2.46,6.06,4.88,4.88,0,0,0,1.42,3.6,1.16,1.16,0,0,0,.85.28,1.85,1.85,0,0,0,1.23-.66q2.18-2.18,3.22-11.65Z"/><path class="cls-5" d="M65.18,349.64a12.08,12.08,0,0,1-2,3.13h4.93v1.8H65.66v2.27H69v1.8H65.66v6.73l4.17-1.14v1.52q-5.12,1.71-8.43,2.56-.1.76-.47.38l-.57-2.18,3.41-.76v-7.11H60.45v-1.8h3.32v-2.27H61.87q-.57.57-1.33,1.23l-1.14-1.52a17.06,17.06,0,0,0,4.93-7l1.61.28c.38.13.35.28-.09.47l-.09.28a11.94,11.94,0,0,1,4,3.32l-.85,1.71a12.88,12.88,0,0,0-3.7-3.7Zm-2.94,10a11.08,11.08,0,0,1,.85,4.26l-1.61.47a13.56,13.56,0,0,0-.76-4.36Zm6.54-.19q.47.28-.09.47a29.89,29.89,0,0,1-.85,4.07l-1.52-.28a24.32,24.32,0,0,0,.76-4.55Zm5,3.22q0,4.64-5.4,6.25l-.57-2q4.07-.76,4.07-4.26V359h1.8q.76.1.09.57Zm4.26-9.47a15.9,15.9,0,0,1,3.41,4.36l-1.71.85a3.33,3.33,0,0,0-.66-1q-5,.57-8.34.85-.28.85-.57,0l-.47-2.08h2.08a23.94,23.94,0,0,0,1.42-3.51h-3v-1.8h4v-3.79H76q.76.1.09.57v3.22h4.83v1.8H75.23a25.45,25.45,0,0,1-1.71,3.51l4.74-.19a9.74,9.74,0,0,0-1.52-2Zm1.23,13.45q.76,0,.85-2.56l1.89.66q-.28,3.7-2.37,3.7h-2q-1.61,0-1.61-1.71V359h1.8q.76.1.09.57V366c0,.44.16.66.47.66Z"/><path class="cls-5" d="M95.88,353.53Q94.27,363,92,365.27a3.63,3.63,0,0,1-2.56,1.23,3.2,3.2,0,0,1-2.37-.85A7.71,7.71,0,0,1,84.8,360a9.68,9.68,0,0,1,2.94-7.11,10.7,10.7,0,0,1,7.86-3.22,8.84,8.84,0,0,1,6.54,2.37,9,9,0,0,1,.19,12.6,17,17,0,0,1-4.93,3.13l-2-2a12.54,12.54,0,0,0,5.21-2.94,5.94,5.94,0,0,0,1.8-4.36,6.81,6.81,0,0,0-2-5q-2-2-6.25-1.8l1.71.85q1.14.48,0,1Zm-2.18-1.8a8.68,8.68,0,0,0-4.26,2.37A8.24,8.24,0,0,0,87,360.16a4.88,4.88,0,0,0,1.42,3.6,1.16,1.16,0,0,0,.85.28,1.85,1.85,0,0,0,1.23-.66q2.18-2.18,3.22-11.65Z"/><path class="cls-5" d="M112.84,353.71q.95.1.09.57v14.78H111V356.94a12.38,12.38,0,0,1-1.89,2.84l-1.23-2q3.32-3.41,4.45-10.33l2.08.57q.85.28-.19.66a38.77,38.77,0,0,1-1.42,5Zm9.76-6.44q.76.1.09.57v2.37h6.73V352H122.7v2.08h5.4v7.2H126.2v-.76H122.7a9.44,9.44,0,0,1-.76,3.7q2.37,1.61,8,2.56l-.66,2.08a17.58,17.58,0,0,1-8.24-3,12.34,12.34,0,0,1-6.73,3.32l-.66-1.8a10.72,10.72,0,0,0,6-2.65,10.43,10.43,0,0,1-2.65-3.41l1.14-.76H115.4v-6.44h5.4V352h-6.44v-1.8h6.44v-2.94ZM120.8,359v-3.41h-3.51V359Zm-.38,4.07a8.09,8.09,0,0,0,.38-2.56h-2.37a12.11,12.11,0,0,0,2,2.56ZM126.2,359v-3.41H122.7V359Z"/><path class="cls-5" d="M150.93,361h-6.16v7.2h-1.89V361h-5.68a11.75,11.75,0,0,1-2.94,7.86l-1.52-1.52a9.6,9.6,0,0,0,2.56-6.63V348.6h17.53v18.1a1.34,1.34,0,0,1-1.52,1.52h-2.65l-.47-2.08h2.37a.34.34,0,0,0,.38-.38ZM137.19,350.4v3.51h5.68V350.4Zm0,5.31v3.51h5.68V355.7Zm7.58-5.31v3.51h6.16V350.4Zm0,5.31v3.51h6.16V355.7Z"/><path class="cls-5" d="M163.06,355.89a6.91,6.91,0,0,1,2.18-.38,2.7,2.7,0,0,1,2,.76,3.24,3.24,0,0,1,.66,2.08q2.84-1,6.44-2.18l.66,2.27a33.68,33.68,0,0,0-6.92,1.8v4.17h-1.89V361a14.59,14.59,0,0,0-3.7,2.18,3,3,0,0,0-1,2.08,1.64,1.64,0,0,0,.57,1.14,3.66,3.66,0,0,0,2.56.66h8v1.8h-8.05q-3,0-4.26-1.23a3.21,3.21,0,0,1-.95-2.37,3.81,3.81,0,0,1,1.23-2.75,17,17,0,0,1,5.59-3.41,2.51,2.51,0,0,0-.47-1.52,2.39,2.39,0,0,0-1.61-.38q-1.9,0-5.78,3.41L156.61,359a15.42,15.42,0,0,0,6.06-6.06l-5.31.38-.38-1.89q3.41-.09,6.44-.28a29.86,29.86,0,0,0,1.14-3.79l1.8.47q.95.38,0,.76-.38,1.23-.85,2.46,3.41-.28,6.54-.76l.28,2-7.39.57a15.87,15.87,0,0,1-1.89,3Z"/><path class="cls-5" d="M177.78,351.25h8.72v1.8h-8.72Zm.85,9.95h7.11v7.3h-1.61V368h-3.88v.85h-1.61Zm.38-13.26h6.25v1.8H179Zm0,6.73h6.25v1.8H179Zm0,3.32h6.25v1.8H179Zm1.23,4.74v3.79h3.88v-3.79Zm5.87-6.54a15,15,0,0,0,3.41-8.62l2.18.47q.28.28-.19.57-.19,1.14-.57,2.65h7.11v1.8h-3.88v5.21h5.12v1.8h-5.12v8.72h-1.89v-8.72H187v-1.8h5.31v-5.21h-1.89a16.36,16.36,0,0,1-2.56,4.55Z"/><path class="cls-5" d="M202.13,349.07H223v2.08H220v15.54q0,1.8-1.71,1.8h-3.22l-.38-2.08h2.75a.34.34,0,0,0,.38-.38V351.16H202.13Zm12.51,14.59h-2.18v-.85h-5.21v1.8h-2.18V354.47h9.57Zm-2.18-7.39h-5.21V361h5.21Z"/><path class="cls-5" d="M234.34,354.28q-3.89.28-7.67.28l-.57-1.89q4.64,0,7.48-.19a28.72,28.72,0,0,1-1.33-4.93h2.08q.85.19.19.76a32.42,32.42,0,0,0,1.14,4,39,39,0,0,0,5.68-.85l.47,2.08q-2.75.38-5.4.57a17.44,17.44,0,0,0,5.78,6.25l-1.42,1.71a16.48,16.48,0,0,0-6.92-1.61q-3.13,0-4.36,1.23a2.18,2.18,0,0,0-.57,1.61,2.54,2.54,0,0,0,.85,1.8q1.33,1.33,6.25,1.33h3.32l-.47,2.08h-3.6q-4.93,0-6.92-2a4.44,4.44,0,0,1-1.42-3.22,3.84,3.84,0,0,1,1-2.84q1.71-1.71,5.31-1.71t4.17.38a22.4,22.4,0,0,1-3.13-4.83Z"/><path class="cls-5" d="M259.14,356.08q.09-1.8-1-1.8-1.61,0-6.25,4.64v9.47h-1.89v-7.77l-4.17,5.21-1.52-1.52,3.79-4.45a26.6,26.6,0,0,0,1.89-2.75v-2.27l-4.17,1.42-.57-2,4.74-1.23v-5.59h1.71q.85.19.19.76v4.26l1,.57q.85.38-.19.85l-.85,1.8v.66q4.45-4.17,6.73-4.17,2.84,0,2.56,3.79l-.47,7.3q-.1,1.52,1.14,1.52a2.25,2.25,0,0,0,1.8-.66,9.32,9.32,0,0,0,1.42-2.46l1.61,1.33a11.2,11.2,0,0,1-1.8,2.65,3.9,3.9,0,0,1-2.84,1.23q-3.51,0-3.32-3.6l.47-7.2Z"/><path class="cls-5" d="M288,352a16.34,16.34,0,0,0-5.21.66,10.66,10.66,0,0,0-3.88,2.56,6.28,6.28,0,0,0-1.8,4.64,5,5,0,0,0,1.42,3.7q1.89,1.9,7.3,2.08l-.76,2.08q-5.59-.28-7.77-2.46a7.22,7.22,0,0,1-2.18-5.31,8.21,8.21,0,0,1,3.51-7q-4.45.66-9.1,1.33L269,352.1q9.28-.66,18.66-2.27Z"/><path class="cls-5" d="M299.94,362.15a12.19,12.19,0,0,1-1.8,3.32,3.61,3.61,0,0,1-2.65,1.61q-2.37,0-3.51-2.75-.66-1.61-.66-6.92,0-3.79.38-7.67l2,.47q1.14.28.09.95a59.43,59.43,0,0,0-.38,6.35,21.9,21.9,0,0,0,.47,5.5q.47,1.61,1.42,1.61t1.8-1.52a20.86,20.86,0,0,0,.95-2.27l1.89,1.33Zm5.59-11.09a19.36,19.36,0,0,1,5.21,10.8l-2.56.66q-1.14-6.63-4.64-10.33l2-1.14Z"/><path class="cls-5" d="M325.52,366.41a4.26,4.26,0,0,0,2.56-1.23,4.1,4.1,0,0,0,1.14-3,4.49,4.49,0,0,0-1.23-3.32,5.32,5.32,0,0,0-3.88-1.23,8.16,8.16,0,0,0-4.83,1.23,26.51,26.51,0,0,0-4.17,4.07l-1.61-1.42a125.55,125.55,0,0,0,10.33-11.37q-3.13.38-6.25.66l-.66-2.18a63.65,63.65,0,0,0,8.24-.47l.85-.38,1,1q1,.95-.47,1.23-2.84,3.22-5.68,6.35a14.85,14.85,0,0,1,3.32-.47q3.6,0,5.31,1.71A5.9,5.9,0,0,1,331.2,362a5.77,5.77,0,0,1-1.52,4.26,7.83,7.83,0,0,1-5.78,2.27q-3.32,0-4.83-1.52a4,4,0,0,1-1.23-2.94,2.73,2.73,0,0,1,.85-2,3,3,0,0,1,2.18-.95,3.86,3.86,0,0,1,2.84,1.14,7.54,7.54,0,0,1,1.8,4.17Zm-1.89.28a5.73,5.73,0,0,0-1.14-3.32,1.92,1.92,0,0,0-1.33-.66,1.55,1.55,0,0,0-1.14.38,1.45,1.45,0,0,0-.47,1,2.26,2.26,0,0,0,.76,1.61,3.33,3.33,0,0,0,2.46.95Z"/><path class="cls-5" d="M346.28,353.53q-1.61,9.48-3.88,11.75a3.63,3.63,0,0,1-2.56,1.23,3.2,3.2,0,0,1-2.37-.85,7.71,7.71,0,0,1-2.27-5.68,9.68,9.68,0,0,1,2.94-7.11,10.7,10.7,0,0,1,7.86-3.22,8.84,8.84,0,0,1,6.54,2.37,9,9,0,0,1,.19,12.6,17,17,0,0,1-4.93,3.13l-2-2a12.54,12.54,0,0,0,5.21-2.94,5.94,5.94,0,0,0,1.8-4.36,6.81,6.81,0,0,0-2-5q-2-2-6.25-1.8l1.71.85q1.14.48,0,1Zm-2.18-1.8a8.68,8.68,0,0,0-4.26,2.37,8.24,8.24,0,0,0-2.46,6.06,4.88,4.88,0,0,0,1.42,3.6,1.16,1.16,0,0,0,.85.28,1.85,1.85,0,0,0,1.23-.66q2.18-2.18,3.22-11.65Z"/><path class="cls-5" d="M360.59,367.45a44,44,0,0,1-.38-6.16A53.66,53.66,0,0,1,361.34,349l2.08.38q.66.28-.09.66-1,3.32-1,11.27a28.17,28.17,0,0,0,.47,5.78Zm14.31-12.7a68.72,68.72,0,0,1,0,7.2,23.23,23.23,0,0,1,5.5,2.94l-1.14,1.8a25.15,25.15,0,0,0-4.36-2.65,3.72,3.72,0,0,1-1,2.75,5.4,5.4,0,0,1-6.63,0,3.33,3.33,0,0,1-.95-2.46,2.82,2.82,0,0,1,.76-2.08,4.63,4.63,0,0,1,3.41-1.14,10.93,10.93,0,0,1,2.46.28,56.65,56.65,0,0,0,0-6.54l-7,.47v-2l6.82-.38q-.1-2.65-.38-4.74h2q1,.19.19.76.09,2,.19,3.88l5.12-.28v2Zm-2,8.53a9.57,9.57,0,0,0-2.46-.47,2.61,2.61,0,0,0-1.89.57,1.36,1.36,0,0,0-.47.95,1.54,1.54,0,0,0,.38,1.14,2.7,2.7,0,0,0,2,.66,2.38,2.38,0,0,0,1.89-.66,2.91,2.91,0,0,0,.57-2.18Z"/><path class="cls-5" d="M16.74,436.65a23.68,23.68,0,0,0,6.92-1.89l1.42,1.71q.09.66-.57.28l-2.27.66v3.22h3.32v1.8H22.24v1.8a20.53,20.53,0,0,1,3.6,2.65L24.61,449a17.78,17.78,0,0,0-2.37-2.46v9.95H20.34v-9.76a21.63,21.63,0,0,1-2.94,4.45L16,449.73a18.88,18.88,0,0,0,4.26-7.3h-3.6v-1.8h3.7v-2.84a25,25,0,0,1-2.84.38Zm15.63,5.87a12.77,12.77,0,0,0,6,11.27L37,455.88a13.12,13.12,0,0,1-5.31-7.58,11.9,11.9,0,0,1-6.35,8l-1.42-1.71q6.54-3.6,6.54-10.23v-9.47h1.8q.76.1.09.57v7.11Zm-3.79-3.22q.95.28,0,.66a31.38,31.38,0,0,1-.57,6.35l-2.08-.38a27.14,27.14,0,0,0,.57-6.63Zm9.1,0q.38.38-.28.47a25.47,25.47,0,0,1-1.61,6.54l-1.89-.76a21.28,21.28,0,0,0,1.71-6.73Z"/><path class="cls-5" d="M61.84,455.88q-6.25-1.23-9.57-4.64v5.21H50.66v-5.4a17.7,17.7,0,0,1-9.38,5.12l-.57-1.89A17,17,0,0,0,49,450.39h-8v-1.52h9.57v-1.52H46.59v.47H45v-5.5H41.09v-1.52H45V439.4h1.52q.76.1.09.57v.85h3.6v-1.71H51.7q.76.1.09.57v1.14h4V439.3h1.52q.76.1.09.57v.95h4.17v1.52H57.39v2.37h-7.2v-2.37h-3.6v3.51H60.32v1.52H52.27v1.52h9.38v1.52h-8q2.56,2.37,8.72,3.6Zm-6.35-19.33h6.06v1.52H55.49v1.23H53.88v-1.23h-5v1.23H47.25v-1.23H41.09v-1.52h6.16v-1.89h1.52q.76.1.09.57v1.33h5v-2H55.4q.76.1.09.57Zm.28,7v-1.23h-4v1.23Z"/><path class="cls-5" d="M76.43,454.18a.34.34,0,0,0,.38-.38v-5.5H73.3V449H71.41v-9.19h4.45l.38-2.46H68.76v9q0,6.16-2.27,9.66l-1.61-1.61a14.48,14.48,0,0,0,2-8.05v-10.8H85.81v1.8h-7.3l-.66,2.46h5.87v9.1H81.83v-.57H78.71v6.44a1.34,1.34,0,0,1-1.52,1.52H75.29l-.47-2.08Zm-1.71-3.6q.76.66-.19.47a17.33,17.33,0,0,1-4.17,4.36L69,453.7a16.56,16.56,0,0,0,4-4.36Zm-1.42-7.39h8.53v-1.89H73.3Zm0,3.6h8.53V444.7H73.3Zm10.8,8.15a26.92,26.92,0,0,0-3.79-4.36l1.42-1.33a18.69,18.69,0,0,1,4.17,4.17Z"/><path class="cls-5" d="M100.88,440.91q-1.61,9.48-3.88,11.75a3.63,3.63,0,0,1-2.56,1.23,3.2,3.2,0,0,1-2.37-.85,7.71,7.71,0,0,1-2.27-5.68,9.68,9.68,0,0,1,2.94-7.11,10.7,10.7,0,0,1,7.86-3.22,8.84,8.84,0,0,1,6.54,2.37,9,9,0,0,1,.19,12.6,17,17,0,0,1-4.93,3.13l-2-2a12.54,12.54,0,0,0,5.21-2.94,5.94,5.94,0,0,0,1.8-4.36,6.81,6.81,0,0,0-2-5q-2-2-6.25-1.8l1.71.85q1.14.48,0,1Zm-2.18-1.8a8.68,8.68,0,0,0-4.26,2.37A8.24,8.24,0,0,0,92,447.55a4.88,4.88,0,0,0,1.42,3.6,1.16,1.16,0,0,0,.85.28,1.85,1.85,0,0,0,1.23-.66q2.18-2.18,3.22-11.65Z"/><path class="cls-5" d="M132.43,442.62q-2.84,4.17-4.83,6.82l-1.8-1.23a63.56,63.56,0,0,0,3.88-5.31l-7.86,1.42v7a1.17,1.17,0,0,0,1.33,1.33h8.72l-.28,2.08h-9q-2.94,0-2.94-3v-7L114,445.84l-.76-2.18,6.44-1.14v-6.25h2q.85.19.19.76v5.21l8.53-1.42.76-.47,1.71,1.71q.38.48-.38.57Z"/><path class="cls-5" d="M144.5,440.63l7.48-.28v5.87q0,4.64-.85,6.54t-3.6,1.89h-2.27l-.28-2.37a18.81,18.81,0,0,0,2.46.19q1.42,0,1.8-.95a17,17,0,0,0,.57-5.31v-3.88l-5.4.19a16,16,0,0,1-7.48,12.7l-1.61-1.61q6.54-4.36,6.92-11.09l-6.73.19-.19-1.89,7-.19v-5.31h2q1,.19.19.76Zm7.58-1.61a37.46,37.46,0,0,0-2.94-3.13l1.14-1.14a37.46,37.46,0,0,1,2.94,3.13L152.08,439Zm2.65-.95a38.3,38.3,0,0,0-2.94-3.13l1.14-1.14a37.46,37.46,0,0,1,2.94,3.13l-1.14,1.14Z"/><path class="cls-5" d="M169.72,440.91q-1.61,9.48-3.88,11.75a3.63,3.63,0,0,1-2.56,1.23,3.2,3.2,0,0,1-2.37-.85,7.71,7.71,0,0,1-2.27-5.68,9.68,9.68,0,0,1,2.94-7.11,10.7,10.7,0,0,1,7.86-3.22A8.84,8.84,0,0,1,176,439.4a9,9,0,0,1,.19,12.6,17,17,0,0,1-4.93,3.13l-2-2a12.54,12.54,0,0,0,5.21-2.94,5.94,5.94,0,0,0,1.8-4.36,6.81,6.81,0,0,0-2-5q-2-2-6.25-1.8l1.71.85q1.14.48,0,1Zm-2.18-1.8a8.68,8.68,0,0,0-4.26,2.37,8.24,8.24,0,0,0-2.46,6.06,4.88,4.88,0,0,0,1.42,3.6,1.16,1.16,0,0,0,.85.28,1.85,1.85,0,0,0,1.23-.66q2.18-2.18,3.22-11.65Z"/><path class="cls-5" d="M199.47,448.3a15.74,15.74,0,0,1-3.7,7.3l-2-1.14a13.22,13.22,0,0,0,3.88-6.82,32,32,0,0,0-6.73-1.71q-2.56,5.5-3.41,6.35a3.64,3.64,0,0,1-2.65,1.14,2.57,2.57,0,0,1-1.89-.76,3.47,3.47,0,0,1-.85-2.56,5.53,5.53,0,0,1,1.89-3.88,7.56,7.56,0,0,1,5.59-2.08q1.14-2.94,2.08-5.5-2.65.66-5.31,1.23l-.85-1.89a55.47,55.47,0,0,0,6-1l1.14-.47,1.61,1.23q.95.57-.09.85a50.15,50.15,0,0,0-2.65,5.68,33.72,33.72,0,0,1,6.44,1.52,51.74,51.74,0,0,0,.09-5.59l1.8.38q1,.19.19.76,0,3.13-.19,5.12A37.32,37.32,0,0,1,204,448.3l-.95,1.89q-2-1.14-3.6-1.89ZM189,445.94a4.74,4.74,0,0,0-3.51,1.33,4.24,4.24,0,0,0-1.52,2.84,1.28,1.28,0,0,0,.38.95,1.16,1.16,0,0,0,.85.28,1.85,1.85,0,0,0,1.52-1q.57-.85,2.27-4.36Z"/><path class="cls-5" d="M225.62,439.4a16.34,16.34,0,0,0-5.21.66,10.66,10.66,0,0,0-3.88,2.56,6.28,6.28,0,0,0-1.8,4.64,5,5,0,0,0,1.42,3.7q1.89,1.9,7.3,2.08l-.76,2.08q-5.59-.28-7.77-2.46a7.22,7.22,0,0,1-2.18-5.31,8.21,8.21,0,0,1,3.51-7q-4.45.66-9.1,1.33l-.57-2.18q9.28-.66,18.66-2.27Zm-2.08,7.39a38.49,38.49,0,0,0-3.6-2.37l.95-1.14q1.42.85,3.6,2.37l-.95,1.14Zm1.89-2.27q-2.27-1.61-3.6-2.37l.95-1.14q1.33.76,3.6,2.37l-.95,1.14Z"/><path class="cls-5" d="M239.42,454.37q3.88-.38,5.21-1.71a4,4,0,0,0,1-2.94,4.25,4.25,0,0,0-1-3.13,5.31,5.31,0,0,0-3.41-1.42q-1.52,4.93-3.41,6.92l.57,1.23-1.8,1.33-.47-1q-2.46,2.08-4.17,2.08a2.9,2.9,0,0,1-2.08-.95,3.84,3.84,0,0,1-1-2.84,7.33,7.33,0,0,1,2.18-5.4,11.73,11.73,0,0,1,2.75-2.08l.19-3.6-4,.19-.38-2.08,4.45-.09q.09-2.18.28-4.17h1.8q.95.19.19.76-.19,1.71-.28,3.32a71.07,71.07,0,0,0,7.77-.85l.38,2.08q-4,.48-8.24.66l-.19,3a13,13,0,0,1,3.7-.57l.28-1.52,1.8.28q.85.19.19.76l-.09.66a7.19,7.19,0,0,1,4.55,1.89,6.29,6.29,0,0,1,1.8,4.64,5.76,5.76,0,0,1-1.61,4.26q-1.71,1.71-5.68,2.37l-1.23-2.08Zm-5.4-8a7,7,0,0,0-1.71,1.33,6,6,0,0,0-1.71,4.45,1.82,1.82,0,0,0,.57,1.33,1.09,1.09,0,0,0,.76.19,5,5,0,0,0,3.22-1.8,22.39,22.39,0,0,1-1.14-5.5Zm1.89-.95a15,15,0,0,0,.95,4.74A13.54,13.54,0,0,0,239,445a9.85,9.85,0,0,0-3.13.47Z"/><path class="cls-5" d="M263.1,453.8a4.26,4.26,0,0,0,2.56-1.23,4.1,4.1,0,0,0,1.14-3,4.49,4.49,0,0,0-1.23-3.32,5.32,5.32,0,0,0-3.88-1.23,8.16,8.16,0,0,0-4.83,1.23,26.51,26.51,0,0,0-4.17,4.07l-1.61-1.42a125.55,125.55,0,0,0,10.33-11.37q-3.13.38-6.25.66l-.66-2.18a63.65,63.65,0,0,0,8.24-.47l.85-.38,1,1q1,.95-.47,1.23-2.84,3.22-5.68,6.35a14.85,14.85,0,0,1,3.32-.47q3.6,0,5.31,1.71a5.9,5.9,0,0,1,1.71,4.36,5.77,5.77,0,0,1-1.52,4.26,7.83,7.83,0,0,1-5.78,2.27q-3.32,0-4.83-1.52a4,4,0,0,1-1.23-2.94,2.73,2.73,0,0,1,.85-2,3,3,0,0,1,2.18-.95,3.86,3.86,0,0,1,2.84,1.14,7.54,7.54,0,0,1,1.8,4.17Zm-1.89.28a5.73,5.73,0,0,0-1.14-3.32,1.92,1.92,0,0,0-1.33-.66,1.55,1.55,0,0,0-1.14.38,1.45,1.45,0,0,0-.47,1,2.26,2.26,0,0,0,.76,1.61,3.33,3.33,0,0,0,2.46.95Z"/><path class="cls-5" d="M276.37,439.87a15.19,15.19,0,0,1,3.51-4.45l1,.95a14.25,14.25,0,0,0-3.32,4.17,12,12,0,0,0-1,5.21,11.45,11.45,0,0,0,1,4.83,18.33,18.33,0,0,0,3.32,4.64l-1,1a22.1,22.1,0,0,1-3.51-5,12.49,12.49,0,0,1-1.23-5.5,13.38,13.38,0,0,1,1.23-5.87Z"/><path class="cls-5" d="M289.83,455.13h-2.18V436.84h14.88v17.91h-2.18v-1.33H289.83ZM300.34,444v-5.4H289.83V444Zm0,7.58v-5.78H289.83v5.78Z"/><path class="cls-5" d="M329.15,452.66a26.07,26.07,0,0,1-9-9.19v6H324v1.8h-3.88v5.12h-1.89v-5.12h-3.7v-1.8h3.7v-6a21.19,21.19,0,0,1-8.91,9.66l-1-2a19.91,19.91,0,0,0,9.19-10.23h-8.24v-1.8h9v-4.26h1.8q.76.1.09.57v3.7h9.1v1.8h-8.43a26.12,26.12,0,0,0,9.38,9.57Z"/><path class="cls-5" d="M337.86,451.24a22.14,22.14,0,0,1-3.51,5l-1-1a18.4,18.4,0,0,0,3.32-4.64,11.47,11.47,0,0,0,1-4.83,12,12,0,0,0-1-5.21,14.3,14.3,0,0,0-3.32-4.17l1-.95a15.24,15.24,0,0,1,3.51,4.45,13.4,13.4,0,0,1,1.23,5.87,12.51,12.51,0,0,1-1.23,5.5Z"/></g></svg>